<?xml version="1.0" encoding="UTF-8"?>
<svg width="496px" height="138px" viewBox="0 0 496 138" version="1.1" xmlns="http://www.w3.org/2000/svg" xmlns:xlink="http://www.w3.org/1999/xlink">
    <!-- Generator: Sketch 56.3 (81716) - https://sketch.com -->
    <title>Group 3 Copy</title>
    <desc>Created with Sketch.</desc>
    <g id="Page-1" stroke="none" stroke-width="1" fill="none" fill-rule="evenodd">
        <g id="Text-Logo-|-White" transform="translate(-226.000000, -207.000000)">
            <g id="Group-3-Copy" transform="translate(226.000000, 207.000000)">
                <g id="Group-2">
                    <g id="Group">
                        <g id="Group-3">
                            <path d="M381.542407,104.44 C399.882454,104.44 414.75,89.7101683 414.75,71.54 C414.75,53.3698317 399.882454,38.64 381.542407,38.64 C371.484804,38.64 381.542407,38.64 348.334814,38.64 C347.585396,38.64 345.953352,38.64 344.927948,38.64 C342.833227,38.64 343.330775,40.9321608 343.610008,43.932955 C344.447077,52.9285506 347.294672,66.2718956 348.334814,71.54 C351.922358,89.7101683 363.20236,104.44 381.542407,104.44 Z" id="Oval-Copy-4" fill="#F5B5B1"></path>
                            <path d="M0,38.64 L16.8,38.64 L16.8,49.28 L17.08,49.28 C18.946676,45.3599804 21.6066494,42.3266774 25.06,40.18 C28.5133506,38.0333226 32.4799776,36.96 36.96,36.96 C37.9866718,36.96 38.9899951,37.0533324 39.97,37.24 C40.9500049,37.4266676 41.9533282,37.66 42.98,37.94 L42.98,54.18 C41.579993,53.8066648 40.2033401,53.5033345 38.85,53.27 C37.4966599,53.0366655 36.1666732,52.92 34.86,52.92 C30.9399804,52.92 27.7900119,53.6433261 25.41,55.09 C23.0299881,56.5366739 21.2100063,58.193324 19.95,60.06 C18.6899937,61.926676 17.8500021,63.793324 17.43,65.66 C17.0099979,67.526676 16.8,68.926662 16.8,69.86 L16.8,105.84 L0,105.84 L0,38.64 Z M88.06,96.6 L87.64,96.6 C85.2133212,100.426686 82.133352,103.203325 78.4,104.93 C74.666648,106.656675 70.5600224,107.52 66.08,107.52 C62.9999846,107.52 59.9900147,107.100004 57.05,106.26 C54.1099853,105.419996 51.4966781,104.16 49.21,102.48 C46.9233219,100.799992 45.08,98.7000126 43.68,96.18 C42.28,93.66 41.58,90.7200168 41.58,87.36 C41.58,83.7199818 42.2333268,80.6166795 43.54,78.05 C44.8466732,75.4833205 46.5966557,73.3366753 48.79,71.61 C50.9833443,69.8833247 53.5266522,68.5066718 56.42,67.48 C59.3133478,66.4533282 62.3233177,65.6833359 65.45,65.17 C68.5766823,64.6566641 71.7266508,64.3300007 74.9,64.19 C78.0733492,64.0499993 81.059986,63.98 83.86,63.98 L88.06,63.98 L88.06,62.16 C88.06,57.959979 86.6133478,54.8100105 83.72,52.71 C80.8266522,50.6099895 77.1400224,49.56 72.66,49.56 C69.1133156,49.56 65.8000154,50.1899937 62.72,51.45 C59.6399846,52.7100063 56.98,54.4133226 54.74,56.56 L45.92,47.74 C49.653352,43.9133142 54.0166417,41.16 59.01,39.48 C64.0033583,37.7999916 69.1599734,36.96 74.48,36.96 C79.2400238,36.96 83.253317,37.4966613 86.52,38.57 C89.786683,39.6433387 92.4933226,41.0199916 94.64,42.7 C96.7866774,44.3800084 98.4433275,46.3166557 99.61,48.51 C100.776673,50.7033443 101.616664,52.9199888 102.13,55.16 C102.643336,57.4000112 102.946666,59.5699895 103.04,61.67 C103.133334,63.7700105 103.18,65.6133254 103.18,67.2 L103.18,105.84 L88.06,105.84 L88.06,96.6 Z M87.08,75.74 L83.58,75.74 C81.246655,75.74 78.6333478,75.8333324 75.74,76.02 C72.8466522,76.2066676 70.1166795,76.6499965 67.55,77.35 C64.9833205,78.0500035 62.8133422,79.0766599 61.04,80.43 C59.2666578,81.7833401 58.38,83.6733212 58.38,86.1 C58.38,87.6866746 58.7299965,89.0166613 59.43,90.09 C60.1300035,91.1633387 61.0399944,92.0733296 62.16,92.82 C63.28,93.5666704 64.539993,94.1033317 65.94,94.43 C67.340007,94.7566683 68.739993,94.92 70.14,94.92 C75.9266956,94.92 80.1966529,93.5433471 82.95,90.79 C85.7033471,88.0366529 87.08,84.2800238 87.08,79.52 L87.08,75.74 Z M140.84,38.64 L156.8,38.64 L156.8,49.42 L157.08,49.42 C158.666675,46.0599832 161.093317,43.1433457 164.36,40.67 C167.626683,38.1966543 172.059972,36.96 177.66,36.96 C182.140022,36.96 185.943318,37.7066592 189.07,39.2 C192.196682,40.6933408 194.74,42.6533212 196.7,45.08 C198.66001,47.5066788 200.059996,50.3066508 200.9,53.48 C201.74,56.6533492 202.16,59.9666494 202.16,63.42 L202.16,105.84 L185.36,105.84 L185.36,71.82 C185.36,69.953324 185.266668,67.8766781 185.08,65.59 C184.893332,63.3033219 184.403337,61.1566767 183.61,59.15 C182.816663,57.1433233 181.580008,55.4633401 179.9,54.11 C178.219992,52.7566599 175.933348,52.08 173.04,52.08 C170.239986,52.08 167.883343,52.546662 165.97,53.48 C164.056657,54.413338 162.470006,55.6733254 161.21,57.26 C159.949994,58.8466746 159.04,60.6666564 158.48,62.72 C157.919997,64.7733436 157.64,66.9199888 157.64,69.16 L157.64,105.84 L140.84,105.84 L140.84,38.64 Z M266,95.76 L265.72,95.76 C263.293321,99.8666872 260.026687,102.853324 255.92,104.72 C251.813313,106.586676 247.380024,107.52 242.62,107.52 C237.393307,107.52 232.75002,106.610009 228.69,104.79 C224.62998,102.969991 221.153348,100.473349 218.26,97.3 C215.366652,94.1266508 213.173341,90.3933548 211.68,86.1 C210.186659,81.8066452 209.44,77.1866914 209.44,72.24 C209.44,67.2933086 210.233325,62.6733548 211.82,58.38 C213.406675,54.0866452 215.623319,50.3533492 218.47,47.18 C221.316681,44.0066508 224.746647,41.5100091 228.76,39.69 C232.773353,37.8699909 237.159976,36.96 241.92,36.96 C245.093349,36.96 247.893321,37.2866634 250.32,37.94 C252.746679,38.5933366 254.893324,39.4333282 256.76,40.46 C258.626676,41.4866718 260.213327,42.5833275 261.52,43.75 C262.826673,44.9166725 263.899996,46.0599944 264.74,47.18 L265.16,47.18 L265.16,0 L281.96,0 L281.96,105.84 L266,105.84 L266,95.76 Z M226.24,72.24 C226.24,74.8533464 226.683329,77.3733212 227.57,79.8 C228.456671,82.2266788 229.763325,84.373324 231.49,86.24 C233.216675,88.106676 235.293321,89.5999944 237.72,90.72 C240.146679,91.8400056 242.899985,92.4 245.98,92.4 C249.060015,92.4 251.813321,91.8400056 254.24,90.72 C256.666679,89.5999944 258.743325,88.106676 260.47,86.24 C262.196675,84.373324 263.503329,82.2266788 264.39,79.8 C265.276671,77.3733212 265.72,74.8533464 265.72,72.24 C265.72,69.6266536 265.276671,67.1066788 264.39,64.68 C263.503329,62.2533212 262.196675,60.106676 260.47,58.24 C258.743325,56.373324 256.666679,54.88 254.24,53.76 C251.813321,52.6399944 249.060015,52.08 245.98,52.08 C242.899985,52.08 240.146679,52.6399944 237.72,53.76 C235.293321,54.88 233.216675,56.373324 231.49,58.24 C229.763325,60.106676 228.456671,62.2533212 227.57,64.68 C226.683329,67.1066788 226.24,69.6266536 226.24,72.24 Z M292.6,38.64 L309.4,38.64 L309.4,49.28 L309.68,49.28 C311.546676,45.3599804 314.206649,42.3266774 317.66,40.18 C321.113351,38.0333226 325.079978,36.96 329.56,36.96 C330.586672,36.96 331.589995,37.0533324 332.57,37.24 C333.550005,37.4266676 334.553328,37.66 335.58,37.94 L335.58,54.18 C334.179993,53.8066648 332.80334,53.5033345 331.45,53.27 C330.09666,53.0366655 328.766673,52.92 327.46,52.92 C323.53998,52.92 320.390012,53.6433261 318.01,55.09 C315.629988,56.5366739 313.810006,58.193324 312.55,60.06 C311.289994,61.926676 310.450002,63.793324 310.03,65.66 C309.609998,67.526676 309.4,68.926662 309.4,69.86 L309.4,105.84 L292.6,105.84 L292.6,38.64 Z M422.94,38.64 L438.9,38.64 L438.9,48.72 L439.18,48.72 C441.606679,44.6133128 444.873313,41.626676 448.98,39.76 C453.086687,37.893324 457.519976,36.96 462.28,36.96 C467.413359,36.96 472.033313,37.8699909 476.14,39.69 C480.246687,41.5100091 483.746652,44.0066508 486.64,47.18 C489.533348,50.3533492 491.726659,54.0866452 493.22,58.38 C494.713341,62.6733548 495.46,67.2933086 495.46,72.24 C495.46,77.1866914 494.666675,81.8066452 493.08,86.1 C491.493325,90.3933548 489.276681,94.1266508 486.43,97.3 C483.583319,100.473349 480.153353,102.969991 476.14,104.79 C472.126647,106.610009 467.740024,107.52 462.98,107.52 C459.806651,107.52 457.006679,107.193337 454.58,106.54 C452.153321,105.886663 450.006676,105.046672 448.14,104.02 C446.273324,102.993328 444.686673,101.896673 443.38,100.73 C442.073327,99.5633275 441.000004,98.4200056 440.16,97.3 L439.74,97.3 L439.74,137.76 L422.94,137.76 L422.94,38.64 Z M478.66,72.24 C478.66,69.6266536 478.216671,67.1066788 477.33,64.68 C476.443329,62.2533212 475.136675,60.106676 473.41,58.24 C471.683325,56.373324 469.606679,54.88 467.18,53.76 C464.753321,52.6399944 462.000015,52.08 458.92,52.08 C455.839985,52.08 453.086679,52.6399944 450.66,53.76 C448.233321,54.88 446.156675,56.373324 444.43,58.24 C442.703325,60.106676 441.396671,62.2533212 440.51,64.68 C439.623329,67.1066788 439.18,69.6266536 439.18,72.24 C439.18,74.8533464 439.623329,77.3733212 440.51,79.8 C441.396671,82.2266788 442.703325,84.373324 444.43,86.24 C446.156675,88.106676 448.233321,89.5999944 450.66,90.72 C453.086679,91.8400056 455.839985,92.4 458.92,92.4 C462.000015,92.4 464.753321,91.8400056 467.18,90.72 C469.606679,89.5999944 471.683325,88.106676 473.41,86.24 C475.136675,84.373324 476.443329,82.2266788 477.33,79.8 C478.216671,77.3733212 478.66,74.8533464 478.66,72.24 Z" id="raindrop" fill="#AE0F3B" fill-rule="nonzero"></path>
                            <path d="M113.75,38.64 L130.55,38.64 C130.55,64.5718808 130.55,82.0198209 130.55,90.9838204 C130.486816,92.1312405 130.106251,93.0615187 129.718694,94.0322346 C127.302239,100.08475 121.979341,104.487339 113.75,107.24 L113.75,38.64 Z" id="Rectangle-Copy-5" fill="#AE0F3B"></path>
                        </g>
                    </g>
                </g>
                <path d="M110.74,15.82 C110.74,13.1133198 111.743323,10.7566767 113.75,8.75 C115.756677,6.7433233 118.299985,5.74 121.38,5.74 C124.460015,5.74 127.049989,6.6966571 129.15,8.61 C131.25001,10.5233429 132.3,12.9266522 132.3,15.82 C132.3,18.7133478 131.25001,21.1166571 129.15,23.03 C127.049989,24.9433429 124.460015,25.9 121.38,25.9 C118.299985,25.9 115.756677,24.8966767 113.75,22.89 C111.743323,20.8833233 110.74,18.5266802 110.74,15.82 Z" id="Path" fill="#AE0F3B" fill-rule="nonzero"></path>
            </g>
        </g>
    </g>
</svg>