<svg width="84" height="37" viewBox="0 0 84 37" fill="none" xmlns="http://www.w3.org/2000/svg">
<path d="M20.9015 14.4763H11.2153V17.3702H18.0862C17.745 21.427 14.3915 23.1581 11.2284 23.1581C9.19205 23.1581 7.23909 22.3436 5.79916 20.8939C4.35923 19.4442 3.55029 17.4779 3.55029 15.4277C3.55029 13.3775 4.35923 11.4112 5.79916 9.96152C7.23909 8.5118 9.19205 7.69735 11.2284 7.69735C13.1586 7.69433 15.0147 8.44513 16.4062 9.79181L18.4209 7.69074C16.4749 5.79655 13.8627 4.75595 11.1562 4.79681C9.76959 4.80679 8.39849 5.09165 7.12119 5.63512C5.8439 6.17859 4.68544 6.97003 3.71195 7.96426C2.73845 8.95849 1.969 10.136 1.44751 11.4296C0.926027 12.7233 0.662722 14.1076 0.672633 15.5037C0.682544 16.8998 0.965476 18.2802 1.50527 19.5662C2.04507 20.8522 2.83117 22.0185 3.81868 22.9986C4.80618 23.9787 5.97576 24.7534 7.26064 25.2785C8.54552 25.8035 9.92053 26.0686 11.3072 26.0586C16.9575 26.0586 21.0984 22.1604 21.0984 16.3924C21.1101 15.749 21.0507 15.1064 20.9212 14.4763H20.9015Z" fill="#4385F5"/>
<path d="M28.8355 12.3817C27.4957 12.3869 26.1874 12.7914 25.0755 13.5441C23.9637 14.2968 23.098 15.364 22.5877 16.6113C22.0773 17.8585 21.9452 19.23 22.2078 20.5527C22.4705 21.8755 23.1162 23.0904 24.0636 24.0442C25.011 24.9981 26.2177 25.6482 27.5315 25.9127C28.8454 26.1771 30.2076 26.044 31.4464 25.5302C32.6852 25.0164 33.7453 24.1449 34.4929 23.0255C35.2405 21.906 35.6422 20.5888 35.6474 19.2399C35.6616 18.3353 35.495 17.4371 35.1577 16.5986C34.8204 15.7601 34.3192 14.9983 33.6838 14.3586C33.0484 13.7189 32.2918 13.2143 31.459 12.8747C30.6261 12.5351 29.734 12.3674 28.8355 12.3817ZM28.8749 15.0642C29.7007 15.0152 30.5222 15.2172 31.2326 15.6439C31.943 16.0707 32.5097 16.7025 32.8592 17.4575C33.2086 18.2125 33.3247 19.0557 33.1923 19.8779C33.0599 20.7001 32.6852 21.4632 32.1168 22.0684C31.5484 22.6736 30.8124 23.0928 30.0045 23.2718C29.1965 23.4507 28.3538 23.3811 27.5856 23.0719C26.8174 22.7628 26.1592 22.2284 25.6963 21.538C25.2335 20.8476 24.9874 20.0332 24.9899 19.2003C24.9623 18.6687 25.0423 18.137 25.2249 17.6375C25.4075 17.138 25.689 16.681 26.0523 16.2943C26.4155 15.9075 26.853 15.5991 27.3382 15.3876C27.8234 15.1762 28.3462 15.0662 28.8749 15.0642Z" fill="#EB4235"/>
<path d="M43.68 12.3816C42.3398 12.3855 41.0309 12.7889 39.9182 13.5408C38.8055 14.2927 37.9388 15.3595 37.4274 16.6066C36.9161 17.8538 36.783 19.2254 37.0449 20.5486C37.3069 21.8718 37.9521 23.0873 38.8992 24.0418C39.8464 24.9963 41.053 25.6471 42.367 25.9121C43.681 26.1771 45.0436 26.0444 46.2828 25.5308C47.522 25.0172 48.5824 24.1456 49.3303 23.0261C50.0782 21.9065 50.4801 20.589 50.4853 19.2398C50.4994 18.3358 50.3331 17.4381 49.9962 16.6001C49.6593 15.762 49.1587 15.0005 48.524 14.3609C47.8893 13.7213 47.1335 13.2165 46.3014 12.8765C45.4693 12.5365 44.5779 12.3682 43.68 12.3816ZM43.7193 15.0641C44.5452 15.0151 45.3666 15.2171 46.0771 15.6438C46.7875 16.0706 47.3542 16.7024 47.7036 17.4574C48.0531 18.2124 48.1691 19.0556 48.0367 19.8778C47.9044 20.7 47.5297 21.4631 46.9612 22.0683C46.3928 22.6735 45.6569 23.0927 44.8489 23.2717C44.0409 23.4506 43.1982 23.381 42.43 23.0718C41.6618 22.7627 41.0036 22.2283 40.5408 21.5379C40.0779 20.8475 39.8318 20.0331 39.8343 19.2002C39.8068 18.6686 39.8867 18.1369 40.0694 17.6374C40.252 17.1379 40.5334 16.6809 40.8967 16.2942C41.26 15.9074 41.6975 15.599 42.1827 15.3875C42.6679 15.1761 43.1906 15.0661 43.7193 15.0641Z" fill="#F9BC04"/>
<path d="M58.2293 12.3883C54.5805 12.3883 51.7127 15.6059 51.7127 19.2134C51.6858 20.9763 52.3462 22.6796 53.5521 23.958C54.7581 25.2364 56.4136 25.9881 58.1636 26.0518C58.8698 26.0906 59.5751 25.9605 60.2218 25.6723C60.8685 25.384 61.4383 24.9458 61.8846 24.3934V25.7149C61.8846 28.0736 60.4605 29.4809 58.3146 29.4809C57.5662 29.4747 56.8367 29.2438 56.2194 28.8177C55.6021 28.3916 55.1252 27.7897 54.8496 27.0892L52.2246 28.1859C52.7323 29.3894 53.5832 30.414 54.6696 31.1303C55.7561 31.8466 57.0291 32.2222 58.3277 32.2097C61.9568 32.2097 64.7196 29.9104 64.7196 25.0872V12.7979H61.8911V13.9542C61.4273 13.4449 60.8604 13.0417 60.2288 12.7716C59.5971 12.5015 58.9153 12.3708 58.2293 12.3883ZM58.4918 15.0642C60.2833 15.0642 62.1143 16.6036 62.1143 19.2267C62.1143 21.8497 60.2833 23.3693 58.4524 23.3693C57.9346 23.3561 57.4248 23.238 56.9533 23.0222C56.4819 22.8064 56.0583 22.4972 55.7081 22.1131C55.3578 21.729 55.0879 21.2778 54.9145 20.7864C54.741 20.2951 54.6676 19.7736 54.6986 19.2531C54.6986 16.6102 56.5755 15.0642 58.4918 15.0642Z" fill="#4385F5"/>
<path d="M77.3915 12.3687C73.9528 12.3687 71.0587 15.1238 71.0587 19.1938C71.0247 20.0908 71.1726 20.9853 71.4934 21.8228C71.8142 22.6603 72.3011 23.4233 72.9244 24.065C73.5477 24.7068 74.2944 25.214 75.1188 25.5556C75.9433 25.8973 76.8282 26.0662 77.7197 26.052C78.8377 26.0543 79.9394 25.7823 80.9296 25.2597C81.9198 24.737 82.7686 23.9794 83.4028 23.0524L81.0534 21.4799C80.7131 22.0614 80.226 22.5418 79.6417 22.8726C79.0574 23.2033 78.3965 23.3725 77.7262 23.3629C77.03 23.3919 76.341 23.2104 75.7481 22.8419C75.1551 22.4733 74.6853 21.9346 74.399 21.2949L83.5012 17.4958L83.0287 16.3792C82.5949 15.2192 81.8248 14.2173 80.8185 13.5034C79.8121 12.7894 78.6159 12.3964 77.385 12.3753L77.3915 12.3687ZM77.5097 15.0115C78.0231 14.9892 78.5323 15.1147 78.9774 15.3733C79.4226 15.632 79.7853 16.013 80.0231 16.4717L73.9462 19.0287C73.9161 18.5288 73.9846 18.028 74.1477 17.5549C74.3108 17.0819 74.5654 16.6461 74.8967 16.2726C75.2279 15.8991 75.6294 15.5954 76.0779 15.379C76.5264 15.1625 77.013 15.0376 77.5097 15.0115Z" fill="#EB4235"/>
<path d="M66.7209 25.6491H69.7135V5.50391H66.7209V25.6491Z" fill="#34A853"/>
</svg>
