<svg width="235" height="50" viewBox="0 0 235 50" fill="none" xmlns="http://www.w3.org/2000/svg">
<path d="M49.8674 37.106L28.6141 48.3957C27.696 48.8834 26.6742 49.1383 25.6367 49.1383C24.5992 49.1383 23.5773 48.8834 22.6593 48.3957L1.40929 37.106C1.11563 36.9502 0.870492 36.7153 0.7011 36.4274C0.531709 36.1395 0.444672 35.8099 0.449666 35.4751C0.45466 35.1403 0.551482 34.8135 0.729384 34.5308C0.907286 34.2482 1.15931 34.0209 1.45748 33.874L25.6367 21.9628L49.8158 33.874C50.114 34.0209 50.366 34.2482 50.5439 34.5308C50.7218 34.8135 50.8187 35.1403 50.8237 35.4751C50.8286 35.8099 50.7416 36.1395 50.5722 36.4274C50.4028 36.7153 50.1577 36.9502 49.8641 37.106H49.8674Z" fill="url(#paint0_linear_1_353)"/>
<path d="M49.8671 29.8022L28.6171 41.0919C27.6991 41.5796 26.6772 41.8345 25.6397 41.8345C24.6023 41.8345 23.5804 41.5796 22.6623 41.0919L1.41235 29.8022C1.11891 29.6463 0.873991 29.4114 0.704753 29.1236C0.535515 28.8358 0.44858 28.5063 0.453573 28.1717C0.458566 27.837 0.555289 27.5104 0.733037 27.2278C0.910785 26.9453 1.16259 26.718 1.46055 26.571L25.6397 14.6598L49.8189 26.571C50.1169 26.718 50.3687 26.9453 50.5464 27.2278C50.7242 27.5104 50.8209 27.837 50.8259 28.1717C50.8309 28.5063 50.744 28.8358 50.5747 29.1236C50.4055 29.4114 50.1606 29.6463 49.8671 29.8022Z" fill="url(#paint1_linear_1_353)"/>
<path d="M49.8671 22.5384L28.6172 33.828C27.6991 34.3158 26.6772 34.5707 25.6398 34.5707C24.6023 34.5707 23.5804 34.3158 22.6624 33.828L1.41238 22.5384C1.11894 22.3825 0.874016 22.1476 0.704778 21.8598C0.53554 21.572 0.44858 21.2425 0.453573 20.9079C0.458565 20.5732 0.555314 20.2465 0.733062 19.964C0.91081 19.6815 1.16262 19.4541 1.46058 19.3072L25.6398 7.396L49.8189 19.3072C50.1169 19.4541 50.3687 19.6815 50.5464 19.964C50.7242 20.2465 50.8209 20.5732 50.8259 20.9079C50.8309 21.2425 50.744 21.572 50.5747 21.8598C50.4055 22.1476 50.1606 22.3825 49.8671 22.5384Z" fill="url(#paint2_linear_1_353)"/>
<path d="M49.8676 15.28L28.6143 26.5697C27.6963 27.0574 26.6744 27.3122 25.6369 27.3122C24.5994 27.3122 23.5776 27.0574 22.6595 26.5697L1.40953 15.28C1.11587 15.1242 0.870736 14.8893 0.701344 14.6014C0.531953 14.3135 0.444917 13.9839 0.44991 13.6491C0.454904 13.3143 0.551726 12.9875 0.729628 12.7048C0.90753 12.4222 1.15955 12.1949 1.45773 12.048L22.8324 1.51582C23.7058 1.08541 24.6649 0.861694 25.6369 0.861694C26.6089 0.861694 27.568 1.08541 28.4414 1.51582L49.8186 12.0522C50.1167 12.1991 50.3688 12.4264 50.5467 12.709C50.7246 12.9917 50.8214 13.3185 50.8264 13.6533C50.8314 13.9881 50.7444 14.3177 50.575 14.6056C50.4056 14.8935 50.1604 15.1284 49.8668 15.2842L49.8676 15.28Z" fill="url(#paint3_linear_1_353)"/>
<path d="M100.361 12.6145V36.8849H97.0584V34.7509L96.9553 34.6797C96.9309 34.7481 96.8985 34.8135 96.8589 34.8743C96.2161 35.6976 95.3875 36.3539 94.4424 36.7885C93.4972 37.223 92.4628 37.4233 91.4254 37.3726C90.388 37.3219 89.3776 37.0216 88.4785 36.4969C87.5794 35.9721 86.8177 35.238 86.2568 34.3559C85.1778 32.7535 84.6679 30.8298 84.8103 28.8977C84.9526 26.9657 85.7387 25.1392 87.0406 23.7155C87.6548 23.0517 88.3997 22.5249 89.2276 22.169C90.0555 21.813 90.948 21.6357 91.8478 21.6485C92.7476 21.6613 93.6348 21.8639 94.4524 22.2432C95.27 22.6226 96 23.1704 96.5954 23.8513C96.7301 24.0006 96.8656 24.15 97.0451 24.3546V12.6145H100.361ZM92.6247 34.0187C93.5091 34.0109 94.3713 33.7384 95.102 33.2356C95.8327 32.7328 96.3991 32.0224 96.7292 31.1944C97.0594 30.3664 97.1385 29.4581 96.9565 28.5847C96.7746 27.7113 96.3398 26.912 95.7073 26.2883C95.0747 25.6645 94.2728 25.2443 93.4034 25.081C92.5339 24.9177 91.6359 25.0185 90.8233 25.3708C90.0107 25.723 89.32 26.3108 88.8388 27.0597C88.3576 27.8085 88.1075 28.6847 88.1203 29.5771C88.1409 30.7666 88.6253 31.9 89.4685 32.7315C90.3117 33.563 91.4458 34.0255 92.6247 34.0187Z" fill="#3B2A82"/>
<path d="M74.7628 14.6696C78.1874 22.1007 81.5863 29.4798 84.9984 36.9033H83.0642C82.4408 36.9033 81.824 36.8966 81.2006 36.91C81.1281 36.9197 81.0547 36.9027 80.9937 36.8622C80.9326 36.8217 80.8881 36.7604 80.8682 36.6894C80.3993 35.6392 79.9114 34.5924 79.4417 33.538C79.4142 33.4543 79.3588 33.3828 79.2851 33.3356C79.2113 33.2884 79.1237 33.2683 79.037 33.2788C76.1776 33.2855 73.3182 33.2855 70.4588 33.2788C70.3662 33.2678 70.2727 33.2895 70.1942 33.3403C70.1157 33.3911 70.0571 33.4678 70.0283 33.5573C69.5656 34.6013 69.0923 35.6387 68.6086 36.6693C68.5637 36.7666 68.4423 36.8899 68.3592 36.8899C67.0866 36.9025 65.8148 36.9025 64.4849 36.9025C67.9128 29.4856 71.3249 22.1132 74.7628 14.6696ZM77.6089 29.6224L74.7628 23.3656L71.8843 29.6232L77.6089 29.6224Z" fill="#3B2A82"/>
<path d="M121.52 17.9443C120.678 18.8259 119.849 19.7008 119.021 20.5706C117.619 19.1474 115.721 18.3337 113.733 18.3035C111.745 18.2733 109.824 19.0289 108.38 20.409C106.937 21.789 106.085 23.684 106.008 25.6892C105.93 27.6943 106.633 29.6504 107.966 31.1398C108.645 31.9319 109.483 32.5698 110.424 33.0112C111.366 33.4526 112.389 33.6876 113.427 33.7007C114.462 33.7402 115.492 33.5624 116.455 33.1784C117.417 32.7944 118.29 32.2128 119.017 31.4703L121.529 34.0899C119.953 35.6605 117.952 36.7259 115.778 37.152C113.603 37.5782 111.352 37.3461 109.308 36.485C107.264 35.6238 105.518 34.1721 104.289 32.3122C103.06 30.4524 102.404 28.2675 102.402 26.0321C102.4 23.7968 103.054 21.6108 104.279 19.749C105.505 17.8873 107.249 16.4328 109.292 15.5684C111.335 14.7041 113.585 14.4685 115.76 14.8912C117.935 15.3139 119.938 16.3762 121.517 17.9443H121.52Z" fill="url(#paint4_linear_1_353)"/>
<path d="M161.98 36.8846H158.683V34.7515L158.619 34.7188C158.549 34.8026 158.478 34.8807 158.407 34.9654C157.75 35.7902 156.901 36.4392 155.937 36.8554C154.972 37.2715 153.921 37.442 152.875 37.3518C151.995 37.2951 151.137 37.0515 150.356 36.637C149.575 36.2224 148.89 35.6462 148.345 34.9461C147.344 33.7633 146.692 32.3205 146.464 30.782C146.235 29.2434 146.44 27.6711 147.054 26.2442C147.39 25.2989 147.925 24.4381 148.621 23.7207C149.318 23.0033 150.16 22.4463 151.089 22.0878C152.318 21.6102 153.663 21.5251 154.942 21.8441C156.22 22.1631 157.371 22.8707 158.238 23.8712C158.367 24.0138 158.495 24.1563 158.675 24.3635V22.139H161.991V36.8846H161.98ZM154.154 34.0184C155.036 34.0284 155.9 33.775 156.639 33.2899C157.379 32.8049 157.959 32.1099 158.307 31.2926C158.656 30.4754 158.756 29.5723 158.597 28.6972C158.438 27.8222 158.025 27.0143 157.412 26.3753C156.798 25.7364 156.011 25.295 155.15 25.1067C154.288 24.9185 153.39 24.9918 152.57 25.3175C151.749 25.6431 151.043 26.2065 150.539 26.9367C150.035 27.6669 149.757 28.5313 149.739 29.4208C149.729 30.0156 149.835 30.6066 150.051 31.1599C150.267 31.7133 150.59 32.2181 151 32.6453C151.41 33.0725 151.9 33.4137 152.441 33.6493C152.982 33.885 153.565 34.0104 154.154 34.0184Z" fill="url(#paint5_linear_1_353)"/>
<path d="M144.729 30.9382H133.575C133.645 31.1001 133.684 31.2301 133.748 31.3467C134.112 32.0311 134.63 32.6196 135.261 33.0645C135.892 33.5093 136.617 33.7982 137.379 33.9077C138.282 34.0997 139.219 34.0666 140.106 33.8113C140.994 33.5559 141.807 33.086 142.474 32.4422L144.775 34.8614C144.101 35.5315 143.318 36.08 142.461 36.4828C140.81 37.2796 138.959 37.5578 137.149 37.2814C135.339 37.0051 133.653 36.1869 132.31 34.9327C131.306 34.0147 130.579 32.8309 130.21 31.5161C129.84 30.2013 129.845 28.8083 130.222 27.4957C130.555 25.9576 131.366 24.5667 132.536 23.5248C133.705 22.4829 135.174 21.8441 136.728 21.701C138.281 21.558 139.84 21.9182 141.177 22.7294C142.515 23.5405 143.561 24.7605 144.165 26.2123C144.808 27.6977 145.004 29.3412 144.729 30.9382ZM141.259 28.0594C141.027 27.1768 140.509 26.3974 139.789 25.8443C139.069 25.2913 138.187 24.996 137.282 25.0053C135.528 25.0891 133.658 26.62 133.561 28.0594H141.259Z" fill="url(#paint6_linear_1_353)"/>
<path d="M197.21 30.9299C198.32 34.0746 203.229 35.2079 206.076 32.4397C206.834 33.2375 207.593 34.0411 208.376 34.8589C207.814 35.423 207.169 35.8974 206.465 36.2656C204.727 37.2071 202.734 37.5585 200.783 37.2677C198.832 36.9768 197.025 36.0592 195.631 34.6509C194.739 33.6771 194.107 32.4895 193.797 31.2006C193.486 29.9117 193.507 28.5641 193.857 27.2855C194.207 26.007 194.875 24.8398 195.797 23.8945C196.719 22.9492 197.865 22.2572 199.127 21.884C200.839 21.4383 202.652 21.6278 204.237 22.4181C205.822 23.2084 207.073 24.5468 207.762 26.1897C208.393 27.6331 208.595 29.2302 208.344 30.7873C208.337 30.8259 208.325 30.8653 208.311 30.9299H197.21ZM197.151 28.051H204.868C204.655 27.1811 204.159 26.4082 203.459 25.8558C202.76 25.3034 201.897 25.0033 201.009 25.0033C200.121 25.0033 199.259 25.3034 198.559 25.8558C197.86 26.4082 197.364 27.1811 197.151 28.051Z" fill="url(#paint7_linear_1_353)"/>
<path d="M194.654 22.1181C192.064 27.2349 189.5 32.2787 186.917 37.3846C184.334 32.2879 181.77 27.2307 179.181 22.1181H179.929C180.784 22.1181 181.644 22.1307 182.499 22.1114C182.627 22.0923 182.758 22.1188 182.869 22.1862C182.981 22.2537 183.065 22.3579 183.109 22.4813C184.304 24.861 185.519 27.2282 186.726 29.5945C186.778 29.6985 186.835 29.7958 186.913 29.9384C186.983 29.8025 187.041 29.7052 187.093 29.6029L190.755 22.4058C190.79 22.3122 190.854 22.2328 190.937 22.1799C191.021 22.1271 191.12 22.1038 191.218 22.1139C192.347 22.1265 193.465 22.1181 194.654 22.1181Z" fill="url(#paint8_linear_1_353)"/>
<path d="M169.915 36.8838H166.59V25.4918H163.431V22.1264H166.59V20.505C166.59 20.0017 166.583 19.4867 166.597 18.9809C166.597 18.9262 166.609 18.8723 166.632 18.8229C166.655 18.7736 166.689 18.7301 166.731 18.6957C167.766 18.1572 168.809 17.632 169.899 17.0751V22.113H173.382V25.4683H169.909L169.915 36.8838Z" fill="url(#paint9_linear_1_353)"/>
<path d="M130.226 25.0832C129.756 24.977 129.27 24.9687 128.797 25.059C128.324 25.1493 127.874 25.3363 127.476 25.6083C126.98 25.9447 126.578 26.404 126.309 26.9423C126.04 27.4805 125.913 28.0795 125.939 28.6818V36.8779H122.644V22.1398H125.92V23.6438L125.991 23.6958C126.516 23.078 127.158 22.5731 127.88 22.2111C128.608 21.8417 129.412 21.6527 130.226 21.66V25.0832Z" fill="url(#paint10_linear_1_353)"/>
<path d="M174.817 22.1389H178.094V36.877H174.817V22.1389Z" fill="url(#paint11_linear_1_353)"/>
<path d="M178.429 16.9268C178.427 17.3206 178.309 17.7049 178.09 18.031C177.871 18.3571 177.561 18.6101 177.199 18.7581C176.838 18.906 176.441 18.9422 176.059 18.862C175.676 18.7818 175.327 18.5888 175.053 18.3075C174.78 18.0263 174.596 17.6695 174.524 17.2824C174.452 16.8953 174.496 16.4954 174.65 16.1334C174.804 15.7714 175.06 15.4637 175.388 15.2494C175.715 15.0351 176.099 14.9237 176.489 14.9295H176.495C177.014 14.9373 177.508 15.1516 177.87 15.5258C178.232 15.9 178.433 16.4037 178.429 16.9268Z" fill="url(#paint12_linear_1_353)"/>
<path d="M227.436 32.955C226.949 33.6605 226.417 34.333 225.843 34.9681C225.091 35.7351 224.178 36.3222 223.171 36.686C222.165 37.0499 221.09 37.1813 220.027 37.0705C218.963 36.9598 217.938 36.6097 217.026 36.0461C216.115 35.4825 215.34 34.7197 214.759 33.8139C213.752 32.307 213.271 30.5037 213.395 28.69C213.518 26.8764 214.238 25.1563 215.441 23.8026C216.219 22.9251 217.197 22.2514 218.29 21.8394C219.384 21.4274 220.56 21.2894 221.718 21.4374C222.875 21.5853 223.98 22.0147 224.938 22.6887C225.895 23.3626 226.675 24.261 227.212 25.3066C227.262 25.4108 227.331 25.5036 227.418 25.5792V21.87H228.96V36.6055H227.443V32.955H227.436ZM221.171 35.5419C222.407 35.5412 223.615 35.1708 224.642 34.4774C225.669 33.7841 226.469 32.7989 226.942 31.6465C227.414 30.4942 227.537 29.2264 227.295 28.0034C227.054 26.7804 226.458 25.6572 225.584 24.7758C224.71 23.8944 223.596 23.2944 222.384 23.0517C221.172 22.8089 219.916 22.9344 218.774 23.4121C217.633 23.8898 216.657 24.6984 215.971 25.7356C215.285 26.7727 214.919 27.9919 214.92 29.239C214.92 30.0671 215.082 30.887 215.396 31.652C215.711 32.4169 216.171 33.1119 216.752 33.6972C217.332 34.2824 218.021 34.7466 218.78 35.0631C219.538 35.3797 220.351 35.5423 221.171 35.5419Z" fill="#3B2A82"/>
<path d="M233.449 36.6365H232.145C232.08 36.6365 232.023 36.6298 231.939 36.6231V21.8733H233.443V36.6365H233.449Z" fill="#3B2A82"/>
<path d="M211.764 37.1047C211.409 37.0961 211.07 36.9501 210.817 36.6968C210.565 36.4435 210.419 36.1023 210.408 35.7433C210.409 35.5632 210.445 35.385 210.514 35.219C210.583 35.0529 210.684 34.9022 210.811 34.7755C210.938 34.6488 211.088 34.5485 211.253 34.4804C211.419 34.4123 211.596 34.3777 211.774 34.3786C211.953 34.3794 212.129 34.4158 212.294 34.4855C212.458 34.5552 212.608 34.657 212.733 34.785C212.859 34.913 212.958 35.0647 213.026 35.2314C213.093 35.3981 213.127 35.5766 213.127 35.7567C213.116 36.1157 212.969 36.4567 212.715 36.708C212.461 36.9594 212.12 37.1016 211.764 37.1047Z" fill="#3B2A82"/>
<path d="M232.711 15.9471C232.977 15.9488 233.237 16.0301 233.457 16.1807C233.678 16.3314 233.85 16.5446 233.95 16.7935C234.051 17.0424 234.076 17.3158 234.022 17.5791C233.969 17.8424 233.84 18.0839 233.65 18.273C233.461 18.4622 233.221 18.5905 232.959 18.6417C232.698 18.6929 232.427 18.6648 232.181 18.5608C231.936 18.4569 231.726 18.2818 231.579 18.0577C231.432 17.8337 231.354 17.5706 231.355 17.3018C231.358 16.9411 231.502 16.5962 231.756 16.3424C232.01 16.0885 232.353 15.9465 232.711 15.9471Z" fill="#3B2A82"/>
<defs>
<linearGradient id="paint0_linear_1_353" x1="25.6367" y1="21.9628" x2="25.6367" y2="49.1383" gradientUnits="userSpaceOnUse">
<stop offset="0.001" stop-color="#8F006D"/>
<stop offset="1" stop-color="#4C00B3"/>
</linearGradient>
<linearGradient id="paint1_linear_1_353" x1="25.6397" y1="14.6598" x2="25.6397" y2="41.8345" gradientUnits="userSpaceOnUse">
<stop offset="0.001" stop-color="#C8006D"/>
<stop offset="1" stop-color="#8200B3"/>
</linearGradient>
<linearGradient id="paint2_linear_1_353" x1="25.6398" y1="7.396" x2="25.6398" y2="34.5707" gradientUnits="userSpaceOnUse">
<stop offset="0.001" stop-color="#C8006D"/>
<stop offset="1" stop-color="#C5009F"/>
</linearGradient>
<linearGradient id="paint3_linear_1_353" x1="25.6381" y1="-1.20145" x2="25.6381" y2="29.9837" gradientUnits="userSpaceOnUse">
<stop offset="0.001" stop-color="#FF3067"/>
<stop offset="1" stop-color="#FF009F"/>
</linearGradient>
<linearGradient id="paint4_linear_1_353" x1="110.531" y1="20.0149" x2="135.212" y2="59.5719" gradientUnits="userSpaceOnUse">
<stop offset="0.001" stop-color="#FF3067"/>
<stop offset="1" stop-color="#A5009F"/>
</linearGradient>
<linearGradient id="paint5_linear_1_353" x1="143.733" y1="3.2141" x2="163.06" y2="46.2101" gradientUnits="userSpaceOnUse">
<stop offset="0.001" stop-color="#FF3067"/>
<stop offset="1" stop-color="#A5009F"/>
</linearGradient>
<linearGradient id="paint6_linear_1_353" x1="128.862" y1="10.2457" x2="149.693" y2="52.4515" gradientUnits="userSpaceOnUse">
<stop offset="0.001" stop-color="#FF3067"/>
<stop offset="1" stop-color="#A5009F"/>
</linearGradient>
<linearGradient id="paint7_linear_1_353" x1="180.745" y1="-16.3452" x2="201.623" y2="25.8345" gradientUnits="userSpaceOnUse">
<stop offset="0.001" stop-color="#FF3067"/>
<stop offset="1" stop-color="#A5009F"/>
</linearGradient>
<linearGradient id="paint8_linear_1_353" x1="171.986" y1="-11.6007" x2="190.679" y2="31.6903" gradientUnits="userSpaceOnUse">
<stop offset="0.001" stop-color="#FF3067"/>
<stop offset="1" stop-color="#A5009F"/>
</linearGradient>
<linearGradient id="paint9_linear_1_353" x1="155.68" y1="-2.77329" x2="188.648" y2="15.9858" gradientUnits="userSpaceOnUse">
<stop offset="0.001" stop-color="#FF3067"/>
<stop offset="1" stop-color="#A5009F"/>
</linearGradient>
<linearGradient id="paint10_linear_1_353" x1="120.013" y1="14.7812" x2="152.931" y2="33.2128" gradientUnits="userSpaceOnUse">
<stop offset="0.001" stop-color="#FF3067"/>
<stop offset="1" stop-color="#A5009F"/>
</linearGradient>
<linearGradient id="paint11_linear_1_353" x1="160.748" y1="-5.92237" x2="184.364" y2="-3.28953" gradientUnits="userSpaceOnUse">
<stop offset="0.001" stop-color="#FF3067"/>
<stop offset="1" stop-color="#A5009F"/>
</linearGradient>
<linearGradient id="paint12_linear_1_353" x1="165.401" y1="-7.87538" x2="184.792" y2="34.8082" gradientUnits="userSpaceOnUse">
<stop offset="0.001" stop-color="#FF3067"/>
<stop offset="1" stop-color="#A5009F"/>
</linearGradient>
</defs>
</svg>
