<svg width="60" height="61" viewBox="0 0 60 61" fill="none" xmlns="http://www.w3.org/2000/svg">
<circle cx="30" cy="30.5" r="27.5" fill="white" stroke="black"/>
<mask id="path-2-inside-1_1_441" fill="white">
<path fill-rule="evenodd" clip-rule="evenodd" d="M14.7356 53.2791C15.2327 53.6178 15.2368 53.6138 15.6524 53.177C16.5327 52.2464 17.584 51.7974 18.8717 52.0545C18.9424 52.069 19.0133 52.0829 19.0842 52.0968C19.3941 52.1575 19.7054 52.2184 20.0005 52.328C20.6892 52.5811 21.2964 52.5321 21.8465 52.0137C21.9174 51.9452 22.0015 51.8898 22.0857 51.8345C22.1417 51.7976 22.1978 51.7607 22.25 51.7198C22.8286 51.2831 23.4765 51.0994 24.2019 51.1566L24.2994 51.1641C24.7921 51.2021 25.2814 51.2399 25.7708 51.328C26.4595 51.4505 27.1523 51.4505 27.8206 51.1892C28.0325 51.1076 28.2362 51.0096 28.2566 50.7402C28.281 50.4382 28.0936 50.2872 27.8491 50.181C27.819 50.1684 27.7895 50.1538 27.7602 50.1393C27.714 50.1166 27.6682 50.094 27.6209 50.079C26.325 49.6463 25.0169 49.3076 23.6273 49.5116C23.4847 49.5328 23.3421 49.5555 23.1995 49.5782C22.7104 49.6558 22.2214 49.7335 21.7324 49.7525C18.888 49.8504 16.4186 49.0463 14.703 46.6177C14.1936 45.8953 13.5905 45.3156 12.8203 44.8952C12.3282 44.6258 11.843 44.3427 11.3578 44.0595C11.1961 43.9651 11.0344 43.8707 10.8724 43.7768C10.416 43.5156 9.95959 43.2462 9.56024 42.8952C8.03617 41.5686 7.69386 39.3441 8.75745 37.6788C9.41761 36.642 10.2978 36.3073 11.4674 36.6665C11.7852 36.7645 12.1031 36.8706 12.3965 37.0216C13.6883 37.6747 15.0575 38.1196 16.443 38.5196C16.7744 37.4574 15.747 35.8348 15.192 35.1563C13.9654 34.642 12.7469 34.1032 11.5448 33.5358C10.5953 33.0868 9.62544 33.0379 8.62298 33.2297C7.90577 33.3644 7.33934 33.7236 6.91961 34.3277C6.7225 34.6093 6.65094 34.9294 6.57896 35.2513C6.56017 35.3354 6.54135 35.4196 6.52025 35.5032C6.1861 36.8257 5.42407 37.6584 4.00187 37.7645C3.93402 37.7695 3.86772 37.7839 3.79819 37.7989C3.75497 37.8083 3.7105 37.8179 3.66364 37.8257C3.65231 37.8695 3.6429 37.9004 3.63593 37.9233C3.62538 37.958 3.62044 37.9742 3.62289 37.989C3.63512 38.0706 3.65142 38.1522 3.67587 38.2339C5.62782 44.536 9.31574 49.5606 14.7559 53.2872L14.7356 53.2791ZM41.3212 39.7727C40.4084 40.1849 39.52 40.6339 38.6643 41.1523C39.3652 40.536 40.8224 38.6959 41.0441 36.2665C42.1807 35.7438 43.3729 35.3851 44.5646 35.0265C45.3084 34.8027 46.052 34.579 46.7818 34.3154C47.3034 34.1277 47.8576 34.0624 48.4159 34.0501C49.2472 34.0338 49.8544 34.3603 50.2007 35.144C50.5716 35.9808 50.9424 36.8175 51.2195 37.691C51.2358 37.7441 51.2539 37.7967 51.272 37.8493C51.3083 37.9545 51.3445 38.0597 51.3662 38.1686C51.7411 39.9972 52.8332 40.9523 54.72 41.0054C55.7763 41.0346 55.7061 41.1714 55.4086 41.751C55.3733 41.8198 55.3348 41.8949 55.2946 41.9768C50.9913 50.7035 44.0433 55.924 34.4833 57.6547C34.3488 57.6791 34.2102 57.6914 34.0717 57.6996C34.039 57.7021 34.0063 57.6937 33.9573 57.6812C33.9269 57.6734 33.8903 57.664 33.8435 57.6547C33.9209 57.0097 34.1613 56.4546 34.6707 56.0342C34.9184 55.8303 35.1858 55.6462 35.4519 55.4631C35.5054 55.4263 35.5588 55.3895 35.6121 55.3526C36.6267 54.6464 37.5233 53.8097 38.1304 52.7321C39.1084 50.9892 40.5143 49.8014 42.344 49.0137C45.0499 47.8463 46.5902 45.6422 47.4501 42.8952C47.6375 42.2993 47.6579 41.6911 47.4949 41.087C47.0467 39.4462 45.873 38.6747 44.1737 38.9033C43.1794 39.038 42.234 39.3604 41.3212 39.7727ZM42.0914 28.6337C40.4899 29.6419 38.7947 30.4582 37.0546 31.1889C34.6585 31.1889 34.2551 30.4895 34.3529 30.1399C36.4148 29.5194 38.269 28.4582 40.0498 27.2704C40.4491 27.001 40.7344 26.6214 40.9422 26.1888C41.4842 25.0704 40.8444 23.7193 39.6341 23.4377C39.1125 23.3152 38.5868 23.3438 38.0612 23.4132C38.0082 23.4203 37.9549 23.427 37.9015 23.4337C37.6796 23.4614 37.4556 23.4895 37.2421 23.552C35.7506 23.9765 34.4629 23.454 33.22 22.7071C32.9307 22.5315 32.6862 22.303 32.5069 22.0173C31.9567 21.1397 31.158 20.5601 30.2615 20.0866C29.8703 19.8825 29.4791 19.6662 29.1042 19.4294C29.0802 19.4147 29.0555 19.4002 29.0307 19.3855C28.8279 19.266 28.6094 19.1371 28.5622 18.8172C29.1572 18.6009 29.7317 18.76 30.2697 18.9111C31.7122 19.3192 33.1752 19.6295 34.6422 19.9315C35.2412 20.058 35.8199 20.2417 36.3822 20.4866C37.3928 20.9234 38.4483 21.1193 39.5445 21.0785C41.2071 21.0172 42.8616 21.0376 44.516 21.3315C45.9627 21.5887 47.3237 21.2417 48.5544 20.4172C49.3745 19.8941 51.2447 19.3014 52.1649 21.1152C51.2725 22.0866 51.2806 23.0703 52.1527 24.0622C52.2626 24.188 52.3872 24.3014 52.5118 24.4147C52.6136 24.5073 52.7153 24.5998 52.8088 24.6989C53.2326 25.1479 53.2407 25.4377 52.8821 25.952C52.5765 26.3928 52.169 26.6582 51.6311 26.6663C50.4452 26.6826 49.3328 27.0173 48.2406 27.4255C47.7231 27.6174 47.2056 27.6337 46.6921 27.4704C45.7997 27.1847 44.9398 27.299 44.0882 27.6133C43.3791 27.8704 42.723 28.2337 42.0914 28.6337ZM33.6834 5.35359C34.1239 5.41929 34.5693 5.48572 35.0049 5.58837C36.5795 7.41653 36.0386 8.7311 35.5713 9.15987C34.634 9.466 34.2225 10.1395 34.4833 11.0905C34.5845 11.4609 34.7253 11.8191 34.8662 12.1776C34.9691 12.4393 35.072 12.7011 35.1597 12.9681C35.1796 13.0272 35.2007 13.0862 35.2218 13.1455C35.3485 13.4998 35.4775 13.861 35.3553 14.2702C34.9232 14.278 34.5692 14.0921 34.2258 13.9118L34.1776 13.8865C33.4889 13.5273 32.8043 13.1599 32.1401 12.7599C30.9176 12.0252 29.6013 11.6905 28.1792 11.6905C26.3495 11.6905 24.6013 11.3028 22.9549 10.4946L22.8617 10.4489C22.6436 10.3421 22.4247 10.2349 22.2214 10.1027C22.1824 10.0779 22.14 10.0536 22.0968 10.0288C21.8919 9.91153 21.6681 9.7834 21.6917 9.52722C21.7091 9.33491 21.8886 9.27364 22.0669 9.21275C22.1384 9.18834 22.2097 9.164 22.2703 9.1313C22.3405 9.0942 22.4114 9.05803 22.4823 9.02185C22.7078 8.90677 22.9337 8.79153 23.1383 8.64557C24.043 8.00066 24.1367 7.27004 23.4725 6.36798C23.0568 5.80062 22.4741 5.51082 21.818 5.33122C21.5158 5.24882 21.2081 5.19348 20.8915 5.13655C20.3927 5.04686 19.8718 4.9532 19.3159 4.74346C23.2565 3.06179 27.2338 2.35974 31.3985 2.52301C31.4031 2.55666 31.4077 2.58701 31.412 2.61491C31.4227 2.68514 31.4311 2.73982 31.4311 2.7924C31.3577 4.32304 32.0097 5.10265 33.5338 5.33122L33.6834 5.35359ZM20.2477 25.5927C20.3317 25.6338 20.4159 25.6749 20.4936 25.7275C20.9799 26.9384 21.5841 29.6941 20.1106 31.0297C19.3567 30.2745 18.4805 29.6909 17.5433 29.2011C16.2637 28.5276 14.9312 27.997 13.5293 27.6255C13.3468 27.5772 13.1644 27.5286 12.982 27.48C11.422 27.0641 9.86522 26.649 8.25623 26.4663C7.56347 26.3888 6.87885 26.3602 6.1861 26.4786C5.65634 26.5684 5.63189 26.5439 5.61559 25.9888C5.60744 25.7398 5.62782 25.4908 5.65634 25.2418C5.7949 24.0663 5.54224 23.6132 4.51126 23.1193C4.4102 23.0722 4.29174 23.0448 4.17441 23.0177C3.94637 22.965 3.72261 22.9134 3.63919 22.7193C3.53879 22.4827 3.65024 22.2246 3.75955 21.9715C3.80108 21.8754 3.8423 21.7799 3.87147 21.6866C4.16895 20.7315 4.52755 19.8009 4.94321 18.8907C4.94871 18.8785 4.95409 18.8662 4.95949 18.8539C5.01011 18.7386 5.06196 18.6204 5.22031 18.5356C5.46736 18.6756 5.71694 18.8157 5.96795 18.9566C6.49946 19.255 7.03742 19.557 7.57162 19.8703C8.15436 20.2131 8.62299 20.6866 9.02234 21.2254C9.29944 21.605 9.57247 21.9928 9.82105 22.3928C10.7013 23.805 12.0053 24.5561 13.6068 24.854C14.8456 25.0826 16.0926 25.0908 17.3354 24.9561C18.3094 24.85 19.21 24.9928 20.0535 25.4908C20.1161 25.5284 20.1819 25.5605 20.2477 25.5927Z"/>
</mask>
<path fill-rule="evenodd" clip-rule="evenodd" d="M14.7356 53.2791C15.2327 53.6178 15.2368 53.6138 15.6524 53.177C16.5327 52.2464 17.584 51.7974 18.8717 52.0545C18.9424 52.069 19.0133 52.0829 19.0842 52.0968C19.3941 52.1575 19.7054 52.2184 20.0005 52.328C20.6892 52.5811 21.2964 52.5321 21.8465 52.0137C21.9174 51.9452 22.0015 51.8898 22.0857 51.8345C22.1417 51.7976 22.1978 51.7607 22.25 51.7198C22.8286 51.2831 23.4765 51.0994 24.2019 51.1566L24.2994 51.1641C24.7921 51.2021 25.2814 51.2399 25.7708 51.328C26.4595 51.4505 27.1523 51.4505 27.8206 51.1892C28.0325 51.1076 28.2362 51.0096 28.2566 50.7402C28.281 50.4382 28.0936 50.2872 27.8491 50.181C27.819 50.1684 27.7895 50.1538 27.7602 50.1393C27.714 50.1166 27.6682 50.094 27.6209 50.079C26.325 49.6463 25.0169 49.3076 23.6273 49.5116C23.4847 49.5328 23.3421 49.5555 23.1995 49.5782C22.7104 49.6558 22.2214 49.7335 21.7324 49.7525C18.888 49.8504 16.4186 49.0463 14.703 46.6177C14.1936 45.8953 13.5905 45.3156 12.8203 44.8952C12.3282 44.6258 11.843 44.3427 11.3578 44.0595C11.1961 43.9651 11.0344 43.8707 10.8724 43.7768C10.416 43.5156 9.95959 43.2462 9.56024 42.8952C8.03617 41.5686 7.69386 39.3441 8.75745 37.6788C9.41761 36.642 10.2978 36.3073 11.4674 36.6665C11.7852 36.7645 12.1031 36.8706 12.3965 37.0216C13.6883 37.6747 15.0575 38.1196 16.443 38.5196C16.7744 37.4574 15.747 35.8348 15.192 35.1563C13.9654 34.642 12.7469 34.1032 11.5448 33.5358C10.5953 33.0868 9.62544 33.0379 8.62298 33.2297C7.90577 33.3644 7.33934 33.7236 6.91961 34.3277C6.7225 34.6093 6.65094 34.9294 6.57896 35.2513C6.56017 35.3354 6.54135 35.4196 6.52025 35.5032C6.1861 36.8257 5.42407 37.6584 4.00187 37.7645C3.93402 37.7695 3.86772 37.7839 3.79819 37.7989C3.75497 37.8083 3.7105 37.8179 3.66364 37.8257C3.65231 37.8695 3.6429 37.9004 3.63593 37.9233C3.62538 37.958 3.62044 37.9742 3.62289 37.989C3.63512 38.0706 3.65142 38.1522 3.67587 38.2339C5.62782 44.536 9.31574 49.5606 14.7559 53.2872L14.7356 53.2791ZM41.3212 39.7727C40.4084 40.1849 39.52 40.6339 38.6643 41.1523C39.3652 40.536 40.8224 38.6959 41.0441 36.2665C42.1807 35.7438 43.3729 35.3851 44.5646 35.0265C45.3084 34.8027 46.052 34.579 46.7818 34.3154C47.3034 34.1277 47.8576 34.0624 48.4159 34.0501C49.2472 34.0338 49.8544 34.3603 50.2007 35.144C50.5716 35.9808 50.9424 36.8175 51.2195 37.691C51.2358 37.7441 51.2539 37.7967 51.272 37.8493C51.3083 37.9545 51.3445 38.0597 51.3662 38.1686C51.7411 39.9972 52.8332 40.9523 54.72 41.0054C55.7763 41.0346 55.7061 41.1714 55.4086 41.751C55.3733 41.8198 55.3348 41.8949 55.2946 41.9768C50.9913 50.7035 44.0433 55.924 34.4833 57.6547C34.3488 57.6791 34.2102 57.6914 34.0717 57.6996C34.039 57.7021 34.0063 57.6937 33.9573 57.6812C33.9269 57.6734 33.8903 57.664 33.8435 57.6547C33.9209 57.0097 34.1613 56.4546 34.6707 56.0342C34.9184 55.8303 35.1858 55.6462 35.4519 55.4631C35.5054 55.4263 35.5588 55.3895 35.6121 55.3526C36.6267 54.6464 37.5233 53.8097 38.1304 52.7321C39.1084 50.9892 40.5143 49.8014 42.344 49.0137C45.0499 47.8463 46.5902 45.6422 47.4501 42.8952C47.6375 42.2993 47.6579 41.6911 47.4949 41.087C47.0467 39.4462 45.873 38.6747 44.1737 38.9033C43.1794 39.038 42.234 39.3604 41.3212 39.7727ZM42.0914 28.6337C40.4899 29.6419 38.7947 30.4582 37.0546 31.1889C34.6585 31.1889 34.2551 30.4895 34.3529 30.1399C36.4148 29.5194 38.269 28.4582 40.0498 27.2704C40.4491 27.001 40.7344 26.6214 40.9422 26.1888C41.4842 25.0704 40.8444 23.7193 39.6341 23.4377C39.1125 23.3152 38.5868 23.3438 38.0612 23.4132C38.0082 23.4203 37.9549 23.427 37.9015 23.4337C37.6796 23.4614 37.4556 23.4895 37.2421 23.552C35.7506 23.9765 34.4629 23.454 33.22 22.7071C32.9307 22.5315 32.6862 22.303 32.5069 22.0173C31.9567 21.1397 31.158 20.5601 30.2615 20.0866C29.8703 19.8825 29.4791 19.6662 29.1042 19.4294C29.0802 19.4147 29.0555 19.4002 29.0307 19.3855C28.8279 19.266 28.6094 19.1371 28.5622 18.8172C29.1572 18.6009 29.7317 18.76 30.2697 18.9111C31.7122 19.3192 33.1752 19.6295 34.6422 19.9315C35.2412 20.058 35.8199 20.2417 36.3822 20.4866C37.3928 20.9234 38.4483 21.1193 39.5445 21.0785C41.2071 21.0172 42.8616 21.0376 44.516 21.3315C45.9627 21.5887 47.3237 21.2417 48.5544 20.4172C49.3745 19.8941 51.2447 19.3014 52.1649 21.1152C51.2725 22.0866 51.2806 23.0703 52.1527 24.0622C52.2626 24.188 52.3872 24.3014 52.5118 24.4147C52.6136 24.5073 52.7153 24.5998 52.8088 24.6989C53.2326 25.1479 53.2407 25.4377 52.8821 25.952C52.5765 26.3928 52.169 26.6582 51.6311 26.6663C50.4452 26.6826 49.3328 27.0173 48.2406 27.4255C47.7231 27.6174 47.2056 27.6337 46.6921 27.4704C45.7997 27.1847 44.9398 27.299 44.0882 27.6133C43.3791 27.8704 42.723 28.2337 42.0914 28.6337ZM33.6834 5.35359C34.1239 5.41929 34.5693 5.48572 35.0049 5.58837C36.5795 7.41653 36.0386 8.7311 35.5713 9.15987C34.634 9.466 34.2225 10.1395 34.4833 11.0905C34.5845 11.4609 34.7253 11.8191 34.8662 12.1776C34.9691 12.4393 35.072 12.7011 35.1597 12.9681C35.1796 13.0272 35.2007 13.0862 35.2218 13.1455C35.3485 13.4998 35.4775 13.861 35.3553 14.2702C34.9232 14.278 34.5692 14.0921 34.2258 13.9118L34.1776 13.8865C33.4889 13.5273 32.8043 13.1599 32.1401 12.7599C30.9176 12.0252 29.6013 11.6905 28.1792 11.6905C26.3495 11.6905 24.6013 11.3028 22.9549 10.4946L22.8617 10.4489C22.6436 10.3421 22.4247 10.2349 22.2214 10.1027C22.1824 10.0779 22.14 10.0536 22.0968 10.0288C21.8919 9.91153 21.6681 9.7834 21.6917 9.52722C21.7091 9.33491 21.8886 9.27364 22.0669 9.21275C22.1384 9.18834 22.2097 9.164 22.2703 9.1313C22.3405 9.0942 22.4114 9.05803 22.4823 9.02185C22.7078 8.90677 22.9337 8.79153 23.1383 8.64557C24.043 8.00066 24.1367 7.27004 23.4725 6.36798C23.0568 5.80062 22.4741 5.51082 21.818 5.33122C21.5158 5.24882 21.2081 5.19348 20.8915 5.13655C20.3927 5.04686 19.8718 4.9532 19.3159 4.74346C23.2565 3.06179 27.2338 2.35974 31.3985 2.52301C31.4031 2.55666 31.4077 2.58701 31.412 2.61491C31.4227 2.68514 31.4311 2.73982 31.4311 2.7924C31.3577 4.32304 32.0097 5.10265 33.5338 5.33122L33.6834 5.35359ZM20.2477 25.5927C20.3317 25.6338 20.4159 25.6749 20.4936 25.7275C20.9799 26.9384 21.5841 29.6941 20.1106 31.0297C19.3567 30.2745 18.4805 29.6909 17.5433 29.2011C16.2637 28.5276 14.9312 27.997 13.5293 27.6255C13.3468 27.5772 13.1644 27.5286 12.982 27.48C11.422 27.0641 9.86522 26.649 8.25623 26.4663C7.56347 26.3888 6.87885 26.3602 6.1861 26.4786C5.65634 26.5684 5.63189 26.5439 5.61559 25.9888C5.60744 25.7398 5.62782 25.4908 5.65634 25.2418C5.7949 24.0663 5.54224 23.6132 4.51126 23.1193C4.4102 23.0722 4.29174 23.0448 4.17441 23.0177C3.94637 22.965 3.72261 22.9134 3.63919 22.7193C3.53879 22.4827 3.65024 22.2246 3.75955 21.9715C3.80108 21.8754 3.8423 21.7799 3.87147 21.6866C4.16895 20.7315 4.52755 19.8009 4.94321 18.8907C4.94871 18.8785 4.95409 18.8662 4.95949 18.8539C5.01011 18.7386 5.06196 18.6204 5.22031 18.5356C5.46736 18.6756 5.71694 18.8157 5.96795 18.9566C6.49946 19.255 7.03742 19.557 7.57162 19.8703C8.15436 20.2131 8.62299 20.6866 9.02234 21.2254C9.29944 21.605 9.57247 21.9928 9.82105 22.3928C10.7013 23.805 12.0053 24.5561 13.6068 24.854C14.8456 25.0826 16.0926 25.0908 17.3354 24.9561C18.3094 24.85 19.21 24.9928 20.0535 25.4908C20.1161 25.5284 20.1819 25.5605 20.2477 25.5927Z" fill="url(#paint0_linear_1_441)"/>
<path d="M23.3217 42.0952L23.4877 41.9082L23.4874 41.908L23.3217 42.0952ZM25.3185 42.7156L25.3518 42.9634L25.3528 42.9632L25.3185 42.7156ZM26.541 42.487L26.4731 42.2464L26.4715 42.2469L26.541 42.487ZM30.3267 42.4462L30.3775 42.2014L30.3769 42.2013L30.3267 42.4462ZM38.4972 36.9971L38.4778 36.7479L38.4776 36.7479L38.4972 36.9971ZM34.4262 37.2298L34.4134 36.9801L34.4133 36.9801L34.4262 37.2298ZM33.0366 37.0216L32.9478 37.2553L32.9492 37.2558L33.0366 37.0216ZM32.1809 34.6706L31.9643 34.5456L31.964 34.5462L32.1809 34.6706ZM33.9291 32.9154L34.0656 33.1248L34.0669 33.124L33.9291 32.9154ZM52.3401 20.1397L52.5692 20.0395L52.5689 20.0388L52.3401 20.1397ZM52.0956 19.6131L52.3244 19.5122L52.3233 19.5097L52.0956 19.6131ZM52.5683 16.9478L52.7443 17.1253L52.7453 17.1244L52.5683 16.9478ZM53.1226 16.3314L52.9174 16.1886L52.9168 16.1895L53.1226 16.3314ZM53.1226 14.6579L53.3298 14.5182L53.3297 14.5179L53.1226 14.6579ZM50.8201 11.7028L50.6325 11.868L50.6333 11.8689L50.8201 11.7028ZM50.1274 11.4456L50.1618 11.6932L50.162 11.6932L50.1274 11.4456ZM44.7157 10.115L44.56 10.3106L44.5602 10.3107L44.7157 10.115ZM42.1036 8.89864L42.0591 9.14465L42.0593 9.14468L42.1036 8.89864ZM42.0892 6.51585L42.2404 6.31673L42.24 6.31646L42.0892 6.51585ZM36.969 9.08231L37.0106 8.83578L37.0095 8.83561L36.969 9.08231ZM39.5893 10.1027L39.4577 10.3153L39.4581 10.3156L39.5893 10.1027ZM42.6945 12.4701L42.8694 12.2915L42.8691 12.2912L42.6945 12.4701ZM45.8119 14.3151L45.7397 14.5544L45.7404 14.5546L45.8119 14.3151ZM47.0589 14.7763L47.1517 14.5442L47.1511 14.5439L47.0589 14.7763ZM49.5487 17.409L49.3131 17.4925L49.3132 17.4929L49.5487 17.409ZM28.5948 29.2949L28.4396 29.4909L28.4397 29.491L28.5948 29.2949ZM26.7896 28.4704L26.7289 28.713L26.7299 28.7132L26.7896 28.4704ZM21.1701 32.6991L21.4096 32.6274L21.4093 32.6264L21.1701 32.6991ZM20.5547 34.8787L20.7176 35.0684L20.5547 34.8787ZM18.2686 35.7563L18.2847 36.0058L18.2853 36.0057L18.2686 35.7563ZM52.2179 19.8764L52.4436 19.7689V19.7689L52.2179 19.8764ZM52.6244 16.8918L52.4478 16.7148L52.4478 16.7148L52.6244 16.8918ZM41.9712 7.96736L42.1761 8.11052L42.1761 8.11052L41.9712 7.96736ZM37.3627 5.80073L37.3482 6.05031L37.3627 5.80073ZM46.8849 14.707L46.9776 14.4748L46.9776 14.4748L46.8849 14.707ZM16.374 38.7599C18.8811 39.4797 21.1953 40.5469 23.156 42.2824L23.4874 41.908C21.4545 40.1087 19.0661 39.0126 16.512 38.2793L16.374 38.7599ZM23.1557 42.2821C23.7827 42.8389 24.5192 43.0755 25.3518 42.9634L25.2851 42.4678C24.6019 42.5598 24.0098 42.3719 23.4877 41.9082L23.1557 42.2821ZM25.3528 42.9632C25.7609 42.9066 26.1948 42.8474 26.6104 42.7272L26.4715 42.2469C26.0966 42.3553 25.6992 42.4103 25.2841 42.468L25.3528 42.9632ZM26.6088 42.7276C27.8178 42.3867 29.0261 42.435 30.2766 42.6911L30.3769 42.2013C29.0764 41.9349 27.7826 41.8771 26.4731 42.2464L26.6088 42.7276ZM30.276 42.691C33.2624 43.31 36.1281 42.9832 38.7939 41.3661L38.5346 40.9386C35.9925 42.4807 33.2591 42.7987 30.3775 42.2014L30.276 42.691ZM40.9396 36.0394C40.1468 36.4043 39.3294 36.6817 38.4778 36.7479L38.5166 37.2464C39.4498 37.1738 40.3277 36.8715 41.1486 36.4936L40.9396 36.0394ZM38.4776 36.7479C37.1292 36.8537 35.7736 36.9106 34.4134 36.9801L34.439 37.4795C35.7929 37.4102 37.1594 37.3528 38.5167 37.2464L38.4776 36.7479ZM34.4133 36.9801C33.9724 37.003 33.5382 36.942 33.1241 36.7874L32.9492 37.2558C33.4316 37.4359 33.9346 37.5056 34.4391 37.4794L34.4133 36.9801ZM33.1254 36.7879C32.6464 36.6059 32.354 36.3109 32.2322 35.9789C32.1107 35.6476 32.1436 35.238 32.3977 34.7949L31.964 34.5462C31.6516 35.0909 31.5807 35.6547 31.7628 36.1511C31.9446 36.6466 32.3633 37.0332 32.9478 37.2553L33.1254 36.7879ZM32.3974 34.7955C32.7955 34.1054 33.3856 33.5683 34.0656 33.1248L33.7925 32.706C33.0707 33.1768 32.4138 33.7663 31.9643 34.5456L32.3974 34.7955ZM34.0669 33.124C35.0545 32.4712 36.0671 31.8762 37.1517 31.4192L36.9575 30.9585C35.8335 31.4321 34.7922 32.0453 33.7912 32.7069L34.0669 33.124ZM52.3488 21.2846C52.5173 21.1018 52.6312 20.9063 52.6686 20.6862C52.7061 20.4657 52.6617 20.251 52.5692 20.0395L52.1111 20.2399C52.1775 20.3916 52.1922 20.5055 52.1757 20.6023C52.1591 20.6996 52.106 20.8103 51.9811 20.9458L52.3488 21.2846ZM52.3233 19.5097C52.113 19.0467 52.0487 18.6254 52.1153 18.2404C52.1817 17.8561 52.3826 17.4839 52.7443 17.1253L52.3923 16.7702C51.9717 17.1872 51.71 17.6497 51.6226 18.1552C51.5353 18.66 51.626 19.1836 51.868 19.7165L52.3233 19.5097ZM53.3277 16.4743C53.5577 16.144 53.6948 15.8321 53.6935 15.4968C53.6922 15.1629 53.5537 14.8501 53.3298 14.5182L52.9153 14.7977C53.1153 15.0943 53.1927 15.3081 53.1935 15.4987C53.1942 15.6879 53.1194 15.8984 52.9174 16.1886L53.3277 16.4743ZM53.3297 14.5179C52.6222 13.4715 51.8452 12.4791 51.0069 11.5366L50.6333 11.8689C51.4577 12.7958 52.221 13.7708 52.9154 14.7979L53.3297 14.5179ZM51.0077 11.5375C50.9071 11.4233 50.7913 11.3132 50.6326 11.247C50.4716 11.1799 50.2955 11.1697 50.0928 11.198L50.162 11.6932C50.3098 11.6726 50.3884 11.6869 50.4402 11.7085C50.4945 11.7311 50.5498 11.7741 50.6325 11.868L51.0077 11.5375ZM50.093 11.198C48.177 11.4642 46.404 11.1373 44.8713 9.91926L44.5602 10.3107C46.2223 11.6315 48.1413 11.974 50.1618 11.6932L50.093 11.198ZM44.8714 9.91939C44.0691 9.28076 43.1678 8.83638 42.1479 8.6526L42.0593 9.14468C42.9873 9.31192 43.8138 9.71654 44.56 10.3106L44.8714 9.91939ZM35.6492 9.39742C36.0614 9.26223 36.4834 9.25599 36.9286 9.32902L37.0095 8.83561C36.5092 8.75354 36.0022 8.75546 35.4934 8.92232L35.6492 9.39742ZM36.9275 9.32885C37.8357 9.48176 38.6694 9.82724 39.4577 10.3153L39.7209 9.89018C38.8874 9.37414 37.9932 9.00124 37.0106 8.83579L36.9275 9.32885ZM39.4581 10.3156C40.5602 10.9949 41.5996 11.7513 42.5199 12.6491L42.8691 12.2912C41.9149 11.3604 40.8434 10.5821 39.7205 9.88992L39.4581 10.3156ZM42.5196 12.6488C43.4408 13.5504 44.511 14.1835 45.7397 14.5544L45.8842 14.0757C44.733 13.7282 43.7331 13.1369 42.8694 12.2915L42.5196 12.6488ZM46.966 15.0084C48.13 15.474 48.8914 16.303 49.3131 17.4925L49.7844 17.3255C49.3176 16.0088 48.4572 15.0664 47.1517 14.5442L46.966 15.0084ZM49.3132 17.4929C49.5418 18.1346 49.5766 18.6257 49.442 19.0375C49.3075 19.4489 48.9892 19.8263 48.4156 20.2093L48.6932 20.6251C49.3177 20.2082 49.7349 19.7508 49.9173 19.1928C50.0995 18.6352 50.0325 18.0222 49.7842 17.3251L49.3132 17.4929ZM34.2809 29.9004C32.294 30.4975 30.4307 30.4286 28.7499 29.0989L28.4397 29.491C30.2879 30.9532 32.3367 31.0067 34.4248 30.3793L34.2809 29.9004ZM28.75 29.099C28.1864 28.6526 27.5173 28.3918 26.8492 28.2277L26.7299 28.7132C27.3576 28.8674 27.9519 29.1046 28.4396 29.4909L28.75 29.099ZM26.8502 28.2279C24.6214 27.6708 22.5417 26.7959 20.6325 25.5197L20.3547 25.9354C22.3168 27.247 24.4507 28.1435 26.7289 28.713L26.8502 28.2279ZM19.9336 31.2063C20.3919 31.6653 20.7468 32.1659 20.9309 32.7718L21.4093 32.6264C21.194 31.918 20.7828 31.3492 20.2875 30.853L19.9336 31.2063ZM20.9306 32.7708C21.0484 33.1643 21.0598 33.5135 20.9744 33.8235C20.8892 34.1326 20.7026 34.4223 20.3919 34.689L20.7176 35.0684C21.0915 34.7474 21.3409 34.3758 21.4564 33.9563C21.5717 33.5378 21.5484 33.0911 21.4096 32.6274L20.9306 32.7708ZM20.3919 34.689C19.7851 35.2099 19.066 35.4525 18.252 35.5068L18.2853 36.0057C19.1828 35.9458 20.0122 35.674 20.7176 35.0684L20.3919 34.689ZM18.2526 35.5068C17.2236 35.5729 16.2447 35.3287 15.2891 34.9259L15.0949 35.3866C16.0953 35.8083 17.1539 36.0784 18.2847 36.0058L18.2526 35.5068ZM24.3186 50.9149C24.2861 50.9123 24.2537 50.9098 24.2213 50.9073L24.1825 51.4058C24.2151 51.4084 24.2477 51.4109 24.2801 51.4134L24.3186 50.9149ZM52.5689 20.0388C52.5285 19.9472 52.4851 19.8561 52.4436 19.7689L51.9922 19.9838C52.0342 20.0722 52.0744 20.1567 52.1114 20.2406L52.5689 20.0388ZM52.4436 19.7689C52.4016 19.6806 52.3614 19.5961 52.3244 19.5122L51.8669 19.714C51.9073 19.8056 51.9507 19.8967 51.9922 19.9838L52.4436 19.7689ZM52.7453 17.1244C52.7637 17.106 52.7822 17.0875 52.801 17.0688L52.4478 16.7148C52.4291 16.7334 52.4102 16.7523 52.3914 16.7711L52.7453 17.1244ZM52.801 17.0688C52.9758 16.8943 53.173 16.6986 53.3283 16.4734L52.9168 16.1895C52.7919 16.3705 52.6288 16.5342 52.4478 16.7148L52.801 17.0688ZM42.1481 8.65263C41.99 8.62404 41.9274 8.58794 41.9083 8.57168C41.9063 8.57 41.9094 8.58121 41.91 8.57478C41.9125 8.54866 41.9292 8.49595 41.9809 8.40578C42.0306 8.31915 42.0974 8.22331 42.1761 8.11052L41.7662 7.8242C41.6909 7.93202 41.6102 8.04719 41.5473 8.1569C41.4863 8.26307 41.4251 8.39204 41.4123 8.52787C41.3976 8.6834 41.4482 8.83684 41.5844 8.95262C41.7034 9.05382 41.8697 9.1104 42.0591 9.14465L42.1481 8.65263ZM42.1761 8.11052C42.3296 7.89081 42.5373 7.59923 42.6131 7.29583C42.6531 7.1361 42.6603 6.96096 42.5995 6.78396C42.5386 6.60676 42.4174 6.4511 42.2404 6.31673L41.938 6.71496C42.0538 6.80282 42.1045 6.88203 42.1267 6.94655C42.1489 7.01127 42.1505 7.08471 42.1281 7.1746C42.0791 7.37048 41.9351 7.58242 41.7662 7.8242L42.1761 8.11052ZM42.24 6.31646C42.0395 6.16479 41.7385 6.05757 41.4039 5.97498C41.0614 5.89047 40.6523 5.82459 40.2116 5.77118C39.3304 5.66435 38.2983 5.60458 37.3771 5.55115L37.3482 6.05031C38.2733 6.10397 39.2888 6.16297 40.1514 6.26754C40.5827 6.31982 40.9696 6.38279 41.2841 6.46041C41.6063 6.53994 41.8232 6.62812 41.9384 6.71523L42.24 6.31646ZM37.3771 5.55115C36.3372 5.49083 35.4656 5.43922 35.0617 5.34492L34.948 5.83182C35.4057 5.93868 36.3368 5.99165 37.3482 6.05031L37.3771 5.55115ZM33.7203 5.10633C33.6703 5.09888 33.6206 5.09146 33.5709 5.084L33.4966 5.57845C33.5466 5.58595 33.5966 5.59341 33.6465 5.60086L33.7203 5.10633ZM22.7518 10.6734C22.783 10.6886 22.8138 10.7037 22.8445 10.7189L23.0654 10.2703C23.0341 10.2549 23.0027 10.2395 22.9716 10.2243L22.7518 10.6734ZM34.0617 14.108C34.0776 14.1163 34.0935 14.1247 34.1096 14.1331L34.342 13.6904C34.326 13.682 34.3098 13.6735 34.2936 13.665L34.0617 14.108ZM45.7404 14.5546C46.0919 14.6596 46.4365 14.7971 46.7921 14.9391L46.9776 14.4748C46.6256 14.3342 46.2601 14.188 45.8834 14.0755L45.7404 14.5546ZM46.7921 14.9391C46.8501 14.9623 46.9084 14.9855 46.9667 15.0087L47.1511 14.5439C47.0934 14.521 47.0357 14.498 46.9776 14.4748L46.7921 14.9391ZM14.7356 53.2791L14.9216 52.8149L14.454 53.6922L14.7356 53.2791ZM15.6524 53.177L16.0146 53.5217L16.0157 53.5206L15.6524 53.177ZM18.8717 52.0545L18.972 51.5647L18.9696 51.5642L18.8717 52.0545ZM20.0005 52.328L19.8265 52.7967L19.8281 52.7973L20.0005 52.328ZM21.8465 52.0137L22.1895 52.3777L22.1941 52.3732L21.8465 52.0137ZM22.25 51.7198L21.9487 51.3207L21.9418 51.3261L22.25 51.7198ZM24.2019 51.1566L24.1626 51.655L24.1633 51.6551L24.2019 51.1566ZM25.7708 51.328L25.6822 51.8201L25.6833 51.8203L25.7708 51.328ZM27.8206 51.1892L27.6408 50.7226L27.6385 50.7235L27.8206 51.1892ZM28.2566 50.7402L27.7582 50.6999L27.758 50.7025L28.2566 50.7402ZM27.8491 50.181L28.0482 49.7224L28.0434 49.7203L27.8491 50.181ZM27.6209 50.079L27.4625 50.5533L27.4701 50.5557L27.6209 50.079ZM23.6273 49.5116L23.5547 49.017L23.5538 49.0171L23.6273 49.5116ZM21.7324 49.7525L21.7496 50.2522L21.7518 50.2521L21.7324 49.7525ZM14.703 46.6177L14.2943 46.9058L14.2946 46.9062L14.703 46.6177ZM12.8203 44.8952L12.5802 45.3338L12.5807 45.3341L12.8203 44.8952ZM10.8724 43.7768L11.1231 43.3442L11.1208 43.3429L10.8724 43.7768ZM9.56024 42.8952L9.89034 42.5196L9.88851 42.518L9.56024 42.8952ZM8.75745 37.6788L9.17884 37.9479L9.17921 37.9473L8.75745 37.6788ZM11.4674 36.6665L11.6146 36.1887L11.6142 36.1885L11.4674 36.6665ZM12.3965 37.0216L12.1676 37.4662L12.1709 37.4678L12.3965 37.0216ZM16.443 38.5196L16.3043 39L16.7746 39.1357L16.9203 38.6685L16.443 38.5196ZM38.6643 41.1523L38.3341 40.7768L38.9233 41.58L38.6643 41.1523ZM44.1737 38.9033L44.1071 38.4077L44.1066 38.4078L44.1737 38.9033ZM47.4949 41.087L47.9776 40.9567L47.9772 40.9552L47.4949 41.087ZM47.4501 42.8952L46.9731 42.7452L46.9729 42.7458L47.4501 42.8952ZM42.344 49.0137L42.5418 49.4729L42.5421 49.4728L42.344 49.0137ZM38.1304 52.7321L38.566 52.9776L38.5665 52.9768L38.1304 52.7321ZM35.6121 55.3526L35.897 55.7634L35.8977 55.763L35.6121 55.3526ZM34.6707 56.0342L34.3529 55.6482L34.3524 55.6486L34.6707 56.0342ZM33.8435 57.6547L33.3471 57.5951L33.2919 58.0541L33.7453 58.1449L33.8435 57.6547ZM34.0717 57.6996L34.0423 57.2003L34.0333 57.201L34.0717 57.6996ZM34.4833 57.6547L34.3942 57.1626L34.3937 57.1627L34.4833 57.6547ZM55.2946 41.9768L55.743 42.1979L55.7433 42.1973L55.2946 41.9768ZM54.72 41.0054L54.7059 41.5052L54.7062 41.5052L54.72 41.0054ZM51.3662 38.1686L50.8759 38.2665L50.8764 38.269L51.3662 38.1686ZM51.2195 37.691L51.6975 37.5442L51.6961 37.5398L51.2195 37.691ZM50.2007 35.144L49.7434 35.3462L49.7436 35.3466L50.2007 35.144ZM48.4159 34.0501L48.406 33.5502L48.4049 33.5502L48.4159 34.0501ZM46.7818 34.3154L46.6124 33.845L46.612 33.8452L46.7818 34.3154ZM41.0441 36.2665L40.8352 35.8122L40.5724 35.9331L40.5462 36.2211L41.0441 36.2665ZM37.0546 31.1889V31.6889H37.1553L37.2482 31.6499L37.0546 31.1889ZM42.0914 28.6337L42.3578 29.0568L42.3589 29.0561L42.0914 28.6337ZM44.0882 27.6133L44.2586 28.0833L44.2613 28.0824L44.0882 27.6133ZM46.6921 27.4704L46.5397 27.9466L46.5406 27.9469L46.6921 27.4704ZM48.2406 27.4255L48.4144 27.8943L48.4157 27.8939L48.2406 27.4255ZM51.6311 26.6663L51.638 27.1663L51.6387 27.1663L51.6311 26.6663ZM52.8821 25.952L52.472 25.666L52.4712 25.6671L52.8821 25.952ZM52.8088 24.6989L52.445 25.042L52.4452 25.0421L52.8088 24.6989ZM52.1527 24.0622L52.5292 23.7332L52.5282 23.732L52.1527 24.0622ZM52.1649 21.1152L52.5331 21.4535L52.7677 21.1981L52.6108 20.889L52.1649 21.1152ZM35.0049 5.58837L35.3837 5.26207L35.2777 5.13897L35.1196 5.10171L35.0049 5.58837ZM33.5338 5.33122L33.4596 5.82569L33.4598 5.82573L33.5338 5.33122ZM31.4311 2.7924L31.9305 2.81634L31.9311 2.80438V2.7924H31.4311ZM31.3985 2.52301L31.8938 2.4548L31.8366 2.0398L31.418 2.02339L31.3985 2.52301ZM19.3159 4.74346L19.1197 4.28358L17.9752 4.772L19.1394 5.21127L19.3159 4.74346ZM21.818 5.33122L21.95 4.84897L21.9495 4.84884L21.818 5.33122ZM23.4725 6.36798L23.0691 6.66347L23.0699 6.66445L23.4725 6.36798ZM23.1383 8.64557L22.8481 8.23843L22.848 8.23851L23.1383 8.64557ZM22.2703 9.1313L22.0366 8.68924L22.033 8.69122L22.2703 9.1313ZM21.6917 9.52722L22.1896 9.573L22.1896 9.57242L21.6917 9.52722ZM22.2214 10.1027L22.494 9.68354L22.4902 9.68111L22.2214 10.1027ZM22.9549 10.4946L23.1753 10.0458L23.1752 10.0457L22.9549 10.4946ZM32.1401 12.7599L32.398 12.3316L32.3977 12.3314L32.1401 12.7599ZM34.1776 13.8865L34.4099 13.4437L34.4089 13.4432L34.1776 13.8865ZM35.3553 14.2702L35.3643 14.7701L35.7298 14.7635L35.8344 14.4133L35.3553 14.2702ZM35.1597 12.9681L34.6847 13.1241L34.6858 13.1274L35.1597 12.9681ZM34.4833 11.0905L34.9656 10.9586L34.9655 10.9583L34.4833 11.0905ZM35.5713 9.15987L35.7265 9.63516L35.8295 9.60152L35.9094 9.52827L35.5713 9.15987ZM48.5544 20.4172L48.2855 19.9956L48.2761 20.0018L48.5544 20.4172ZM44.516 21.3315L44.6035 20.8392L44.6035 20.8392L44.516 21.3315ZM39.5445 21.0785L39.5261 20.5788L39.5259 20.5788L39.5445 21.0785ZM36.3822 20.4866L36.1826 20.945L36.1839 20.9456L36.3822 20.4866ZM34.6422 19.9315L34.7455 19.4423L34.743 19.4418L34.6422 19.9315ZM30.2697 18.9111L30.4058 18.43L30.4048 18.4297L30.2697 18.9111ZM28.5622 18.8172L28.3913 18.3473L28.008 18.4867L28.0676 18.8901L28.5622 18.8172ZM29.1042 19.4294L29.3712 19.0066L29.3652 19.003L29.1042 19.4294ZM30.2615 20.0866L30.495 19.6445L30.4928 19.6433L30.2615 20.0866ZM32.5069 22.0173L32.0832 22.2828L32.0834 22.283L32.5069 22.0173ZM33.22 22.7071L32.9607 23.1346L32.9624 23.1356L33.22 22.7071ZM37.2421 23.552L37.379 24.0329L37.3826 24.0318L37.2421 23.552ZM38.0612 23.4132L37.9957 22.9175L37.9945 22.9177L38.0612 23.4132ZM39.6341 23.4377L39.5199 23.9245L39.5208 23.9247L39.6341 23.4377ZM40.9422 26.1888L40.4923 25.9707L40.4915 25.9723L40.9422 26.1888ZM40.0498 27.2704L40.3272 27.6864L40.3294 27.6849L40.0498 27.2704ZM34.3529 30.1399L34.2088 29.6611L33.9454 29.7403L33.8713 30.0052L34.3529 30.1399ZM20.4936 25.7275L20.9576 25.5412L20.9006 25.3993L20.7741 25.3136L20.4936 25.7275ZM20.0535 25.4908L20.3111 25.0622L20.3077 25.0602L20.0535 25.4908ZM17.3354 24.9561L17.3893 25.4532L17.3896 25.4531L17.3354 24.9561ZM13.6068 24.854L13.5153 25.3456L13.5161 25.3457L13.6068 24.854ZM9.82105 22.3928L9.39637 22.6567L9.39672 22.6572L9.82105 22.3928ZM9.02234 21.2254L9.4262 20.9306L9.42403 20.9277L9.02234 21.2254ZM7.57162 19.8703L7.82518 19.4393L7.82456 19.439L7.57162 19.8703ZM5.22031 18.5356L5.46695 18.1006L5.22716 17.9646L4.98419 18.0948L5.22031 18.5356ZM4.94321 18.8907L5.39804 19.0984L5.39902 19.0962L4.94321 18.8907ZM3.87147 21.6866L4.34868 21.8359L4.34885 21.8353L3.87147 21.6866ZM3.63919 22.7193L3.17891 22.9146L3.17984 22.9168L3.63919 22.7193ZM4.51126 23.1193L4.72728 22.6684L4.72264 22.6662L4.51126 23.1193ZM5.65634 25.2418L5.15978 25.1833L5.15959 25.1849L5.65634 25.2418ZM5.61559 25.9888L6.11538 25.9741L6.11532 25.9724L5.61559 25.9888ZM6.1861 26.4786L6.26966 26.9715L6.27031 26.9714L6.1861 26.4786ZM8.25623 26.4663L8.31265 25.9695L8.31186 25.9694L8.25623 26.4663ZM13.5293 27.6255L13.6574 27.1422L13.6572 27.1421L13.5293 27.6255ZM17.5433 29.2011L17.3104 29.6435L17.3117 29.6442L17.5433 29.2011ZM20.1106 31.0297L19.7567 31.3829L20.0933 31.7201L20.4463 31.4001L20.1106 31.0297ZM15.192 35.1563L15.579 34.8397L15.5001 34.7433L15.3853 34.6952L15.192 35.1563ZM11.5448 33.5358L11.3311 33.9878L11.3314 33.988L11.5448 33.5358ZM8.62298 33.2297L8.71527 33.7211L8.71696 33.7208L8.62298 33.2297ZM6.91961 34.3277L7.32923 34.6144L7.33023 34.613L6.91961 34.3277ZM6.52025 35.5032L7.00502 35.6257L7.00508 35.6255L6.52025 35.5032ZM4.00187 37.7645L4.03887 38.2631L4.03908 38.2631L4.00187 37.7645ZM3.66364 37.8257L3.58132 37.3325L3.26098 37.386L3.1796 37.7004L3.66364 37.8257ZM3.62289 37.989L4.11744 37.9149L4.11611 37.9069L3.62289 37.989ZM3.67587 38.2339L3.19687 38.3773L3.19825 38.3818L3.67587 38.2339ZM14.7559 53.2872L14.5699 53.7513L15.0385 52.8747L14.7559 53.2872ZM3.63593 37.9233L4.11427 38.0689L4.11427 38.0689L3.63593 37.9233ZM3.79819 37.7989L3.90392 38.2876L3.90394 38.2876L3.79819 37.7989ZM6.57896 35.2513L6.09101 35.1422H6.09101L6.57896 35.2513ZM11.3578 44.0595L11.6098 43.6276L11.6098 43.6276L11.3578 44.0595ZM23.1995 49.5782L23.121 49.0843L23.1995 49.5782ZM27.7602 50.1393L27.9814 49.6909L27.9814 49.6909L27.7602 50.1393ZM24.2994 51.1641L24.2608 51.6626L24.2609 51.6626L24.2994 51.1641ZM22.0857 51.8345L21.8108 51.4168L21.8108 51.4168L22.0857 51.8345ZM19.0842 52.0968L18.9881 52.5875L19.0842 52.0968ZM35.4519 55.4631L35.1684 55.0512L35.1684 55.0512L35.4519 55.4631ZM33.9573 57.6812L34.0812 57.1968L34.0812 57.1968L33.9573 57.6812ZM55.4086 41.751L55.8535 41.9793V41.9793L55.4086 41.751ZM51.272 37.8493L51.7448 37.6865L51.7448 37.6865L51.272 37.8493ZM44.5646 35.0265L44.7087 35.5053L44.5646 35.0265ZM52.5118 24.4147L52.1753 24.7845L52.1753 24.7845L52.5118 24.4147ZM33.6834 5.35359L33.6095 5.8481L33.6096 5.84812L33.6834 5.35359ZM31.412 2.61491L30.9177 2.69035L30.9177 2.69036L31.412 2.61491ZM20.8915 5.13655L20.803 5.62866L20.8915 5.13655ZM22.4823 9.02185L22.255 8.57648L22.255 8.57648L22.4823 9.02185ZM22.0669 9.21275L22.2285 9.68593L22.2285 9.68593L22.0669 9.21275ZM22.0968 10.0288L21.8483 10.4628L21.8483 10.4628L22.0968 10.0288ZM22.8617 10.4489L23.0819 9.99996L23.0816 9.99978L22.8617 10.4489ZM34.2258 13.9118L34.4583 13.4691L34.4581 13.469L34.2258 13.9118ZM35.2218 13.1455L35.6927 12.9772L35.6927 12.9772L35.2218 13.1455ZM34.8662 12.1776L35.3316 11.9947V11.9947L34.8662 12.1776ZM29.0307 19.3855L29.2846 18.9548L29.0307 19.3855ZM37.9015 23.4337L37.9636 23.9298H37.9636L37.9015 23.4337ZM20.2477 25.5927L20.4671 25.1434L20.4671 25.1434L20.2477 25.5927ZM5.96795 18.9566L6.21269 18.5206H6.21269L5.96795 18.9566ZM4.95949 18.8539L4.50163 18.653L4.50163 18.653L4.95949 18.8539ZM3.75955 21.9715L3.30053 21.7733L3.30053 21.7733L3.75955 21.9715ZM4.17441 23.0177L4.28694 22.5305H4.28694L4.17441 23.0177ZM12.982 27.48L12.8532 27.9631L12.982 27.48ZM14.454 53.6922C14.5696 53.771 14.6896 53.8532 14.7972 53.9099C14.9075 53.968 15.0762 54.0393 15.2818 54.0156C15.4859 53.9921 15.6338 53.8854 15.7272 53.8061C15.819 53.7282 15.9185 53.6227 16.0146 53.5217L15.2903 52.8323C15.2373 52.888 15.1955 52.9318 15.1589 52.9688C15.1221 53.006 15.0975 53.029 15.0803 53.0436C15.0405 53.0773 15.0783 53.0324 15.1673 53.0221C15.2578 53.0117 15.3063 53.0478 15.2631 53.025C15.2441 53.015 15.2159 52.9984 15.1727 52.9704C15.1298 52.9425 15.0801 52.9088 15.0171 52.8659L14.454 53.6922ZM16.0157 53.5206C16.8019 52.6893 17.6868 52.3278 18.7738 52.5449L18.9696 51.5642C17.4813 51.267 16.2634 51.8034 15.2892 52.8334L16.0157 53.5206ZM19.8281 52.7973C20.2249 52.9432 20.6357 53.0159 21.0487 52.9548C21.4685 52.8926 21.8493 52.6981 22.1894 52.3776L21.5036 51.6498C21.2936 51.8477 21.0958 51.9369 20.9022 51.9656C20.702 51.9952 20.4648 51.966 20.173 51.8587L19.8281 52.7973ZM22.5512 52.1189C23.0299 51.7576 23.5561 51.6072 24.1626 51.655L24.2412 50.6581C23.397 50.5916 22.6273 50.8086 21.9487 51.3208L22.5512 52.1189ZM25.6833 51.8203C26.4272 51.9526 27.2204 51.9607 28.0026 51.6549L27.6385 50.7235C27.0841 50.9403 26.4917 50.9483 25.8583 50.8357L25.6833 51.8203ZM28.0003 51.6558C28.1064 51.6149 28.2837 51.5448 28.4353 51.4152C28.6096 51.2662 28.7343 51.054 28.7552 50.7779L27.758 50.7025C27.7576 50.7078 27.7578 50.6976 27.7666 50.6809C27.7751 50.6646 27.7844 50.656 27.7855 50.6551C27.7855 50.6551 27.7831 50.6571 27.7771 50.6609C27.7711 50.6648 27.7622 50.6699 27.7497 50.6763C27.7232 50.6897 27.6893 50.704 27.6408 50.7227L28.0003 51.6558ZM28.7549 50.7806C28.7772 50.5055 28.7 50.2607 28.537 50.0661C28.3893 49.8898 28.1981 49.7875 28.0481 49.7224L27.65 50.6397C27.6939 50.6588 27.7244 50.6752 27.7453 50.6889C27.7658 50.7024 27.7715 50.7095 27.7704 50.7083C27.768 50.7054 27.7629 50.6976 27.7598 50.6876C27.7569 50.6782 27.7598 50.6799 27.7582 50.6999L28.7549 50.7806ZM27.7792 49.6047C26.4706 49.1678 25.0674 48.7948 23.5547 49.017L23.7 50.0063C24.9665 49.8203 26.1794 50.1249 27.4625 50.5533L27.7792 49.6047ZM21.7152 49.2528C18.9849 49.3468 16.7021 48.581 15.1113 46.3292L14.2946 46.9062C16.1351 49.5116 18.7912 50.3541 21.7496 50.2522L21.7152 49.2528ZM15.1116 46.3296C14.5659 45.5556 13.9081 44.9194 13.0598 44.4564L12.5807 45.3341C13.2729 45.7119 13.8213 46.2349 14.2943 46.9058L15.1116 46.3296ZM11.1208 43.3429C10.6628 43.0807 10.2473 42.8334 9.89034 42.5196L9.23014 43.2707C9.67188 43.659 10.1692 43.9505 10.624 44.2108L11.1208 43.3429ZM9.88851 42.518C8.54487 41.3485 8.25309 39.3974 9.17884 37.9479L8.33606 37.4096C7.13463 39.2908 7.52747 41.7887 9.23197 43.2723L9.88851 42.518ZM9.17921 37.9473C9.46862 37.4928 9.77663 37.2375 10.097 37.1173C10.4164 36.9975 10.8115 36.9881 11.3206 37.1445L11.6142 36.1885C10.9537 35.9857 10.3239 35.9641 9.74576 36.181C9.16863 36.3976 8.70645 36.828 8.3357 37.4102L9.17921 37.9473ZM11.3201 37.1443C11.6348 37.2413 11.9163 37.3368 12.1677 37.4662L12.6253 36.5771C12.2898 36.4044 11.9357 36.2876 11.6146 36.1887L11.3201 37.1443ZM12.1709 37.4678C13.5056 38.1426 14.9113 38.5978 16.3043 39L16.5817 38.0392C15.2037 37.6414 13.8709 37.2068 12.6221 36.5754L12.1709 37.4678ZM38.9233 41.58C39.7575 41.0746 40.6271 40.6348 41.527 40.2284L41.1154 39.317C40.1896 39.7351 39.2825 40.1932 38.4052 40.7246L38.9233 41.58ZM41.527 40.2284C42.4122 39.8286 43.3095 39.5249 44.2409 39.3988L44.1066 38.4078C43.0493 38.551 42.0559 38.8923 41.1154 39.317L41.527 40.2284ZM44.2404 39.3988C45.0012 39.2965 45.5907 39.4239 46.0288 39.7119C46.4663 39.9996 46.8126 40.4868 47.0126 41.2188L47.9772 40.9552C47.7289 40.0463 47.2643 39.3274 46.5781 38.8763C45.8925 38.4255 45.0456 38.2815 44.1071 38.4077L44.2404 39.3988ZM47.0122 41.2173C47.1492 41.725 47.1333 42.2359 46.9731 42.7452L47.927 43.0452C48.1418 42.3626 48.1666 41.6571 47.9776 40.9567L47.0122 41.2173ZM46.9729 42.7458C46.1427 45.3982 44.6806 47.4611 42.146 48.5546L42.5421 49.4728C45.4191 48.2316 47.0378 45.8862 47.9272 43.0446L46.9729 42.7458ZM42.1463 48.5544C40.2259 49.3813 38.7313 50.6396 37.6944 52.4874L38.5665 52.9768C39.4856 51.3388 40.8028 50.2216 42.5418 49.4729L42.1463 48.5544ZM37.6948 52.4867C37.1372 53.4763 36.3046 54.2615 35.3265 54.9422L35.8977 55.763C36.9489 55.0314 37.9093 54.1431 38.566 52.9776L37.6948 52.4867ZM34.3524 55.6486C33.721 56.1697 33.4358 56.8556 33.3471 57.5951L34.3399 57.7143C34.406 57.1638 34.6016 56.7395 34.989 56.4198L34.3524 55.6486ZM34.1011 58.1987C34.2478 58.19 34.4093 58.1763 34.5728 58.1466L34.3937 57.1627C34.2882 57.1819 34.1727 57.1927 34.0423 57.2004L34.1011 58.1987ZM34.5723 58.1467C44.2879 56.3879 51.3695 51.0672 55.743 42.1979L54.8461 41.7557C50.6131 50.3399 43.7987 55.4602 34.3942 57.1626L34.5723 58.1467ZM54.734 40.5056C53.8726 40.4813 53.2479 40.2539 52.8006 39.8724C52.3523 39.49 52.0279 38.9065 51.856 38.0682L50.8764 38.269C51.0794 39.2592 51.4886 40.0676 52.1517 40.6332C52.8159 41.1997 53.6806 41.4763 54.7059 41.5052L54.734 40.5056ZM51.6961 37.5398C51.4093 36.6357 51.0268 35.774 50.6579 34.9414L49.7436 35.3466C50.1163 36.1876 50.4755 36.9993 50.7429 37.8422L51.6961 37.5398ZM50.6581 34.9419C50.4501 34.4713 50.1481 34.1062 49.7454 33.8672C49.3464 33.6302 48.8887 33.5407 48.406 33.5502L48.4257 34.55C48.7743 34.5432 49.0358 34.6088 49.2349 34.727C49.4302 34.843 49.605 35.033 49.7434 35.3462L50.6581 34.9419ZM48.4049 33.5502C47.8177 33.5631 47.2041 33.632 46.6124 33.845L46.9511 34.7859C47.4026 34.6234 47.8974 34.5616 48.4268 34.55L48.4049 33.5502ZM37.2482 31.6499C39.0031 30.913 40.7252 30.0846 42.3578 29.0568L41.825 28.2106C40.2546 29.1992 38.5862 30.0035 36.861 30.7278L37.2482 31.6499ZM42.3589 29.0561C42.9755 28.6656 43.5973 28.3232 44.2586 28.0833L43.9177 27.1432C43.1609 27.4177 42.4706 27.8017 41.8239 28.2113L42.3589 29.0561ZM44.2613 28.0824C45.0454 27.793 45.7859 27.7053 46.5397 27.9466L46.8446 26.9942C45.8135 26.6641 44.8343 26.805 43.9151 27.1442L44.2613 28.0824ZM46.5406 27.9469C47.1644 28.1452 47.7964 28.1234 48.4144 27.8943L48.0669 26.9567C47.6498 27.1113 47.2468 27.1221 46.8436 26.9939L46.5406 27.9469ZM48.4157 27.8939C49.4923 27.4915 50.5398 27.1814 51.638 27.1663L51.6242 26.1664C50.3507 26.1839 49.1732 26.5432 48.0656 26.9572L48.4157 27.8939ZM51.6387 27.1663C52.3691 27.1552 52.9149 26.7823 53.293 26.2369L52.4712 25.6671C52.2381 26.0034 51.9688 26.1611 51.6235 26.1664L51.6387 27.1663ZM53.2923 26.238C53.486 25.9602 53.6575 25.6416 53.6382 25.2746C53.6184 24.9005 53.4082 24.6056 53.1724 24.3557L52.4452 25.0421C52.6331 25.2413 52.6389 25.3157 52.6395 25.3274C52.6405 25.3461 52.6369 25.4296 52.472 25.666L53.2923 26.238ZM52.5282 23.732C52.1436 23.2946 51.9968 22.9135 51.9971 22.5816C51.9975 22.2517 52.1432 21.8779 52.5331 21.4535L51.7967 20.7769C51.2942 21.3239 50.9978 21.9277 50.9971 22.5805C50.9964 23.2312 51.2897 23.8379 51.7772 24.3923L52.5282 23.732ZM33.6079 4.83676C32.9107 4.73219 32.5038 4.5146 32.2681 4.23072C32.0334 3.94801 31.8971 3.51323 31.9305 2.81634L30.9316 2.76847C30.8917 3.60221 31.0447 4.32256 31.4987 4.86945C31.9517 5.41518 32.6328 5.70169 33.4596 5.82569L33.6079 4.83676ZM31.418 2.02339C27.1808 1.85728 23.1297 2.5723 19.1197 4.28358L19.5122 5.20333C23.3833 3.55129 27.2867 2.8622 31.3789 3.02263L31.418 2.02339ZM21.686 5.81348C22.2836 5.97708 22.7457 6.22199 23.0691 6.66347L23.8758 6.07248C23.3679 5.37925 22.6646 5.04456 21.95 4.84897L21.686 5.81348ZM23.0699 6.66445C23.3637 7.06355 23.4261 7.34002 23.3987 7.53279C23.372 7.72071 23.2412 7.95821 22.8481 8.23843L23.4286 9.05271C23.9401 8.68803 24.3085 8.23775 24.3887 7.67362C24.4683 7.11434 24.2455 6.57447 23.8751 6.07151L23.0699 6.66445ZM22.7346 10.9434C24.4524 11.7867 26.2764 12.1905 28.1792 12.1905V11.1905C26.4225 11.1905 24.7501 10.8188 23.1753 10.0458L22.7346 10.9434ZM28.1792 12.1905C29.518 12.1905 30.7439 12.5042 31.8825 13.1885L32.3977 12.3314C31.0912 11.5462 29.6847 11.1905 28.1792 11.1905V12.1905ZM31.8822 13.1883C32.5597 13.5963 33.2551 13.9693 33.9464 14.3298L34.4089 13.4432C33.7228 13.0853 33.049 12.7236 32.398 12.3316L31.8822 13.1883ZM34.9655 10.9583C34.8612 10.578 34.9059 10.3158 35.0113 10.1329C35.1196 9.94479 35.337 9.7624 35.7265 9.63516L35.4161 8.68458C34.8684 8.86346 34.4113 9.17087 34.1447 9.63383C33.8752 10.1019 33.8445 10.652 34.0011 11.2227L34.9655 10.9583ZM48.2761 20.0018C47.1392 20.7635 45.9076 21.071 44.6035 20.8392L44.4285 21.8238C46.0178 22.1063 47.5083 21.7199 48.8327 20.8326L48.2761 20.0018ZM44.6035 20.8392C42.8979 20.5363 41.2027 20.5171 39.5261 20.5788L39.5629 21.5781C41.2115 21.5174 42.8252 21.539 44.4286 21.8238L44.6035 20.8392ZM39.5259 20.5788C38.5037 20.6169 37.5224 20.4346 36.5806 20.0276L36.1839 20.9456C37.2633 21.4121 38.3929 21.6217 39.5631 21.5781L39.5259 20.5788ZM36.5819 20.0282C35.9879 19.7695 35.377 19.5757 34.7455 19.4423L34.5389 20.4207C35.1055 20.5404 35.6518 20.7139 36.1826 20.945L36.5819 20.0282ZM34.743 19.4418C33.2759 19.1397 31.829 18.8326 30.4058 18.43L30.1335 19.3922C31.5955 19.8058 33.0745 20.1192 34.5414 20.4212L34.743 19.4418ZM30.4048 18.4297C29.8885 18.2847 29.1593 18.0681 28.3913 18.3473L28.7331 19.2871C29.1551 19.1337 29.575 19.2354 30.1345 19.3925L30.4048 18.4297ZM28.8372 19.8522C29.228 20.099 29.6324 20.3223 30.0302 20.5299L30.4928 19.6433C30.1082 19.4427 29.7302 19.2334 29.3712 19.0067L28.8372 19.8522ZM30.028 20.5287C30.8865 20.9821 31.599 21.5104 32.0832 22.2828L32.9305 21.7517C32.3145 20.7689 31.4295 20.138 30.495 19.6445L30.028 20.5287ZM32.0834 22.283C32.3088 22.6422 32.6128 22.9235 32.9607 23.1346L33.4793 22.2796C33.2485 22.1396 33.0636 21.9637 32.9304 21.7515L32.0834 22.283ZM32.9624 23.1356C34.2389 23.9028 35.6823 24.5158 37.379 24.0329L37.1052 23.0711C35.8189 23.4372 34.6869 23.0053 33.4776 22.2785L32.9624 23.1356ZM38.1266 23.9089C38.6319 23.8422 39.0864 23.8227 39.5199 23.9245L39.7484 22.9509C39.1387 22.8078 38.5418 22.8454 37.9957 22.9175L38.1266 23.9089ZM39.5208 23.9247C40.4165 24.1331 40.8954 25.1389 40.4923 25.9707L41.3922 26.4068C42.073 25.0019 41.2723 23.3055 39.7475 22.9507L39.5208 23.9247ZM40.4915 25.9723C40.3113 26.3475 40.0776 26.6485 39.7702 26.8559L40.3294 27.6849C40.8207 27.3535 41.1575 26.8953 41.3929 26.4053L40.4915 25.9723ZM39.7723 26.8544C38.0074 28.0316 36.2013 29.0616 34.2088 29.6611L34.4969 30.6187C36.6284 29.9773 38.5305 28.8847 40.3272 27.6864L39.7723 26.8544ZM20.3077 25.0602C19.3554 24.4981 18.3427 24.3434 17.2813 24.459L17.3896 25.4531C18.2761 25.3565 19.0645 25.4876 19.7993 25.9214L20.3077 25.0602ZM17.2816 24.459C16.0762 24.5896 14.8791 24.5804 13.6975 24.3623L13.5161 25.3457C14.812 25.5849 16.1089 25.5919 17.3893 25.4532L17.2816 24.459ZM13.6982 24.3625C12.208 24.0852 11.0382 23.4004 10.2454 22.1283L9.39672 22.6572C10.3643 24.2097 11.8025 25.0269 13.5153 25.3456L13.6982 24.3625ZM10.2457 22.1289C9.98751 21.7133 9.7061 21.314 9.42619 20.9306L8.6185 21.5202C8.89279 21.896 9.15743 22.2722 9.39637 22.6567L10.2457 22.1289ZM9.42403 20.9277C8.99723 20.3518 8.48142 19.8254 7.82518 19.4393L7.31807 20.3012C7.8273 20.6008 8.24875 21.0214 8.62065 21.5231L9.42403 20.9277ZM4.48839 18.683C4.06435 19.6115 3.6981 20.5619 3.39409 21.5379L4.34885 21.8353C4.6398 20.9012 4.99076 19.9902 5.39803 19.0984L4.48839 18.683ZM4.29524 23.5702C4.78543 23.8051 4.98577 23.9844 5.08292 24.1634C5.18127 24.3446 5.22601 24.6214 5.15978 25.1833L6.15291 25.3003C6.22523 24.6867 6.21292 24.1491 5.96183 23.6864C5.70954 23.2216 5.26807 22.9274 4.72727 22.6684L4.29524 23.5702ZM5.15959 25.1849C5.13007 25.4426 5.10652 25.7198 5.11586 26.0051L6.11532 25.9724C6.10836 25.7597 6.12557 25.539 6.15309 25.2987L5.15959 25.1849ZM5.11581 26.0034C5.11967 26.135 5.12447 26.2749 5.14362 26.3925C5.16161 26.5029 5.2072 26.7033 5.38131 26.8538C5.56052 27.0087 5.7696 27.0204 5.88651 27.0179C6.00664 27.0153 6.14426 26.9928 6.26966 26.9715L6.10253 25.9856C6.07036 25.991 6.04131 25.9959 6.01468 26.0001C5.98804 26.0043 5.96477 26.0077 5.9442 26.0104C5.92357 26.0132 5.90683 26.0151 5.89316 26.0163C5.87942 26.0175 5.87037 26.018 5.865 26.0181C5.85955 26.0182 5.85989 26.0179 5.86462 26.0184C5.86938 26.0188 5.8808 26.02 5.89689 26.024C5.91327 26.028 5.93516 26.035 5.95999 26.0473C5.98525 26.0597 6.01096 26.0762 6.03528 26.0972C6.05954 26.1182 6.07886 26.1406 6.09378 26.162C6.10841 26.1831 6.11766 26.2015 6.12325 26.2146C6.12874 26.2274 6.13116 26.2361 6.13177 26.2384C6.13239 26.2408 6.1318 26.239 6.13061 26.2317C6.12943 26.2245 6.12797 26.2137 6.12645 26.1984C6.12493 26.1831 6.12349 26.1647 6.12213 26.1425C6.12078 26.1203 6.11959 26.0954 6.11848 26.0671C6.11737 26.0388 6.11637 26.008 6.11538 25.9741L5.11581 26.0034ZM6.27031 26.9714C6.89663 26.8644 7.52827 26.8879 8.2006 26.9632L8.31186 25.9694C7.59867 25.8896 6.86108 25.856 6.10188 25.9857L6.27031 26.9714ZM13.4013 28.1088C14.7645 28.47 16.062 28.9864 17.3104 29.6435L17.7762 28.7586C16.4654 28.0687 15.0978 27.5239 13.6574 27.1422L13.4013 28.1088ZM17.3117 29.6442C18.2185 30.1181 19.0488 30.6739 19.7567 31.3829L20.4644 30.6764C19.6645 29.8752 18.7426 29.2636 17.7749 28.7579L17.3117 29.6442ZM15.3853 34.6952C14.1646 34.1833 12.9529 33.6475 11.7582 33.0837L11.3314 33.988C12.5409 34.5589 13.7661 35.1006 14.9986 35.6174L15.3853 34.6952ZM11.7585 33.0838C10.692 32.5795 9.60995 32.5318 8.529 32.7386L8.71696 33.7208C9.64094 33.544 10.4986 33.5942 11.3311 33.9878L11.7585 33.0838ZM8.53069 32.7383C7.68719 32.8967 7.00524 33.3282 6.509 34.0424L7.33023 34.613C7.67344 34.119 8.12435 33.8321 8.71527 33.7211L8.53069 32.7383ZM6.03549 35.3807C5.88364 35.9817 5.64621 36.4243 5.32601 36.7262C5.01209 37.0223 4.58002 37.22 3.96467 37.2659L4.03908 38.2631C4.84592 38.2029 5.50596 37.9311 6.01214 37.4537C6.51205 36.9822 6.82271 36.3472 7.00502 35.6257L6.03549 35.3807ZM3.1284 38.063C3.143 38.1605 3.16372 38.2666 3.19689 38.3773L4.15485 38.0904C4.13911 38.0379 4.12723 37.9807 4.11738 37.9149L3.1284 38.063ZM3.19825 38.3818C5.18331 44.7909 8.93955 49.909 14.4734 53.6997L15.0385 52.8747C9.69192 49.2123 6.07232 44.2812 4.15348 38.0859L3.19825 38.3818ZM14.9419 52.8231L14.9216 52.8149L14.5496 53.7432L14.5699 53.7513L14.9419 52.8231ZM38.9944 41.5278C39.7639 40.8512 41.3058 38.9011 41.542 36.3119L40.5462 36.2211C40.3391 38.4907 38.9664 40.2208 38.3341 40.7768L38.9944 41.5278ZM14.805 35.4729C15.061 35.7858 15.4315 36.325 15.6951 36.9019C15.9705 37.5045 16.073 38.0268 15.9657 38.3707L16.9203 38.6685C17.1444 37.9502 16.8989 37.1301 16.6047 36.4862C16.2987 35.8167 15.8781 35.2053 15.579 34.8397L14.805 35.4729ZM20.0296 25.9139C20.2556 26.4766 20.5115 27.4094 20.5372 28.3456C20.5632 29.2928 20.3528 30.1353 19.7748 30.6592L20.4463 31.4001C21.3418 30.5885 21.5661 29.3853 21.5368 28.3181C21.5072 27.2398 21.2179 26.1894 20.9576 25.5412L20.0296 25.9139ZM33.8713 30.0052C33.7392 30.4777 34.0123 30.9435 34.5232 31.2312C35.0219 31.512 35.8238 31.6889 37.0546 31.6889V30.6889C35.8893 30.6889 35.2914 30.5161 35.0138 30.3598C34.7484 30.2104 34.8688 30.1516 34.8344 30.2745L33.8713 30.0052ZM48.8233 20.8388C49.1785 20.6122 49.7548 20.3791 50.3125 20.3898C50.8269 20.3997 51.3488 20.6117 51.719 21.3414L52.6108 20.889C52.0608 19.8049 51.1874 19.4064 50.3317 19.39C49.5192 19.3744 48.7504 19.6992 48.2855 19.9957L48.8233 20.8388ZM35.9094 9.52827C36.2485 9.21709 36.5577 8.6458 36.5538 7.89628C36.5498 7.1389 36.2283 6.24268 35.3837 5.26207L34.626 5.91468C35.356 6.76223 35.5514 7.43737 35.5538 7.90151C35.5563 8.37351 35.3614 8.67388 35.2333 8.79146L35.9094 9.52827ZM4.11611 37.9069C4.12956 37.9878 4.11742 38.0503 4.1129 38.0708C4.1107 38.0809 4.1089 38.0868 4.10957 38.0845C4.11022 38.0822 4.1113 38.0786 4.11427 38.0689L3.1576 37.7777C3.15474 37.7871 3.14368 37.8222 3.13617 37.8564C3.12715 37.8974 3.11376 37.9754 3.12967 38.071L4.11611 37.9069ZM4.11427 38.0689C4.12174 38.0443 4.13364 38.0053 4.14769 37.951L3.1796 37.7004C3.17097 37.7337 3.16405 37.7565 3.1576 37.7777L4.11427 38.0689ZM3.74596 38.3189C3.80639 38.3088 3.8622 38.2966 3.90392 38.2876L3.69246 37.3102C3.64775 37.3199 3.61462 37.327 3.58132 37.3325L3.74596 38.3189ZM3.90394 38.2876C3.97955 38.2712 4.01164 38.2651 4.03887 38.2631L3.96488 37.2659C3.8564 37.2739 3.75589 37.2965 3.69244 37.3102L3.90394 38.2876ZM7.00508 35.6255C7.0281 35.5341 7.04837 35.4434 7.06692 35.3604L6.09101 35.1422C6.07197 35.2274 6.05459 35.305 6.03542 35.381L7.00508 35.6255ZM7.06692 35.3604C7.14215 35.0239 7.19773 34.8023 7.32923 34.6144L6.51 34.041C6.24727 34.4163 6.15973 34.8348 6.09101 35.1422L7.06692 35.3604ZM10.6217 44.2094C10.7829 44.3029 10.944 44.3969 11.1058 44.4913L11.6098 43.6276C11.4482 43.5333 11.2859 43.4386 11.1231 43.3442L10.6217 44.2094ZM11.1058 44.4913C11.59 44.7739 12.0811 45.0606 12.5802 45.3338L13.0604 44.4567C12.5753 44.1911 12.096 43.9114 11.6098 43.6276L11.1058 44.4913ZM21.7518 50.2521C22.2756 50.2318 22.7941 50.1488 23.2779 50.072L23.121 49.0843C22.6268 49.1628 22.1673 49.2352 21.7131 49.2528L21.7518 50.2521ZM23.2779 50.072C23.4209 50.0492 23.5611 50.027 23.7008 50.0062L23.5538 49.0171C23.4083 49.0387 23.2632 49.0618 23.121 49.0843L23.2779 50.072ZM27.4701 50.5557C27.4696 50.5556 27.4741 50.557 27.4865 50.5625C27.4998 50.5685 27.5144 50.5756 27.539 50.5877L27.9814 49.6909C27.9418 49.6714 27.8616 49.6307 27.7717 49.6023L27.4701 50.5557ZM27.5389 50.5877C27.566 50.6011 27.6087 50.6223 27.6548 50.6417L28.0434 49.7203C28.0292 49.7144 28.013 49.7065 27.9814 49.6909L27.5389 50.5877ZM25.8594 50.8359C25.341 50.7426 24.8265 50.7033 24.3378 50.6656L24.2609 51.6626C24.7576 51.701 25.2218 51.7372 25.6822 51.8201L25.8594 50.8359ZM21.9418 51.3261C21.9086 51.3521 21.8699 51.3779 21.8108 51.4168L22.3605 52.2521C22.4135 52.2172 22.487 52.1692 22.5581 52.1136L21.9418 51.3261ZM21.8108 51.4168C21.734 51.4673 21.6093 51.5476 21.4989 51.6543L22.1941 52.3732C22.2256 52.3427 22.2691 52.3123 22.3605 52.2521L21.8108 51.4168ZM20.1746 51.8593C19.835 51.7332 19.4833 51.6654 19.1803 51.6061L18.9881 52.5875C19.305 52.6495 19.5759 52.7037 19.8265 52.7967L20.1746 51.8593ZM19.1803 51.6061C19.109 51.5921 19.0402 51.5787 18.972 51.5647L18.7715 52.5444C18.8445 52.5593 18.9175 52.5736 18.9881 52.5875L19.1803 51.6061ZM35.3271 54.9417C35.2747 54.978 35.222 55.0143 35.1684 55.0512L35.7354 55.875C35.7888 55.8382 35.8429 55.8009 35.897 55.7634L35.3271 54.9417ZM35.1684 55.0512C34.9054 55.2322 34.62 55.4283 34.3529 55.6482L34.9885 56.4202C35.2168 56.2323 35.4662 56.0602 35.7354 55.875L35.1684 55.0512ZM33.7453 58.1449C33.7781 58.1515 33.8037 58.158 33.8334 58.1656L34.0812 57.1968C34.0502 57.1888 34.0025 57.1766 33.9417 57.1644L33.7453 58.1449ZM33.8334 58.1656C33.8574 58.1717 33.9779 58.2083 34.1101 58.1981L34.0333 57.201C34.0735 57.1979 34.1025 57.2027 34.11 57.2041C34.1133 57.2047 34.1134 57.2048 34.1077 57.2034C34.1017 57.202 34.0944 57.2001 34.0812 57.1968L33.8334 58.1656ZM55.7433 42.1973C55.7814 42.1199 55.818 42.0485 55.8535 41.9793L54.9638 41.5227C54.9286 41.5912 54.8882 41.67 54.8458 41.7564L55.7433 42.1973ZM55.8535 41.9793C55.9207 41.8483 56.0023 41.6923 56.0489 41.5536C56.0921 41.4253 56.1644 41.1459 55.9814 40.8848C55.8207 40.6555 55.5594 40.59 55.408 40.5614C55.2287 40.5275 55.0009 40.5129 54.7338 40.5056L54.7062 41.5052C54.9672 41.5124 55.1268 41.5259 55.2221 41.5439C55.2686 41.5528 55.279 41.559 55.2698 41.5547C55.2588 41.5496 55.2081 41.5238 55.1625 41.4587C55.1129 41.388 55.0999 41.3148 55.1 41.2671C55.1001 41.2287 55.1084 41.2131 55.1012 41.2346C55.0947 41.2539 55.0816 41.2859 55.0566 41.3382C55.032 41.3898 55.0019 41.4485 54.9638 41.5227L55.8535 41.9793ZM51.8565 38.0707C51.8271 37.9233 51.7791 37.7863 51.7448 37.6865L50.7993 38.0121C50.8374 38.1227 50.8619 38.1962 50.8759 38.2665L51.8565 38.0707ZM51.7448 37.6865C51.7262 37.6326 51.7109 37.5879 51.6975 37.5442L50.7415 37.8378C50.7607 37.9003 50.7816 37.9608 50.7993 38.0121L51.7448 37.6865ZM46.612 33.8452C45.8971 34.1033 45.1665 34.3232 44.4206 34.5477L44.7087 35.5053C45.4503 35.2821 46.2069 35.0546 46.9516 34.7857L46.612 33.8452ZM44.4206 34.5477C43.2343 34.9046 42.0086 35.2726 40.8352 35.8122L41.253 36.7208C42.3528 36.215 43.5115 35.8655 44.7087 35.5053L44.4206 34.5477ZM53.1726 24.3559C53.0637 24.2405 52.9476 24.1352 52.8482 24.0448L52.1753 24.7845C52.2796 24.8794 52.3669 24.9591 52.445 25.042L53.1726 24.3559ZM52.8482 24.0448C52.72 23.9281 52.6171 23.8338 52.5292 23.7332L51.7761 24.3911C51.9081 24.5422 52.0545 24.6746 52.1753 24.7845L52.8482 24.0448ZM35.1196 5.10171C34.6603 4.99347 34.1942 4.92424 33.7572 4.85906L33.6096 5.84812C34.0536 5.91434 34.4783 5.97798 34.8902 6.07504L35.1196 5.10171ZM31.9311 2.7924C31.9311 2.69431 31.9154 2.59942 31.9063 2.53946L30.9177 2.69036C30.9234 2.72762 30.9267 2.74996 30.929 2.76892C30.93 2.77748 30.9305 2.78328 30.9308 2.78717C30.9311 2.79096 30.9311 2.7925 30.9311 2.7924H31.9311ZM31.9063 2.53947C31.902 2.51131 31.8979 2.48435 31.8938 2.4548L30.9031 2.59122C30.9083 2.62897 30.9135 2.66271 30.9177 2.69035L31.9063 2.53947ZM19.1394 5.21127C19.7439 5.43933 20.3074 5.53954 20.803 5.62866L20.98 4.64444C20.4779 4.55417 19.9998 4.46708 19.4924 4.27565L19.1394 5.21127ZM20.803 5.62866C21.1234 5.68627 21.4092 5.73799 21.6865 5.81361L21.9495 4.84884C21.6224 4.75964 21.2928 4.7007 20.98 4.64444L20.803 5.62866ZM22.848 8.23851C22.6786 8.35934 22.4864 8.45844 22.255 8.57648L22.7095 9.46722C22.9293 9.35509 23.1888 9.22371 23.4287 9.05263L22.848 8.23851ZM22.255 8.57648C22.1847 8.61238 22.1106 8.65018 22.0366 8.68926L22.504 9.57333C22.5704 9.53821 22.6381 9.50368 22.7095 9.46722L22.255 8.57648ZM22.033 8.69122C22.0157 8.70052 21.9861 8.71199 21.9053 8.73957L22.2285 9.68593C22.2906 9.6647 22.4036 9.62747 22.5077 9.57137L22.033 8.69122ZM21.9053 8.73957C21.8329 8.76431 21.6742 8.81487 21.5385 8.90674C21.3746 9.01777 21.2189 9.20428 21.1937 9.48202L22.1896 9.57242C22.1869 9.60272 22.1755 9.64182 22.1511 9.67917C22.1285 9.71368 22.1053 9.73065 22.0994 9.73466C22.0949 9.73768 22.1003 9.73339 22.1254 9.72308C22.1511 9.71251 22.1811 9.70209 22.2285 9.68593L21.9053 8.73957ZM21.1938 9.48144C21.1652 9.79191 21.2985 10.027 21.4548 10.1834C21.5896 10.3184 21.7599 10.4121 21.8483 10.4628L22.3452 9.59494C22.2916 9.56425 22.2528 9.54185 22.2185 9.51928C22.1848 9.4971 22.1688 9.48323 22.1624 9.47679C22.157 9.47141 22.1675 9.48028 22.1775 9.50417C22.1888 9.53126 22.191 9.55735 22.1896 9.573L21.1938 9.48144ZM21.8483 10.4628C21.8937 10.4887 21.9255 10.507 21.9527 10.5244L22.4902 9.68111C22.4393 9.64869 22.3863 9.61844 22.3452 9.59494L21.8483 10.4628ZM21.9489 10.5219C22.1819 10.6734 22.4284 10.7934 22.6419 10.8979L23.0816 9.99978C22.8588 9.89072 22.6675 9.79641 22.494 9.68356L21.9489 10.5219ZM33.9934 14.3544C34.3221 14.5271 34.7856 14.7805 35.3643 14.7701L35.3463 13.7702C35.0609 13.7754 34.8163 13.6571 34.4583 13.4691L33.9934 14.3544ZM35.8344 14.4133C36.01 13.8252 35.8123 13.312 35.6927 12.9772L34.751 13.3137C34.8846 13.6876 34.945 13.8968 34.8762 14.1271L35.8344 14.4133ZM35.6927 12.9772C35.6712 12.9172 35.6518 12.8626 35.6337 12.8088L34.6858 13.1274C34.7074 13.1917 34.7301 13.2552 34.751 13.3137L35.6927 12.9772ZM35.6347 12.8121C35.5419 12.5293 35.4336 12.2541 35.3316 11.9947L34.4009 12.3605C34.5046 12.6244 34.6022 12.873 34.6847 13.1241L35.6347 12.8121ZM35.3316 11.9947C35.189 11.6319 35.0586 11.2987 34.9656 10.9586L34.001 11.2224C34.1105 11.6231 34.2617 12.0063 34.4009 12.3605L35.3316 11.9947ZM28.0676 18.8901C28.1528 19.4683 28.5843 19.7028 28.7767 19.8162L29.2846 18.9548C29.174 18.8896 29.1267 18.8586 29.0943 18.8256C29.082 18.8132 29.0757 18.8038 29.0715 18.7956C29.0675 18.7877 29.061 18.7726 29.0569 18.7442L28.0676 18.8901ZM28.7767 19.8162C28.8022 19.8313 28.8232 19.8437 28.8432 19.8559L29.3652 19.003C29.3371 18.9858 29.3089 18.9691 29.2846 18.9548L28.7767 19.8162ZM37.3826 24.0318C37.551 23.9825 37.7346 23.9585 37.9636 23.9298L37.8394 22.9375C37.6247 22.9644 37.3602 22.9964 37.1016 23.0721L37.3826 24.0318ZM37.9636 23.9298C38.0166 23.9232 38.0722 23.9162 38.1278 23.9087L37.9945 22.9177C37.9442 22.9244 37.8932 22.9308 37.8394 22.9375L37.9636 23.9298ZM20.7741 25.3136C20.6622 25.2378 20.5459 25.1819 20.4671 25.1434L20.0282 26.0419C20.1176 26.0856 20.1695 26.1119 20.2131 26.1415L20.7741 25.3136ZM20.4671 25.1434C20.398 25.1097 20.352 25.0868 20.3111 25.0622L19.7959 25.9193C19.8803 25.97 19.9657 26.0114 20.0282 26.0419L20.4671 25.1434ZM7.82456 19.439C7.28562 19.1229 6.74354 18.8186 6.21269 18.5206L5.7232 19.3926C6.25537 19.6914 6.78923 19.9911 7.31869 20.3016L7.82456 19.439ZM6.21269 18.5206C5.96152 18.3796 5.7129 18.2401 5.46695 18.1006L4.97367 18.9705C5.22183 19.1112 5.47235 19.2518 5.7232 19.3926L6.21269 18.5206ZM4.98419 18.0948C4.66383 18.2665 4.55563 18.5299 4.50163 18.653L5.41734 19.0548C5.43084 19.0241 5.43829 19.0074 5.44565 18.9928C5.45218 18.9799 5.45545 18.9752 5.45598 18.9744C5.45605 18.9744 5.4545 18.9764 5.452 18.9786C5.44953 18.9808 5.45002 18.9797 5.45644 18.9763L4.98419 18.0948ZM4.50163 18.653C4.49606 18.6657 4.49169 18.6756 4.4874 18.6851L5.39902 19.0962C5.40572 19.0813 5.41211 19.0667 5.41734 19.0548L4.50163 18.653ZM3.39426 21.5374C3.37432 21.6011 3.34429 21.6719 3.30053 21.7733L4.21857 22.1698C4.25786 22.0788 4.31027 21.9587 4.34868 21.8359L3.39426 21.5374ZM3.30053 21.7733C3.24992 21.8905 3.17456 22.0612 3.1335 22.2393C3.0903 22.4268 3.07363 22.6665 3.17891 22.9146L4.09947 22.524C4.10436 22.5355 4.09321 22.5279 4.10796 22.4639C4.12486 22.3906 4.15987 22.3057 4.21857 22.1698L3.30053 21.7733ZM3.17984 22.9168C3.28612 23.164 3.47876 23.2997 3.64314 23.3755C3.79374 23.445 3.96045 23.4815 4.06189 23.5049L4.28694 22.5305C4.22773 22.5169 4.18269 22.5064 4.14167 22.4948C4.10129 22.4835 4.07673 22.4743 4.06199 22.4675C4.04778 22.4609 4.05135 22.4605 4.06218 22.4703C4.07514 22.4821 4.08928 22.5003 4.09855 22.5218L3.17984 22.9168ZM4.06189 23.5049C4.19119 23.5347 4.25535 23.5517 4.29987 23.5724L4.72264 22.6662C4.56504 22.5927 4.39229 22.5549 4.28694 22.5305L4.06189 23.5049ZM8.19981 26.9631C9.76602 27.141 11.2872 27.5456 12.8532 27.9631L13.1108 26.9969C11.5567 26.5825 9.96442 26.1571 8.31265 25.9695L8.19981 26.9631ZM12.8532 27.9631C13.0355 28.0117 13.2184 28.0605 13.4015 28.1089L13.6572 27.1421C13.4752 27.094 13.2933 27.0455 13.1108 26.9969L12.8532 27.9631ZM24.1633 51.6551L24.2608 51.6626L24.3379 50.6656L24.2405 50.6581L24.1633 51.6551ZM34.4581 13.469L34.4099 13.4437L33.9454 14.3293L33.9936 14.3545L34.4581 13.469ZM23.1752 10.0457L23.0819 9.99996L22.6415 10.8977L22.7347 10.9435L23.1752 10.0457ZM33.4598 5.82573L33.6095 5.8481L33.7573 4.85909L33.6077 4.83672L33.4598 5.82573Z" fill="black" mask="url(#path-2-inside-1_1_441)"/>
<defs>
<linearGradient id="paint0_linear_1_441" x1="3.57399" y1="30.1154" x2="55.5961" y2="30.1154" gradientUnits="userSpaceOnUse">
<stop stop-color="#D378FF"/>
<stop offset="1" stop-color="#C9009C"/>
</linearGradient>
</defs>
</svg>
