<svg width="33" height="32" viewBox="0 0 33 32" fill="none" xmlns="http://www.w3.org/2000/svg">
<path fill-rule="evenodd" clip-rule="evenodd" d="M5.9432 13.5757H8.9144V15.0557C9.3424 14.2045 10.44 13.4397 12.0888 13.4397C15.2496 13.4397 16 15.1341 16 18.2429V24.0005H12.8V18.9509C12.8 17.1805 12.372 16.1821 11.2824 16.1821C9.7712 16.1821 9.1432 17.2581 9.1432 18.9501V24.0005H5.9432V13.5757ZM0.456 23.8645H3.656V13.4397H0.456V23.8645ZM4.1144 10.0405C4.11452 10.3087 4.06132 10.5743 3.95791 10.8218C3.85449 11.0692 3.70292 11.2937 3.512 11.4821C3.12512 11.8666 2.60145 12.0818 2.056 12.0805C1.51151 12.0801 0.989049 11.8654 0.6016 11.4829C0.411369 11.2939 0.260309 11.0691 0.157075 10.8216C0.0538412 10.5741 0.000463305 10.3087 0 10.0405C0 9.49889 0.216 8.98049 0.6024 8.59809C0.989508 8.21502 1.51219 8.00025 2.0568 8.00049C2.6024 8.00049 3.1256 8.21569 3.512 8.59809C3.8976 8.98049 4.1144 9.49889 4.1144 10.0405Z" fill="white"/>
</svg>
