<svg width="33" height="32" viewBox="0 0 33 32" fill="none" xmlns="http://www.w3.org/2000/svg">
<path d="M6.4 18.4004L10.552 16.0004L6.4 13.6004V18.4004ZM15.648 12.1364C15.752 12.5124 15.824 13.0164 15.872 13.6564C15.928 14.2964 15.952 14.8484 15.952 15.3284L16 16.0004C16 17.7524 15.872 19.0404 15.648 19.8644C15.448 20.5844 14.984 21.0484 14.264 21.2484C13.888 21.3524 13.2 21.4244 12.144 21.4724C11.104 21.5284 10.152 21.5524 9.272 21.5524L8 21.6004C4.648 21.6004 2.56 21.4724 1.736 21.2484C1.016 21.0484 0.552 20.5844 0.352 19.8644C0.248 19.4884 0.176 18.9844 0.128 18.3444C0.0720001 17.7044 0.048 17.1524 0.048 16.6724L0 16.0004C0 14.2484 0.128 12.9604 0.352 12.1364C0.552 11.4164 1.016 10.9524 1.736 10.7524C2.112 10.6484 2.8 10.5764 3.856 10.5284C4.896 10.4724 5.848 10.4484 6.728 10.4484L8 10.4004C11.352 10.4004 13.44 10.5284 14.264 10.7524C14.984 10.9524 15.448 11.4164 15.648 12.1364Z" fill="white"/>
</svg>
