<svg width="60" height="61" viewBox="0 0 60 61" fill="none" xmlns="http://www.w3.org/2000/svg">
<path d="M38.8991 4.51833V5.52994C38.8991 6.64417 37.995 7.54338 36.8808 7.54338H23.2363C22.127 7.54338 21.2229 6.63928 21.2229 5.52994V4.51833C21.2229 3.4041 22.127 2.5 23.2363 2.5H36.8808C37.9999 2.5 38.8991 3.4041 38.8991 4.51833Z" fill="url(#paint0_linear_1_413)"/>
<path d="M36.7736 19.8097C36.7736 21.0217 40.346 30.0822 43.5616 37.9649C43.3075 37.8427 36.6808 34.6662 28.0112 38.9032C24.0968 37.4615 20.368 36.6161 16.1456 38.6882C19.4346 30.6393 23.2318 21.0608 23.2318 19.8049V7.53851H36.7687V19.8049L36.7736 19.8097Z" fill="url(#paint1_linear_1_413)"/>
<path d="M43.5661 37.9698C44.221 39.5776 44.8661 41.1365 45.4574 42.5684C38.3762 43.6338 33.0445 40.77 28.0109 38.9032C36.6804 34.6661 43.3071 37.8427 43.5613 37.9649H43.5661V37.9698Z" fill="#00D433"/>
<path d="M28.011 38.9031C33.0446 40.77 38.3763 43.6337 45.4576 42.5684C47.0996 46.5415 48.38 49.5568 48.5852 49.9917C49.2303 51.3454 50.5889 58.5 45.438 58.5H14.562C9.41115 58.5 10.7697 51.3454 11.4148 49.9917C11.6836 49.4248 13.7801 44.4499 16.1405 38.6881H16.1454C20.3678 36.6111 24.0965 37.4615 28.011 38.9031Z" fill="url(#paint2_linear_1_413)"/>
<g style="mix-blend-mode:overlay" opacity="0.8">
<path d="M13.785 49.9918C14.0538 49.4249 16.1503 44.45 18.5107 38.6882H18.5156C19.9084 38.0041 21.2426 37.6424 22.5523 37.5105C20.49 37.315 18.3885 37.5887 16.1454 38.6882H16.1405C13.7801 44.45 11.6836 49.42 11.4148 49.9918C10.7697 51.3455 9.41115 58.5001 14.562 58.5001H16.9322C11.7813 58.5001 13.1399 51.3455 13.785 49.9918Z" fill="white"/>
</g>
<path d="M23.2316 7.54337C22.1222 7.54337 21.2181 6.63928 21.2181 5.52994V4.51833C21.2181 3.4041 22.1222 2.5 23.2316 2.5H36.876C37.9952 2.5 38.8944 3.4041 38.8944 4.51833V5.52994C38.8944 6.64417 37.9903 7.54337 36.876 7.54337H23.2316Z" stroke="black" stroke-width="2" stroke-linejoin="round"/>
<path d="M16.1504 38.6929C19.4393 30.6441 23.2365 21.0656 23.2365 19.8096V7.54327" stroke="black" stroke-width="2" stroke-linejoin="round"/>
<path d="M43.5663 37.9696C44.2212 39.5774 44.8663 41.1364 45.4576 42.5682C47.0996 46.5414 48.38 49.5566 48.5852 49.9916C49.2303 51.3453 50.5889 58.4998 45.438 58.4998H14.562C9.41115 58.4998 10.7697 51.3453 11.4148 49.9916C11.6836 49.4247 13.7801 44.4498 16.1405 38.688" stroke="black" stroke-width="2" stroke-linejoin="round"/>
<path d="M36.7734 7.54327V19.8096C36.7734 21.0216 40.3458 30.0821 43.5615 37.9648" stroke="black" stroke-width="2" stroke-linejoin="round"/>
<path d="M16.1456 38.6929H16.1505C20.3729 36.616 24.1016 37.4663 28.0161 38.908C33.0497 40.7748 38.3814 43.6386 45.4627 42.5732" stroke="black" stroke-width="2" stroke-linejoin="round"/>
<path d="M43.5663 37.9698H43.5614C43.3073 37.8428 36.6805 34.6662 28.011 38.9032H28.0061" stroke="black" stroke-width="2" stroke-linejoin="round"/>
<g style="mix-blend-mode:overlay" opacity="0.4">
<path d="M45.7166 49.7768C46.1173 50.8862 45.5406 52.1079 44.4362 52.5087C43.3268 52.9094 42.1051 52.3376 41.7043 51.2283L38.5816 42.5832C38.1808 41.4739 38.7575 40.2521 39.862 39.8514C40.9713 39.4506 42.193 40.0224 42.5938 41.1318L45.7166 49.7768ZM40.1503 34.373C39.7496 33.2637 38.5278 32.6919 37.4185 33.0927C36.3091 33.4934 35.7373 34.7151 36.1381 35.8245L36.5632 36.9925C36.964 38.1018 38.1857 38.6736 39.2951 38.2729C40.4044 37.8721 40.9762 36.6504 40.5755 35.541L40.1552 34.373H40.1503Z" fill="white"/>
</g>
<path d="M26.2372 30.3901C27.217 30.3901 28.0112 29.5959 28.0112 28.6161C28.0112 27.6364 27.217 26.8422 26.2372 26.8422C25.2575 26.8422 24.4633 27.6364 24.4633 28.6161C24.4633 29.5959 25.2575 30.3901 26.2372 30.3901Z" fill="url(#paint3_linear_1_413)" stroke="black" stroke-miterlimit="10"/>
<defs>
<linearGradient id="paint0_linear_1_413" x1="21.218" y1="5.02169" x2="38.8991" y2="5.02169" gradientUnits="userSpaceOnUse">
<stop stop-color="white"/>
<stop offset="1" stop-color="white"/>
</linearGradient>
<linearGradient id="paint1_linear_1_413" x1="16.1505" y1="23.2257" x2="43.5616" y2="23.2257" gradientUnits="userSpaceOnUse">
<stop stop-color="white"/>
<stop offset="1" stop-color="white"/>
</linearGradient>
<linearGradient id="paint2_linear_1_413" x1="16.121" y1="46.346" x2="46.0587" y2="55.6069" gradientUnits="userSpaceOnUse">
<stop stop-color="#13D948"/>
<stop offset="1" stop-color="#00C158"/>
</linearGradient>
<linearGradient id="paint3_linear_1_413" x1="24.4633" y1="28.6161" x2="28.0112" y2="28.6161" gradientUnits="userSpaceOnUse">
<stop stop-color="#13D948"/>
<stop offset="1" stop-color="#00C158"/>
</linearGradient>
</defs>
</svg>
