<svg width="60" height="61" viewBox="0 0 60 61" fill="none" xmlns="http://www.w3.org/2000/svg">
<path d="M41.7905 58.496C49.9771 58.496 56.6572 51.8281 56.6653 43.6415C56.6084 35.1869 49.8269 28.8723 41.9936 28.7789C33.7095 28.6774 26.9401 35.3818 26.9482 43.6253C26.9564 51.8362 33.5917 58.496 41.7905 58.5V58.496ZM37.547 56.7051C37.4252 57.03 37.4211 57.0341 37.084 56.9122C35.1349 56.2097 33.4131 55.1417 31.9268 53.692C31.5613 53.3347 31.2162 52.957 30.8913 52.5631C30.7898 52.4413 30.7451 52.3519 30.8751 52.2098C32.3045 50.6139 34.6963 50.151 36.4099 51.6007C37.4333 52.4697 37.8353 53.627 37.8718 54.8128C37.8637 55.5478 37.7581 56.1407 37.547 56.7092V56.7051ZM54.7242 37.997C55.3455 39.4629 55.7394 40.9857 55.8491 42.5776C55.8734 42.9349 55.8897 43.2882 55.9059 43.544C55.8816 44.5755 55.8044 45.5013 55.6176 46.415C55.5364 46.8089 55.4998 46.8333 55.0978 46.8171C54.2572 46.7805 53.5344 46.4556 52.9253 45.8831C52.0766 45.0831 51.6218 44.0801 51.4837 42.939C51.3334 41.7207 51.5243 40.5593 52.174 39.4954C52.6776 38.6751 53.3639 38.0822 54.306 37.798C54.5374 37.7289 54.6349 37.7817 54.7242 37.9929V37.997ZM28.7756 38.2406C29.8923 35.597 31.6304 33.461 34.0263 31.8773C40.7997 27.4023 49.9122 29.5464 53.9933 36.5635C54.0704 36.6975 54.1395 36.8315 54.2451 37.0224C53.2461 37.3026 52.4827 37.8345 51.8776 38.5939C50.1152 40.807 50.3182 44.3968 52.3243 46.3582C53.0227 47.0404 53.8471 47.4627 54.8298 47.5683C54.9801 47.5845 55.1384 47.5521 55.2806 47.6373C53.3192 54.8615 45.4371 59.2756 38.1967 57.229C38.3551 56.7295 38.5297 56.2341 38.5865 55.7102C38.7896 53.8544 38.3267 52.222 36.8607 50.9875C35.2526 49.6312 32.9583 49.6312 31.1756 50.9347C30.8629 51.1662 30.5827 51.4301 30.3106 51.7022C30.1847 51.6657 30.1441 51.556 30.0873 51.4707C28.9015 49.6881 28.1584 47.7348 27.8498 45.6151C27.7848 45.1846 27.7888 45.1805 28.1624 45.0344C29.4213 44.5349 30.0751 43.544 30.3187 42.273C30.4527 41.5705 30.404 40.8517 30.1441 40.1654C29.9126 39.5441 29.5066 39.0731 28.9462 38.732C28.6579 38.5574 28.6497 38.5574 28.7797 38.2528L28.7756 38.2406ZM29.5878 41.9928C29.4822 43.1136 28.6863 44.1572 27.7401 44.3887C27.6426 42.6547 27.8416 40.9735 28.3939 39.3248C29.3482 39.7106 29.7055 40.7624 29.5918 41.9887L29.5878 41.9928Z" fill="black"/>
<path d="M52.1741 39.4995C51.5244 40.5594 51.3335 41.7249 51.4837 42.9431C51.6259 44.0842 52.0766 45.0872 52.9253 45.8872C53.5345 46.4598 54.2532 46.7846 55.0979 46.8212C55.4999 46.8374 55.5364 46.8131 55.6177 46.4192C55.8045 45.5055 55.8816 44.5796 55.906 43.5482C55.8897 43.2923 55.8735 42.935 55.8491 42.5817C55.7395 40.9899 55.3456 39.467 54.7243 38.0011C54.6349 37.7899 54.5375 37.7371 54.306 37.8062C53.3639 38.0904 52.6776 38.6833 52.1741 39.5036V39.4995Z" fill="#00D433"/>
<path d="M36.4142 51.6008C34.7046 50.1511 32.3127 50.6181 30.8793 52.2099C30.7493 52.352 30.7981 52.4455 30.8955 52.5632C31.2204 52.9571 31.5655 53.3348 31.931 53.6921C33.4132 55.1418 35.135 56.2139 37.0883 56.9123C37.4212 57.0342 37.4294 57.0301 37.5512 56.7052C37.7623 56.1327 37.872 55.5439 37.8761 54.8088C37.8436 53.6231 37.4415 52.4658 36.4142 51.5967V51.6008Z" fill="#00D433"/>
<path d="M27.7362 44.3928C28.6864 44.1572 29.4783 43.1177 29.5839 41.9969C29.6976 40.7705 29.3402 39.7147 28.3859 39.333C27.8377 40.9817 27.6347 42.6628 27.7321 44.3968L27.7362 44.3928Z" fill="#00D433"/>
<path d="M37.9733 45.2455C40.1661 45.2252 41.9123 43.4547 41.9042 41.2578C41.896 39.0731 40.1133 37.2945 37.9327 37.3026C35.752 37.3107 33.9734 39.0975 33.9734 41.2741C33.9734 43.4791 35.7723 45.2618 37.9733 45.2455ZM37.9205 38.0741C39.6991 38.0579 41.1448 39.5035 41.1407 41.2944C41.1407 43.0649 39.7194 44.478 37.9408 44.478C36.1703 44.478 34.7409 43.0608 34.7368 41.2903C34.7328 39.5279 36.154 38.0904 37.9205 38.0741Z" fill="#010101"/>
<path d="M45.6322 55.8972C47.2484 55.9093 48.5641 54.6342 48.5804 53.0465C48.5966 51.4059 47.3256 50.0983 45.6931 50.0902C44.0769 50.0821 42.7856 51.3531 42.7734 52.9612C42.7612 54.5733 44.0363 55.885 45.6322 55.8972ZM45.6485 50.8536C46.8586 50.8455 47.8169 51.7917 47.8169 52.9896C47.8169 54.1835 46.8464 55.1459 45.6485 55.1337C44.4668 55.1256 43.5368 54.1794 43.5368 52.9896C43.5368 51.7957 44.4586 50.8617 45.6485 50.8536Z" fill="#010101"/>
<path d="M46.6716 38.2041C47.5569 38.1919 48.2878 37.4528 48.2919 36.5676C48.3 35.6579 47.565 34.9189 46.6473 34.9148C45.7295 34.9108 45.0067 35.6417 45.0108 36.5676C45.0148 37.4812 45.762 38.2203 46.6676 38.2081L46.6716 38.2041ZM46.6554 35.6864C47.1427 35.6864 47.5447 36.0924 47.5285 36.5716C47.5163 37.0346 47.1264 37.4203 46.6635 37.4325C46.1803 37.4447 45.7783 37.0467 45.7783 36.5554C45.7783 36.0518 46.1437 35.6823 46.6554 35.6823V35.6864Z" fill="#010101"/>
<path d="M38.3592 33.453C38.6435 33.4611 38.8993 33.2175 38.9115 32.9332C38.9196 32.6733 38.7207 32.45 38.4648 32.4337C38.1806 32.4134 37.8923 32.6571 37.8841 32.921C37.876 33.2012 38.0953 33.4449 38.3592 33.453Z" fill="#080808"/>
<path d="M40.2271 47.8893C39.9632 47.8771 39.6708 48.1492 39.6748 48.4131C39.6748 48.6365 39.9347 48.8882 40.1662 48.9004C40.422 48.9085 40.6657 48.6649 40.6738 48.3928C40.6819 48.1289 40.4829 47.9015 40.2271 47.8893Z" fill="#090909"/>
<path d="M37.9413 44.474C39.7199 44.474 41.1372 43.0649 41.1412 41.2903C41.1412 39.4995 39.6996 38.0539 37.921 38.0701C36.1545 38.0864 34.7333 39.5239 34.7373 41.2863C34.7414 43.0527 36.1667 44.47 37.9413 44.474Z" fill="#00D433"/>
<path d="M45.6523 55.1377C46.8462 55.1458 47.8207 54.1834 47.8207 52.9936C47.8207 51.7956 46.8583 50.8495 45.6523 50.8576C44.4625 50.8657 43.5406 51.7997 43.5406 52.9936C43.5406 54.1834 44.4746 55.1255 45.6523 55.1377Z" fill="#00D433"/>
<path d="M50.1552 20.8854C50.3824 20.7155 50.4726 20.4635 50.3925 20.1904C50.3561 20.0652 50.2969 19.9472 50.2288 19.8344C49.9908 19.4377 49.6787 19.0987 49.3548 18.7754C48.3989 17.8175 47.3334 17.0004 46.1446 16.3471C45.9829 16.2584 45.9245 16.1727 45.942 15.9806C46.0468 14.7564 45.7533 13.6279 45.0919 12.5805C44.3707 11.502 43.3961 10.7338 42.1409 10.3635C40.3918 9.84559 38.7699 10.1374 37.2946 11.2101C37.1648 11.3058 37.072 11.3207 36.9277 11.2518C36.0084 10.8068 35.06 10.4354 34.1013 10.0877C33.6207 9.91164 33.1269 9.78499 32.6133 9.7533C32.2914 9.73326 32.0114 9.83227 31.7897 10.0736C31.4528 10.4412 31.4002 10.9908 31.664 11.4322C31.8222 11.696 32.0258 11.9246 32.2514 12.1345C33.0606 12.8847 33.95 13.526 34.9088 14.0704C35.0023 14.1239 35.0971 14.1795 35.1951 14.2304C35.2549 14.2615 35.2826 14.2992 35.2602 14.3689C35.2453 14.4103 35.241 14.4545 35.2332 14.4978C34.9505 16.0963 35.2533 17.5715 36.2695 18.8408C37.6877 20.6149 39.5499 21.2615 41.771 20.8086C42.8108 20.5992 43.6925 20.0693 44.4353 19.3092C44.599 19.1431 44.56 19.1686 44.7441 19.2652C45.3795 19.5906 46.0095 19.9221 46.6491 20.2391C47.2838 20.553 47.9357 20.8241 48.6195 21.0111C48.9174 21.0928 49.2166 21.1409 49.5261 21.1084C49.7539 21.0843 49.968 21.0263 50.1565 20.8876L50.1552 20.8854ZM41.9253 10.667C43.2449 11.0509 44.2747 11.8319 44.9384 13.0331C45.8422 14.6657 45.8377 16.3273 44.9752 17.986C44.9628 18.011 44.9434 18.0342 44.917 18.0763C44.7856 18.0089 44.6686 17.9511 44.5527 17.8898C41.7322 16.4776 38.9839 14.9372 36.2722 13.331C36.2542 13.3205 36.235 13.3078 36.217 13.2973C36.1128 13.2341 36.0921 13.1465 36.1549 13.0347C37.2799 11.0245 39.7159 10.0239 41.9288 10.6679L41.9253 10.667ZM45.6763 17.2828C46.032 17.4803 46.3592 17.6852 46.6723 17.9072C47.1756 18.2672 47.6434 18.6744 48.0959 19.0964C48.1819 19.1781 48.2522 19.2688 48.3125 19.3682C48.3371 19.4108 48.3838 19.4554 48.3439 19.5053C48.3086 19.5526 48.2469 19.5285 48.2001 19.5197C48.1006 19.5025 48.0009 19.4796 47.902 19.4531C47.6267 19.3793 47.3653 19.2676 47.1048 19.1525C46.5126 18.8916 45.9366 18.5916 45.3577 18.3022C45.261 18.2536 45.2493 18.2126 45.3005 18.1204C45.4494 17.8614 45.5648 17.5859 45.6727 17.2819L45.6763 17.2828ZM35.7579 12.9984C35.1807 12.7169 33.1817 11.2184 32.9757 10.8927C34.1864 11.1188 35.2244 11.6712 36.3144 12.143C36.1089 12.4227 35.9172 12.7005 35.7579 12.9984ZM38.4805 20.1483C36.1261 19.0936 35.1168 16.5702 35.6157 14.4679C38.5012 15.941 41.3873 17.4048 44.2184 18.9749C43.2423 20.1681 40.886 21.2241 38.4828 20.147L38.4805 20.1483ZM49.818 20.6683C49.5979 20.7626 49.3656 20.7684 49.1315 20.7454C48.9125 20.7227 48.7007 20.6659 48.493 20.6008C47.8806 20.4083 47.2923 20.1542 46.7151 19.8728C45.0858 19.0768 43.5116 18.1745 41.9148 17.321C40.0022 16.2978 38.0594 15.3308 36.1331 14.3304C35.0254 13.7555 33.9581 13.1214 32.9987 12.3177C32.6867 12.0562 32.3778 11.79 32.1235 11.4683C31.9368 11.233 31.8037 10.9816 31.8737 10.6637C31.9519 10.3082 32.2135 10.0945 32.5767 10.1086C32.9572 10.1217 33.3304 10.2046 33.6873 10.3267C34.7367 10.6817 35.762 11.0983 36.7771 11.5387C36.789 11.5437 36.799 11.5559 36.8234 11.5775C36.6414 11.7861 36.4334 11.8375 36.1994 11.7319C35.6354 11.4787 35.094 11.1766 34.5094 10.9651C34.1178 10.8242 33.7264 10.6891 33.3212 10.5918C33.1861 10.5594 33.0491 10.5341 32.9104 10.5574C32.6664 10.5999 32.5582 10.7847 32.6305 11.0234C32.678 11.178 32.7896 11.2836 32.9023 11.3857C33.0468 11.5171 33.2044 11.635 33.3588 11.7577C34.7413 12.8602 36.254 13.7593 37.7848 14.633C39.896 15.8399 42.0154 17.0302 44.1975 18.1067C45.0864 18.5454 45.9469 19.0333 46.8541 19.4315C47.2215 19.5923 47.5867 19.7545 47.981 19.8431C48.1007 19.8695 48.2248 19.8933 48.3495 19.887C48.6347 19.8745 48.7679 19.7021 48.7173 19.418C48.7015 19.3287 48.6656 19.251 48.6194 19.1762C48.5215 19.0119 48.3927 18.8714 48.253 18.7432C47.5415 18.0947 46.7955 17.49 45.9511 17.0197C45.7798 16.9247 45.783 16.9198 45.8242 16.7379C45.8333 16.6968 45.8469 16.6532 45.8611 16.6002C46.1074 16.7117 46.3276 16.8501 46.5455 16.9898C47.5352 17.6239 48.4593 18.3406 49.2657 19.1999C49.4895 19.4377 49.7146 19.6777 49.8845 19.9616C49.9284 20.0377 49.9723 20.1138 50.006 20.1928C50.1009 20.4244 50.0445 20.5644 49.8119 20.6629L49.818 20.6683Z" fill="black" stroke="black" stroke-width="0.250001" stroke-miterlimit="10"/>
<path d="M36.2112 13.2976C36.2292 13.3081 36.2485 13.3209 36.2665 13.3314C38.9782 14.9376 41.7278 16.4802 44.5469 17.8901C44.6639 17.9479 44.7799 18.0093 44.9112 18.0766C44.9377 18.0345 44.9571 18.0114 44.9695 17.9863C45.8333 16.3299 45.8365 14.666 44.9327 13.0335C44.269 11.8322 43.2392 11.0512 41.9195 10.6674C39.7067 10.0233 37.2694 11.0217 36.1456 13.0341C36.0829 13.146 36.1036 13.2335 36.2077 13.2967L36.2112 13.2976Z" fill="white" stroke="black" stroke-width="0.250001" stroke-miterlimit="10"/>
<path d="M35.6126 14.4727C35.1136 16.575 36.1264 19.0994 38.4773 20.1531C40.8806 21.2302 43.2368 20.1742 44.213 18.981C41.3828 17.4074 38.4958 15.9471 35.6103 14.474L35.6126 14.4727Z" fill="white" stroke="black" stroke-width="0.250001" stroke-miterlimit="10"/>
<path d="M50.0115 20.2017C49.9778 20.1227 49.9361 20.0453 49.8899 19.9705C49.7201 19.6866 49.4949 19.4466 49.2711 19.2088C48.4669 18.3483 47.5429 17.6315 46.551 16.9988C46.333 16.859 46.1093 16.7196 45.8665 16.6092C45.8501 16.6634 45.8387 16.7058 45.8296 16.7468C45.7862 16.93 45.7853 16.9336 45.9565 17.0287C46.8009 17.4989 47.5469 18.1036 48.2585 18.7521C48.3982 18.8803 48.527 19.0208 48.6248 19.1851C48.6688 19.2612 48.7069 19.3376 48.7227 19.427C48.7721 19.7088 48.6388 19.8812 48.3549 19.8959C48.2303 19.9022 48.1084 19.8771 47.9865 19.8521C47.5934 19.7657 47.2247 19.6026 46.8596 19.4404C45.9524 19.0422 45.0905 18.5521 44.203 18.1157C42.0209 17.0391 39.9037 15.8476 37.7903 14.6419C36.2594 13.7682 34.7467 12.8692 33.3642 11.7666C33.2098 11.6439 33.0522 11.526 32.9077 11.3946C32.7951 11.2926 32.6834 11.187 32.6359 11.0324C32.5637 10.7936 32.6719 10.6088 32.9159 10.5664C33.0546 10.543 33.1916 10.5684 33.3267 10.6008C33.7306 10.6958 34.1232 10.8331 34.5149 10.974C35.0995 11.1855 35.6409 11.4876 36.2049 11.7409C36.438 11.845 36.646 11.7935 36.8289 11.5865C36.8044 11.5648 36.7944 11.5527 36.7826 11.5476C35.7674 11.1072 34.7421 10.6906 33.6928 10.3357C33.3336 10.2148 32.9627 10.1306 32.5822 10.1175C32.219 10.1034 31.9565 10.3206 31.8792 10.6726C31.8091 10.9905 31.9423 11.2419 32.1289 11.4773C32.3855 11.7976 32.6921 12.0652 33.0042 12.3266C33.9636 13.1304 35.0308 13.7644 36.1385 14.3393C38.0626 15.341 40.0064 16.3045 41.9203 17.33C43.5184 18.1857 45.0913 19.0858 46.7205 19.8817C47.2978 20.1631 47.8848 20.415 48.4985 20.6097C48.7062 20.6748 48.918 20.7316 49.137 20.7543C49.3723 20.7796 49.6034 20.7715 49.8235 20.6772C50.0561 20.5787 50.1125 20.4388 50.0176 20.2071L50.0115 20.2017Z" fill="url(#paint0_linear_1_456)" stroke="black" stroke-width="0.250001" stroke-miterlimit="10"/>
<path d="M18.2324 40.4126C19.8737 40.4126 21.2042 39.0822 21.2042 37.4409C21.2042 35.7997 19.8737 34.4692 18.2324 34.4692C16.5912 34.4692 15.2607 35.7997 15.2607 37.4409C15.2607 39.0822 16.5912 40.4126 18.2324 40.4126Z" fill="url(#paint1_linear_1_456)" stroke="black" stroke-width="0.500001" stroke-miterlimit="10"/>
<circle cx="14.5462" cy="13.7116" r="10.7116" fill="white" stroke="black"/>
<mask id="path-18-inside-1_1_456" fill="white">
<path fill-rule="evenodd" clip-rule="evenodd" d="M8.43417 22.8326C8.63324 22.9682 8.63487 22.9666 8.80131 22.7917C9.15375 22.4191 9.57473 22.2393 10.0904 22.3423C10.1186 22.3481 10.147 22.3536 10.1754 22.3592C10.2995 22.3835 10.4242 22.4079 10.5423 22.4518C10.8181 22.5531 11.0612 22.5335 11.2815 22.3259C11.3099 22.2985 11.3436 22.2763 11.3772 22.2542C11.3997 22.2394 11.4222 22.2246 11.443 22.2083C11.6747 22.0334 11.9342 21.9598 12.2246 21.9827L12.2636 21.9857C12.4609 22.001 12.6569 22.0161 12.8528 22.0514C13.1286 22.1004 13.406 22.1004 13.6736 21.9958C13.7584 21.9631 13.84 21.9239 13.8482 21.816C13.858 21.6951 13.7829 21.6346 13.685 21.5921C13.6729 21.587 13.6611 21.5812 13.6494 21.5754C13.6309 21.5663 13.6126 21.5572 13.5936 21.5512C13.0747 21.378 12.551 21.2424 11.9946 21.3241C11.9374 21.3326 11.8803 21.3416 11.8232 21.3507C11.6274 21.3818 11.4316 21.4129 11.2358 21.4205C10.0969 21.4597 9.10807 21.1378 8.42112 20.1653C8.21716 19.876 7.97566 19.6439 7.66727 19.4756C7.47024 19.3677 7.27596 19.2543 7.08168 19.141C7.01693 19.1032 6.95217 19.0654 6.88732 19.0278C6.70457 18.9232 6.52182 18.8153 6.36191 18.6748C5.75165 18.1436 5.61459 17.2529 6.04046 16.586C6.3048 16.1709 6.65725 16.0369 7.12555 16.1807C7.25282 16.2199 7.38009 16.2624 7.49758 16.3229C8.01483 16.5844 8.56308 16.7625 9.11786 16.9227C9.25054 16.4974 8.83919 15.8477 8.61692 15.576C8.12578 15.3701 7.6379 15.1543 7.15655 14.9271C6.77636 14.7474 6.38802 14.7278 5.98662 14.8046C5.69944 14.8585 5.47263 15.0023 5.30457 15.2442C5.22564 15.357 5.19699 15.4851 5.16817 15.614C5.16064 15.6477 5.1531 15.6814 5.14466 15.7149C5.01086 16.2445 4.70573 16.5779 4.13627 16.6204C4.1091 16.6224 4.08255 16.6281 4.05471 16.6341C4.0374 16.6379 4.0196 16.6417 4.00084 16.6449C3.9963 16.6624 3.99253 16.6748 3.98974 16.6839C3.98551 16.6978 3.98353 16.7043 3.98452 16.7102C3.98941 16.7429 3.99594 16.7756 4.00573 16.8083C4.78732 19.3318 6.26401 21.3437 8.44233 22.8359L8.43417 22.8326ZM19.0794 17.4245C18.7139 17.5895 18.3582 17.7693 18.0155 17.9769C18.2962 17.7301 18.8797 16.9933 18.9685 16.0205C19.4236 15.8112 19.9009 15.6676 20.3781 15.524C20.6759 15.4344 20.9737 15.3448 21.2659 15.2393C21.4748 15.1641 21.6967 15.138 21.9202 15.1331C22.2531 15.1265 22.4962 15.2573 22.6349 15.5711C22.7834 15.9061 22.9319 16.2412 23.0428 16.5909C23.0493 16.6122 23.0566 16.6333 23.0638 16.6543C23.0784 16.6964 23.0929 16.7386 23.1016 16.7822C23.2517 17.5144 23.689 17.8968 24.4444 17.918C24.8674 17.9297 24.8393 17.9845 24.7202 18.2166C24.7061 18.2442 24.6906 18.2742 24.6745 18.307C22.9514 21.8013 20.1694 23.8917 16.3414 24.5846C16.2876 24.5944 16.2321 24.5993 16.1766 24.6026C16.1635 24.6036 16.1504 24.6003 16.1308 24.5953C16.1186 24.5921 16.104 24.5884 16.0852 24.5846C16.1162 24.3264 16.2125 24.1041 16.4165 23.9358C16.5156 23.8541 16.6227 23.7804 16.7293 23.7071C16.7507 23.6924 16.7721 23.6776 16.7934 23.6629C17.1997 23.3801 17.5587 23.0451 17.8018 22.6136C18.1934 21.9157 18.7563 21.4401 19.489 21.1247C20.5724 20.6572 21.1892 19.7747 21.5335 18.6748C21.6085 18.4361 21.6167 18.1926 21.5514 17.9507C21.372 17.2937 20.902 16.9848 20.2216 17.0763C19.8235 17.1303 19.4449 17.2594 19.0794 17.4245ZM19.3878 12.9643C18.7465 13.368 18.0677 13.6948 17.371 13.9874C16.4116 13.9874 16.25 13.7074 16.2892 13.5674C17.1148 13.3189 17.8573 12.894 18.5703 12.4184C18.7302 12.3105 18.8444 12.1585 18.9277 11.9853C19.1447 11.5375 18.8885 10.9965 18.4039 10.8837C18.195 10.8347 17.9845 10.8461 17.774 10.8739C17.7528 10.8768 17.7315 10.8794 17.7101 10.8821C17.6213 10.8932 17.5316 10.9045 17.4461 10.9295C16.8489 11.0995 16.3333 10.8903 15.8356 10.5912C15.7197 10.5209 15.6218 10.4294 15.55 10.315C15.3298 9.96357 15.0099 9.73149 14.651 9.5419C14.4943 9.46018 14.3377 9.37356 14.1876 9.27877C14.1779 9.27288 14.1681 9.26706 14.1581 9.26119C14.0769 9.21333 13.9894 9.16172 13.9705 9.03361C14.2088 8.94699 14.4388 9.01073 14.6542 9.0712C15.2318 9.23464 15.8176 9.35885 16.405 9.4798C16.6449 9.53046 16.8766 9.60401 17.1018 9.70207C17.5064 9.87695 17.9291 9.9554 18.368 9.93905C19.0337 9.91454 19.6962 9.92271 20.3587 10.0404C20.9379 10.1434 21.4829 10.0044 21.9757 9.67429C22.304 9.46484 23.0529 9.22751 23.4214 9.95376C23.064 10.3427 23.0673 10.7366 23.4165 11.1338C23.4605 11.1841 23.5104 11.2296 23.5603 11.2749C23.601 11.312 23.6418 11.349 23.6792 11.3887C23.8489 11.5685 23.8521 11.6846 23.7086 11.8905C23.5862 12.067 23.423 12.1732 23.2076 12.1765C22.7328 12.183 22.2873 12.3171 21.85 12.4805C21.6428 12.5573 21.4356 12.5639 21.23 12.4985C20.8727 12.3841 20.5284 12.4298 20.1873 12.5557C19.9034 12.6586 19.6407 12.8041 19.3878 12.9643ZM16.0211 3.64262C16.1975 3.66892 16.3759 3.69552 16.5503 3.73662C17.1808 4.46864 16.9642 4.99501 16.7771 5.1667C16.4018 5.28927 16.237 5.55895 16.3414 5.93975C16.382 6.08808 16.4383 6.23148 16.4948 6.37503C16.5359 6.47981 16.5772 6.58467 16.6123 6.69156C16.6202 6.71521 16.6287 6.73885 16.6371 6.76258C16.6878 6.90446 16.7395 7.0491 16.6906 7.21293C16.5176 7.21605 16.3758 7.14162 16.2383 7.06942L16.219 7.0593C15.9433 6.91547 15.6691 6.76838 15.4032 6.60821C14.9137 6.31402 14.3866 6.18001 13.8172 6.18001C13.0845 6.18001 12.3845 6.02474 11.7253 5.70114L11.688 5.68282C11.6007 5.64007 11.513 5.59716 11.4316 5.54424C11.416 5.53427 11.399 5.52456 11.3817 5.51465C11.2997 5.46767 11.2101 5.41637 11.2195 5.31379C11.2265 5.23679 11.2983 5.21225 11.3697 5.18787C11.3984 5.1781 11.4269 5.16835 11.4512 5.15526C11.4793 5.1404 11.5077 5.12592 11.5361 5.11143C11.6264 5.06535 11.7168 5.01921 11.7987 4.96077C12.161 4.70254 12.1985 4.40998 11.9325 4.04879C11.7661 3.82161 11.5328 3.70557 11.2701 3.63366C11.1491 3.60066 11.0259 3.5785 10.8991 3.55571C10.6993 3.51979 10.4908 3.48229 10.2682 3.39831C11.8461 2.72495 13.4386 2.44384 15.1062 2.50921C15.1081 2.52269 15.1099 2.53484 15.1116 2.54601C15.1159 2.57413 15.1193 2.59603 15.1193 2.61708C15.0899 3.22997 15.351 3.54213 15.9612 3.63366L16.0211 3.64262ZM10.6413 11.7466C10.675 11.7631 10.7086 11.7795 10.7398 11.8006C10.9345 12.2855 11.1764 13.3889 10.5864 13.9236C10.2845 13.6213 9.93371 13.3876 9.55842 13.1915C9.04606 12.9218 8.5125 12.7093 7.95119 12.5606C7.87809 12.5413 7.80505 12.5218 7.73202 12.5023C7.10736 12.3358 6.48403 12.1696 5.83977 12.0964C5.56238 12.0654 5.28825 12.0539 5.01086 12.1013C4.79874 12.1373 4.78895 12.1275 4.78242 11.9052C4.77916 11.8055 4.78732 11.7058 4.79874 11.6061C4.85422 11.1354 4.75305 10.954 4.34023 10.7562C4.29977 10.7374 4.25233 10.7264 4.20535 10.7156C4.11404 10.6945 4.02444 10.6738 3.99105 10.5961C3.95084 10.5013 3.99547 10.398 4.03924 10.2966C4.05587 10.2581 4.07237 10.2199 4.08405 10.1826C4.20317 9.80013 4.34676 9.4275 4.51319 9.06303C4.51539 9.05815 4.51755 9.05324 4.51971 9.04832C4.53998 9.00213 4.56074 8.95481 4.62414 8.92084C4.72307 8.97694 4.823 9.03303 4.92351 9.08945C5.13633 9.20892 5.35174 9.32984 5.56564 9.45528C5.79897 9.59257 5.98662 9.78215 6.14653 9.99789C6.25748 10.1499 6.36681 10.3052 6.46634 10.4653C6.81879 11.0308 7.34093 11.3315 7.98219 11.4508C8.47823 11.5424 8.97753 11.5456 9.4752 11.4917C9.86518 11.4492 10.2258 11.5064 10.5635 11.7058C10.5886 11.7209 10.6149 11.7337 10.6413 11.7466Z"/>
</mask>
<path fill-rule="evenodd" clip-rule="evenodd" d="M8.43417 22.8326C8.63324 22.9682 8.63487 22.9666 8.80131 22.7917C9.15375 22.4191 9.57473 22.2393 10.0904 22.3423C10.1186 22.3481 10.147 22.3536 10.1754 22.3592C10.2995 22.3835 10.4242 22.4079 10.5423 22.4518C10.8181 22.5531 11.0612 22.5335 11.2815 22.3259C11.3099 22.2985 11.3436 22.2763 11.3772 22.2542C11.3997 22.2394 11.4222 22.2246 11.443 22.2083C11.6747 22.0334 11.9342 21.9598 12.2246 21.9827L12.2636 21.9857C12.4609 22.001 12.6569 22.0161 12.8528 22.0514C13.1286 22.1004 13.406 22.1004 13.6736 21.9958C13.7584 21.9631 13.84 21.9239 13.8482 21.816C13.858 21.6951 13.7829 21.6346 13.685 21.5921C13.6729 21.587 13.6611 21.5812 13.6494 21.5754C13.6309 21.5663 13.6126 21.5572 13.5936 21.5512C13.0747 21.378 12.551 21.2424 11.9946 21.3241C11.9374 21.3326 11.8803 21.3416 11.8232 21.3507C11.6274 21.3818 11.4316 21.4129 11.2358 21.4205C10.0969 21.4597 9.10807 21.1378 8.42112 20.1653C8.21716 19.876 7.97566 19.6439 7.66727 19.4756C7.47024 19.3677 7.27596 19.2543 7.08168 19.141C7.01693 19.1032 6.95217 19.0654 6.88732 19.0278C6.70457 18.9232 6.52182 18.8153 6.36191 18.6748C5.75165 18.1436 5.61459 17.2529 6.04046 16.586C6.3048 16.1709 6.65725 16.0369 7.12555 16.1807C7.25282 16.2199 7.38009 16.2624 7.49758 16.3229C8.01483 16.5844 8.56308 16.7625 9.11786 16.9227C9.25054 16.4974 8.83919 15.8477 8.61692 15.576C8.12578 15.3701 7.6379 15.1543 7.15655 14.9271C6.77636 14.7474 6.38802 14.7278 5.98662 14.8046C5.69944 14.8585 5.47263 15.0023 5.30457 15.2442C5.22564 15.357 5.19699 15.4851 5.16817 15.614C5.16064 15.6477 5.1531 15.6814 5.14466 15.7149C5.01086 16.2445 4.70573 16.5779 4.13627 16.6204C4.1091 16.6224 4.08255 16.6281 4.05471 16.6341C4.0374 16.6379 4.0196 16.6417 4.00084 16.6449C3.9963 16.6624 3.99253 16.6748 3.98974 16.6839C3.98551 16.6978 3.98353 16.7043 3.98452 16.7102C3.98941 16.7429 3.99594 16.7756 4.00573 16.8083C4.78732 19.3318 6.26401 21.3437 8.44233 22.8359L8.43417 22.8326ZM19.0794 17.4245C18.7139 17.5895 18.3582 17.7693 18.0155 17.9769C18.2962 17.7301 18.8797 16.9933 18.9685 16.0205C19.4236 15.8112 19.9009 15.6676 20.3781 15.524C20.6759 15.4344 20.9737 15.3448 21.2659 15.2393C21.4748 15.1641 21.6967 15.138 21.9202 15.1331C22.2531 15.1265 22.4962 15.2573 22.6349 15.5711C22.7834 15.9061 22.9319 16.2412 23.0428 16.5909C23.0493 16.6122 23.0566 16.6333 23.0638 16.6543C23.0784 16.6964 23.0929 16.7386 23.1016 16.7822C23.2517 17.5144 23.689 17.8968 24.4444 17.918C24.8674 17.9297 24.8393 17.9845 24.7202 18.2166C24.7061 18.2442 24.6906 18.2742 24.6745 18.307C22.9514 21.8013 20.1694 23.8917 16.3414 24.5846C16.2876 24.5944 16.2321 24.5993 16.1766 24.6026C16.1635 24.6036 16.1504 24.6003 16.1308 24.5953C16.1186 24.5921 16.104 24.5884 16.0852 24.5846C16.1162 24.3264 16.2125 24.1041 16.4165 23.9358C16.5156 23.8541 16.6227 23.7804 16.7293 23.7071C16.7507 23.6924 16.7721 23.6776 16.7934 23.6629C17.1997 23.3801 17.5587 23.0451 17.8018 22.6136C18.1934 21.9157 18.7563 21.4401 19.489 21.1247C20.5724 20.6572 21.1892 19.7747 21.5335 18.6748C21.6085 18.4361 21.6167 18.1926 21.5514 17.9507C21.372 17.2937 20.902 16.9848 20.2216 17.0763C19.8235 17.1303 19.4449 17.2594 19.0794 17.4245ZM19.3878 12.9643C18.7465 13.368 18.0677 13.6948 17.371 13.9874C16.4116 13.9874 16.25 13.7074 16.2892 13.5674C17.1148 13.3189 17.8573 12.894 18.5703 12.4184C18.7302 12.3105 18.8444 12.1585 18.9277 11.9853C19.1447 11.5375 18.8885 10.9965 18.4039 10.8837C18.195 10.8347 17.9845 10.8461 17.774 10.8739C17.7528 10.8768 17.7315 10.8794 17.7101 10.8821C17.6213 10.8932 17.5316 10.9045 17.4461 10.9295C16.8489 11.0995 16.3333 10.8903 15.8356 10.5912C15.7197 10.5209 15.6218 10.4294 15.55 10.315C15.3298 9.96357 15.0099 9.73149 14.651 9.5419C14.4943 9.46018 14.3377 9.37356 14.1876 9.27877C14.1779 9.27288 14.1681 9.26706 14.1581 9.26119C14.0769 9.21333 13.9894 9.16172 13.9705 9.03361C14.2088 8.94699 14.4388 9.01073 14.6542 9.0712C15.2318 9.23464 15.8176 9.35885 16.405 9.4798C16.6449 9.53046 16.8766 9.60401 17.1018 9.70207C17.5064 9.87695 17.9291 9.9554 18.368 9.93905C19.0337 9.91454 19.6962 9.92271 20.3587 10.0404C20.9379 10.1434 21.4829 10.0044 21.9757 9.67429C22.304 9.46484 23.0529 9.22751 23.4214 9.95376C23.064 10.3427 23.0673 10.7366 23.4165 11.1338C23.4605 11.1841 23.5104 11.2296 23.5603 11.2749C23.601 11.312 23.6418 11.349 23.6792 11.3887C23.8489 11.5685 23.8521 11.6846 23.7086 11.8905C23.5862 12.067 23.423 12.1732 23.2076 12.1765C22.7328 12.183 22.2873 12.3171 21.85 12.4805C21.6428 12.5573 21.4356 12.5639 21.23 12.4985C20.8727 12.3841 20.5284 12.4298 20.1873 12.5557C19.9034 12.6586 19.6407 12.8041 19.3878 12.9643ZM16.0211 3.64262C16.1975 3.66892 16.3759 3.69552 16.5503 3.73662C17.1808 4.46864 16.9642 4.99501 16.7771 5.1667C16.4018 5.28927 16.237 5.55895 16.3414 5.93975C16.382 6.08808 16.4383 6.23148 16.4948 6.37503C16.5359 6.47981 16.5772 6.58467 16.6123 6.69156C16.6202 6.71521 16.6287 6.73885 16.6371 6.76258C16.6878 6.90446 16.7395 7.0491 16.6906 7.21293C16.5176 7.21605 16.3758 7.14162 16.2383 7.06942L16.219 7.0593C15.9433 6.91547 15.6691 6.76838 15.4032 6.60821C14.9137 6.31402 14.3866 6.18001 13.8172 6.18001C13.0845 6.18001 12.3845 6.02474 11.7253 5.70114L11.688 5.68282C11.6007 5.64007 11.513 5.59716 11.4316 5.54424C11.416 5.53427 11.399 5.52456 11.3817 5.51465C11.2997 5.46767 11.2101 5.41637 11.2195 5.31379C11.2265 5.23679 11.2983 5.21225 11.3697 5.18787C11.3984 5.1781 11.4269 5.16835 11.4512 5.15526C11.4793 5.1404 11.5077 5.12592 11.5361 5.11143C11.6264 5.06535 11.7168 5.01921 11.7987 4.96077C12.161 4.70254 12.1985 4.40998 11.9325 4.04879C11.7661 3.82161 11.5328 3.70557 11.2701 3.63366C11.1491 3.60066 11.0259 3.5785 10.8991 3.55571C10.6993 3.51979 10.4908 3.48229 10.2682 3.39831C11.8461 2.72495 13.4386 2.44384 15.1062 2.50921C15.1081 2.52269 15.1099 2.53484 15.1116 2.54601C15.1159 2.57413 15.1193 2.59603 15.1193 2.61708C15.0899 3.22997 15.351 3.54213 15.9612 3.63366L16.0211 3.64262ZM10.6413 11.7466C10.675 11.7631 10.7086 11.7795 10.7398 11.8006C10.9345 12.2855 11.1764 13.3889 10.5864 13.9236C10.2845 13.6213 9.93371 13.3876 9.55842 13.1915C9.04606 12.9218 8.5125 12.7093 7.95119 12.5606C7.87809 12.5413 7.80505 12.5218 7.73202 12.5023C7.10736 12.3358 6.48403 12.1696 5.83977 12.0964C5.56238 12.0654 5.28825 12.0539 5.01086 12.1013C4.79874 12.1373 4.78895 12.1275 4.78242 11.9052C4.77916 11.8055 4.78732 11.7058 4.79874 11.6061C4.85422 11.1354 4.75305 10.954 4.34023 10.7562C4.29977 10.7374 4.25233 10.7264 4.20535 10.7156C4.11404 10.6945 4.02444 10.6738 3.99105 10.5961C3.95084 10.5013 3.99547 10.398 4.03924 10.2966C4.05587 10.2581 4.07237 10.2199 4.08405 10.1826C4.20317 9.80013 4.34676 9.4275 4.51319 9.06303C4.51539 9.05815 4.51755 9.05324 4.51971 9.04832C4.53998 9.00213 4.56074 8.95481 4.62414 8.92084C4.72307 8.97694 4.823 9.03303 4.92351 9.08945C5.13633 9.20892 5.35174 9.32984 5.56564 9.45528C5.79897 9.59257 5.98662 9.78215 6.14653 9.99789C6.25748 10.1499 6.36681 10.3052 6.46634 10.4653C6.81879 11.0308 7.34093 11.3315 7.98219 11.4508C8.47823 11.5424 8.97753 11.5456 9.4752 11.4917C9.86518 11.4492 10.2258 11.5064 10.5635 11.7058C10.5886 11.7209 10.6149 11.7337 10.6413 11.7466Z" fill="url(#paint2_linear_1_456)"/>
<path d="M11.8722 18.3544L12.0382 18.1675L12.0379 18.1672L11.8722 18.3544ZM12.6717 18.6028L12.7051 18.8506L12.7061 18.8505L12.6717 18.6028ZM13.1612 18.5113L13.0934 18.2707L13.0918 18.2712L13.1612 18.5113ZM14.6771 18.495L14.7278 18.2502L14.7272 18.2501L14.6771 18.495ZM17.9486 16.3131L17.9293 16.0638L17.9291 16.0639L17.9486 16.3131ZM16.3186 16.4063L16.3058 16.1566L16.3056 16.1566L16.3186 16.4063ZM15.7622 16.3229L15.6734 16.5566L15.6747 16.5571L15.7622 16.3229ZM15.4195 15.3815L15.2029 15.2566L15.2026 15.2571L15.4195 15.3815ZM16.1195 14.6787L16.2561 14.8881L16.2573 14.8873L16.1195 14.6787ZM23.4915 9.56315L23.7206 9.46295L23.7203 9.46225L23.4915 9.56315ZM23.3936 9.35232L23.6224 9.25141L23.6213 9.24893L23.3936 9.35232ZM23.5829 8.28507L23.7589 8.46263L23.7598 8.4617L23.5829 8.28507ZM23.8048 8.03828L23.5996 7.89544L23.599 7.89633L23.8048 8.03828ZM23.8048 7.36819L24.0121 7.22843L24.0119 7.22817L23.8048 7.36819ZM22.8829 6.18491L22.6953 6.35016L22.6961 6.35105L22.8829 6.18491ZM22.6055 6.08194L22.6399 6.32956L22.6401 6.32954L22.6055 6.08194ZM20.4386 5.54914L20.2829 5.74473L20.2831 5.74486L20.4386 5.54914ZM19.3927 5.0621L19.3482 5.30811L19.3484 5.30813L19.3927 5.0621ZM19.3869 4.108L19.5381 3.90888L19.5377 3.90861L19.3869 4.108ZM17.3367 5.13564L17.3783 4.88911L17.3772 4.88894L17.3367 5.13564ZM18.3859 5.54424L18.2543 5.7568L18.2548 5.75706L18.3859 5.54424ZM19.6293 6.49217L19.8042 6.31351L19.8039 6.31322L19.6293 6.49217ZM20.8775 7.2309L20.8053 7.47024L20.806 7.47046L20.8775 7.2309ZM21.3768 7.41559L21.4697 7.18347L21.469 7.18321L21.3768 7.41559ZM22.3738 8.46976L22.1382 8.55328L22.1383 8.55363L22.3738 8.46976ZM13.9836 13.229L13.8284 13.425L13.8285 13.4251L13.9836 13.229ZM13.2607 12.8989L13.2001 13.1414L13.2011 13.1417L13.2607 12.8989ZM11.0106 14.5921L11.2501 14.5204L11.2498 14.5194L11.0106 14.5921ZM10.7642 15.4649L10.9271 15.6545L10.7642 15.4649ZM9.84886 15.8162L9.86489 16.0657L9.86552 16.0657L9.84886 15.8162ZM23.4426 9.45773L23.6683 9.35029V9.35028L23.4426 9.45773ZM23.6053 8.26266L23.4288 8.08567L23.4288 8.08568L23.6053 8.26266ZM19.3397 4.6892L19.5446 4.83236V4.83236L19.3397 4.6892ZM17.4944 3.82165L17.4799 4.07124L17.4944 3.82165ZM21.3072 7.38782L21.3999 7.15566L21.3999 7.15566L21.3072 7.38782ZM9.04887 17.163C10.0387 17.4472 10.943 17.8659 11.7065 18.5416L12.0379 18.1672C11.2022 17.4276 10.2236 16.9801 9.18685 16.6824L9.04887 17.163ZM11.7062 18.5414C11.9887 18.7922 12.3269 18.9015 12.7051 18.8506L12.6384 18.3551C12.4096 18.3859 12.2158 18.3252 12.0382 18.1675L11.7062 18.5414ZM12.7061 18.8505C12.8673 18.8281 13.0521 18.8031 13.2307 18.7515L13.0918 18.2712C12.9538 18.311 12.8057 18.3318 12.6373 18.3552L12.7061 18.8505ZM13.2291 18.7519C13.683 18.6239 14.1412 18.6404 14.6269 18.7399L14.7272 18.2501C14.1915 18.1403 13.6478 18.1143 13.0934 18.2707L13.2291 18.7519ZM14.6263 18.7398C15.8535 18.9941 17.0407 18.8606 18.1452 18.1906L17.8859 17.7631C16.9051 18.3581 15.8503 18.4828 14.7278 18.2502L14.6263 18.7398ZM18.8639 15.7934C18.5549 15.9357 18.2458 16.0392 17.9293 16.0638L17.968 16.5623C18.3662 16.5314 18.7358 16.4029 19.073 16.2476L18.8639 15.7934ZM17.9291 16.0639C17.3918 16.106 16.8523 16.1286 16.3058 16.1566L16.3313 16.6559C16.8716 16.6283 17.422 16.6052 17.9682 16.5623L17.9291 16.0639ZM16.3056 16.1566C16.1482 16.1647 15.9949 16.143 15.8496 16.0887L15.6747 16.5571C15.8883 16.6369 16.1104 16.6674 16.3315 16.6559L16.3056 16.1566ZM15.8509 16.0892C15.6908 16.0283 15.6116 15.9377 15.5808 15.8537C15.5503 15.7706 15.5521 15.6528 15.6364 15.5059L15.2026 15.2571C15.0601 15.5057 15.0203 15.7777 15.1114 16.0259C15.2021 16.2734 15.4077 16.4557 15.6734 16.5566L15.8509 16.0892ZM15.6361 15.5064C15.78 15.2569 15.9963 15.0575 16.2561 14.8881L15.9829 14.4693C15.6814 14.666 15.3984 14.9178 15.2029 15.2566L15.6361 15.5064ZM16.2573 14.8873C16.6488 14.6286 17.0456 14.3958 17.4681 14.2178L17.2739 13.757C16.812 13.9516 16.3865 14.2026 15.9817 14.4702L16.2573 14.8873ZM23.6052 10.1232C23.6858 10.0358 23.7496 9.93207 23.7708 9.80713C23.7922 9.68175 23.7655 9.56554 23.7206 9.46295L23.2625 9.66335C23.2812 9.70622 23.2782 9.72157 23.2779 9.72327C23.2776 9.7254 23.2745 9.74428 23.2375 9.78434L23.6052 10.1232ZM23.6213 9.24893C23.5466 9.08448 23.5288 8.94643 23.5492 8.82819C23.5695 8.71066 23.6317 8.58866 23.7589 8.46263L23.4069 8.10752C23.2208 8.29201 23.0978 8.50424 23.0565 8.74301C23.0154 8.98106 23.0596 9.22137 23.166 9.4557L23.6213 9.24893ZM24.01 8.18113C24.1104 8.03687 24.184 7.88153 24.1833 7.70349C24.1826 7.52685 24.1089 7.37195 24.0121 7.22843L23.5975 7.50795C23.6705 7.61612 23.6832 7.67205 23.6833 7.70543C23.6834 7.73741 23.6722 7.79127 23.5997 7.89544L24.01 8.18113ZM24.0119 7.22817C23.7248 6.80341 23.4095 6.40084 23.0697 6.01877L22.6961 6.35105C23.022 6.71752 23.3236 7.10271 23.5977 7.50821L24.0119 7.22817ZM23.0705 6.01965C23.0248 5.96783 22.9603 5.9036 22.8655 5.86407C22.7683 5.82352 22.6685 5.82071 22.5709 5.83435L22.6401 6.32954C22.6618 6.32651 22.673 6.32684 22.6771 6.32718C22.6803 6.32744 22.6779 6.32757 22.6731 6.32556C22.6635 6.32158 22.6675 6.31864 22.6953 6.35016L23.0705 6.01965ZM22.5711 5.83432C21.8353 5.93656 21.1691 5.81031 20.5942 5.35341L20.2831 5.74486C20.9874 6.30454 21.7996 6.44633 22.6399 6.32956L22.5711 5.83432ZM20.5943 5.35354C20.2563 5.08446 19.8729 4.89461 19.437 4.81606L19.3484 5.30813C19.6925 5.37014 20.0009 5.52024 20.2829 5.74473L20.5943 5.35354ZM16.855 5.40425C16.9911 5.35961 17.1346 5.35582 17.2963 5.38235L17.3772 4.88894C17.1604 4.85337 16.9318 4.85284 16.6992 4.92915L16.855 5.40425ZM17.2952 5.38217C17.6366 5.43965 17.9522 5.56976 18.2543 5.7568L18.5175 5.33167C18.1702 5.11666 17.794 4.95912 17.3783 4.88911L17.2952 5.38217ZM18.2548 5.75706C18.6898 6.02519 19.0964 6.32155 19.4547 6.67113L19.8039 6.31322C19.4116 5.93059 18.973 5.61243 18.5171 5.33142L18.2548 5.75706ZM19.4544 6.67083C19.8405 7.04869 20.2901 7.31472 20.8053 7.47024L20.9498 6.99157C20.5121 6.85944 20.1328 6.63516 19.8042 6.31351L19.4544 6.67083ZM21.284 7.64771C21.7076 7.81716 21.9829 8.1151 22.1382 8.55328L22.6094 8.38623C22.4091 7.82091 22.0349 7.40953 21.4697 7.18347L21.284 7.64771ZM22.1383 8.55363C22.2239 8.79403 22.2282 8.95405 22.1886 9.07526C22.1491 9.19606 22.0513 9.32316 21.8368 9.46638L22.1145 9.88219C22.3798 9.70508 22.5765 9.49795 22.6639 9.23059C22.7511 8.96363 22.7146 8.68156 22.6093 8.38589L22.1383 8.55363ZM16.2173 13.3279C15.452 13.5579 14.7615 13.5257 14.1387 13.033L13.8285 13.4251C14.6188 14.0503 15.4947 14.0671 16.3611 13.8068L16.2173 13.3279ZM14.1388 13.0331C13.8904 12.8363 13.6 12.7248 13.3204 12.6561L13.2011 13.1417C13.4403 13.2005 13.6558 13.2884 13.8284 13.425L14.1388 13.0331ZM13.3214 12.6564C12.4438 12.437 11.6273 12.0931 10.8787 11.5928L10.6008 12.0084C11.4024 12.5442 12.2731 12.9097 13.2001 13.1414L13.3214 12.6564ZM10.4095 14.1003C10.5818 14.2729 10.7071 14.4529 10.7714 14.6648L11.2498 14.5194C11.1543 14.205 10.9728 13.9568 10.7633 13.747L10.4095 14.1003ZM10.7711 14.6638C10.812 14.8003 10.813 14.9109 10.7878 15.0025C10.7628 15.0932 10.7069 15.1846 10.6014 15.2752L10.9271 15.6545C11.0958 15.5097 11.2144 15.3364 11.2698 15.1353C11.3249 14.9352 11.312 14.7271 11.2501 14.5204L10.7711 14.6638ZM10.6014 15.2752C10.388 15.4583 10.1331 15.5467 9.83221 15.5668L9.86552 16.0657C10.25 16.04 10.615 15.9225 10.9271 15.6545L10.6014 15.2752ZM9.83283 15.5668C9.45132 15.5913 9.08322 15.5012 8.71403 15.3456L8.51982 15.8064C8.93385 15.9809 9.3816 16.0968 9.86489 16.0657L9.83283 15.5668ZM12.2829 21.7365C12.2699 21.7355 12.2569 21.7345 12.244 21.7335L12.2053 22.232C12.2183 22.233 12.2314 22.234 12.2444 22.235L12.2829 21.7365ZM23.7203 9.46225C23.7031 9.42326 23.6848 9.38486 23.6683 9.35029L23.2168 9.56518C23.2338 9.60088 23.249 9.63276 23.2628 9.66405L23.7203 9.46225ZM23.6683 9.35028C23.6513 9.31457 23.6362 9.2827 23.6224 9.25141L23.1649 9.45322C23.1821 9.49221 23.2004 9.53061 23.2169 9.56518L23.6683 9.35028ZM23.7598 8.4617C23.7671 8.45444 23.7744 8.44715 23.7819 8.43964L23.4288 8.08568C23.4213 8.09312 23.4136 8.10077 23.406 8.10844L23.7598 8.4617ZM23.7819 8.43964C23.8501 8.37164 23.9392 8.28369 24.0106 8.18023L23.599 7.89633C23.5582 7.95554 23.5031 8.01152 23.4288 8.08567L23.7819 8.43964ZM19.4372 4.81609C19.4134 4.81178 19.4007 4.80767 19.3958 4.80577C19.3907 4.80378 19.3987 4.80601 19.4116 4.81698C19.426 4.82921 19.4431 4.84962 19.4543 4.87851C19.4652 4.90671 19.4659 4.93136 19.4644 4.94648C19.4631 4.96027 19.4601 4.96657 19.4615 4.96307C19.4627 4.95991 19.4661 4.95237 19.4736 4.93936C19.4895 4.9116 19.512 4.87901 19.5446 4.83236L19.1347 4.54604C19.1056 4.58773 19.0691 4.63963 19.0399 4.69049C19.0128 4.73779 18.9749 4.81229 18.9666 4.89957C18.9566 5.00655 18.9929 5.11735 19.0877 5.19791C19.1653 5.2639 19.263 5.2927 19.3482 5.30811L19.4372 4.81609ZM19.5446 4.83236C19.6015 4.751 19.7037 4.61038 19.7421 4.45666C19.7634 4.37176 19.7689 4.27114 19.733 4.16661C19.697 4.06188 19.6273 3.97663 19.5381 3.90888L19.2358 4.30711C19.2637 4.32835 19.2629 4.33715 19.2602 4.3292C19.2575 4.32145 19.2608 4.32037 19.2571 4.33543C19.2527 4.35302 19.2416 4.38004 19.2187 4.41927C19.1958 4.45832 19.168 4.49835 19.1347 4.54604L19.5446 4.83236ZM19.5377 3.90861C19.4319 3.82853 19.2862 3.77988 19.1484 3.74589C19.0029 3.70999 18.8324 3.68274 18.6532 3.66101C18.2947 3.61756 17.8765 3.5934 17.5088 3.57207L17.4799 4.07124C17.8515 4.09279 18.2531 4.11619 18.593 4.15738C18.7629 4.17797 18.9111 4.20232 19.0286 4.23133C19.1539 4.26226 19.2156 4.29185 19.2361 4.30738L19.5377 3.90861ZM17.5088 3.57207C17.0839 3.54743 16.7527 3.52717 16.6071 3.49317L16.4934 3.98008C16.6928 4.02663 17.0835 4.04824 17.4799 4.07124L17.5088 3.57207ZM16.058 3.39535C16.038 3.39236 16.0182 3.38941 15.9984 3.38643L15.9241 3.88088C15.9442 3.8839 15.9643 3.8869 15.9843 3.88988L16.058 3.39535ZM11.5781 5.90736C11.5906 5.91348 11.6027 5.91944 11.6148 5.9254L11.8358 5.47687C11.823 5.47059 11.8103 5.46436 11.7979 5.45829L11.5781 5.90736ZM16.1031 7.28078C16.1093 7.28406 16.1156 7.28737 16.1221 7.29076L16.3545 6.84807C16.3481 6.84471 16.3416 6.84126 16.335 6.83781L16.1031 7.28078ZM20.806 7.47046C20.9392 7.51022 21.071 7.56267 21.2144 7.61998L21.3999 7.15566C21.26 7.09978 21.1074 7.03864 20.9491 6.99135L20.806 7.47046ZM21.2144 7.61998C21.2376 7.62924 21.2611 7.63863 21.2847 7.64797L21.469 7.18321C21.4461 7.17412 21.4232 7.16496 21.3999 7.15566L21.2144 7.61998ZM8.43417 22.8326L8.62029 22.3685L8.15261 23.2458L8.43417 22.8326ZM8.80131 22.7917L9.1635 23.1364L9.16456 23.1353L8.80131 22.7917ZM10.0904 22.3423L10.1906 21.8524L10.1883 21.852L10.0904 22.3423ZM10.5423 22.4518L10.3683 22.9205L10.3699 22.9211L10.5423 22.4518ZM11.2815 22.3259L11.6244 22.6899L11.6291 22.6854L11.2815 22.3259ZM11.443 22.2083L11.1418 21.8091L11.1349 21.8145L11.443 22.2083ZM12.2246 21.9827L12.1854 22.4812L12.1861 22.4812L12.2246 21.9827ZM12.8528 22.0514L12.7643 22.5435L12.7653 22.5436L12.8528 22.0514ZM13.6736 21.9958L13.4938 21.5292L13.4915 21.5301L13.6736 21.9958ZM13.8482 21.816L13.3498 21.7757L13.3496 21.7783L13.8482 21.816ZM13.685 21.5921L13.8841 21.1334L13.8793 21.1314L13.685 21.5921ZM13.5936 21.5512L13.4353 22.0256L13.4428 22.028L13.5936 21.5512ZM11.9946 21.3241L11.9219 20.8294L11.921 20.8295L11.9946 21.3241ZM11.2358 21.4205L11.253 21.9202L11.2552 21.9201L11.2358 21.4205ZM8.42112 20.1653L8.01248 20.4534L8.01274 20.4538L8.42112 20.1653ZM7.66727 19.4756L7.42716 19.9142L7.42771 19.9145L7.66727 19.4756ZM6.88732 19.0278L7.13804 18.5952L7.13569 18.5938L6.88732 19.0278ZM6.36191 18.6748L6.69201 18.2992L6.69018 18.2976L6.36191 18.6748ZM6.04046 16.586L6.46185 16.8552L6.46222 16.8546L6.04046 16.586ZM7.12555 16.1807L7.27281 15.7029L7.27234 15.7027L7.12555 16.1807ZM7.49758 16.3229L7.26874 16.7675L7.27199 16.7691L7.49758 16.3229ZM9.11786 16.9227L8.97917 17.4031L9.44941 17.5389L9.59517 17.0716L9.11786 16.9227ZM18.0155 17.9769L17.6854 17.6014L18.2746 18.4045L18.0155 17.9769ZM20.2216 17.0763L20.1549 16.5808L20.1545 16.5809L20.2216 17.0763ZM21.5514 17.9507L22.0342 17.8205L22.0338 17.819L21.5514 17.9507ZM21.5335 18.6748L21.0565 18.5247L21.0563 18.5254L21.5335 18.6748ZM19.489 21.1247L19.6867 21.5839L19.687 21.5838L19.489 21.1247ZM17.8018 22.6136L18.2374 22.859L18.2378 22.8583L17.8018 22.6136ZM16.7934 23.6629L17.0783 24.0737L17.079 24.0733L16.7934 23.6629ZM16.4165 23.9358L16.0987 23.5498L16.0982 23.5502L16.4165 23.9358ZM16.0852 24.5846L15.5888 24.525L15.5337 24.9841L15.987 25.0749L16.0852 24.5846ZM16.1766 24.6026L16.1472 24.1034L16.1382 24.1041L16.1766 24.6026ZM16.3414 24.5846L16.2523 24.0926L16.2518 24.0927L16.3414 24.5846ZM24.6745 18.307L25.123 18.5282L25.1233 18.5275L24.6745 18.307ZM24.4444 17.918L24.4304 18.4178L24.4306 18.4179L24.4444 17.918ZM23.1016 16.7822L22.6112 16.8801L22.6117 16.8826L23.1016 16.7822ZM23.0428 16.5909L23.5208 16.4441L23.5194 16.4397L23.0428 16.5909ZM22.6349 15.5711L22.1776 15.7732L22.1778 15.7737L22.6349 15.5711ZM21.9202 15.1331L21.9104 14.6332L21.9092 14.6332L21.9202 15.1331ZM21.2659 15.2393L21.0965 14.7689L21.0961 14.769L21.2659 15.2393ZM18.9685 16.0205L18.7595 15.5663L18.4968 15.6871L18.4705 15.9751L18.9685 16.0205ZM17.371 13.9874V14.4874H17.4717L17.5646 14.4484L17.371 13.9874ZM19.3878 12.9643L19.6542 13.3874L19.6553 13.3867L19.3878 12.9643ZM20.1873 12.5557L20.3578 13.0257L20.3604 13.0248L20.1873 12.5557ZM21.23 12.4985L21.0775 12.9747L21.0785 12.975L21.23 12.4985ZM21.85 12.4805L22.0238 12.9493L22.0251 12.9489L21.85 12.4805ZM23.2076 12.1765L23.2145 12.6765L23.2152 12.6764L23.2076 12.1765ZM23.7086 11.8905L23.2984 11.6045L23.2976 11.6056L23.7086 11.8905ZM23.6792 11.3887L23.3154 11.7318L23.3156 11.7319L23.6792 11.3887ZM23.4165 11.1338L23.793 10.8048L23.792 10.8036L23.4165 11.1338ZM23.4214 9.95376L23.7896 10.292L24.0241 10.0367L23.8673 9.72753L23.4214 9.95376ZM16.5503 3.73662L16.9291 3.41032L16.8231 3.28722L16.665 3.24996L16.5503 3.73662ZM15.9612 3.63366L15.8871 4.12813L15.8873 4.12816L15.9612 3.63366ZM15.1193 2.61708L15.6187 2.64101L15.6193 2.62905V2.61708H15.1193ZM15.1062 2.50921L15.6015 2.441L15.5444 2.02601L15.1258 2.0096L15.1062 2.50921ZM10.2682 3.39831L10.072 2.93844L8.92746 3.42685L10.0917 3.86612L10.2682 3.39831ZM11.2701 3.63366L11.4021 3.1514L11.4016 3.15127L11.2701 3.63366ZM11.9325 4.04879L11.5292 4.34428L11.5299 4.34526L11.9325 4.04879ZM11.7987 4.96077L11.5085 4.55363L11.5084 4.55371L11.7987 4.96077ZM11.4512 5.15526L11.2175 4.71321L11.2138 4.71518L11.4512 5.15526ZM11.2195 5.31379L11.7174 5.35957L11.7174 5.35899L11.2195 5.31379ZM11.4316 5.54424L11.7042 5.12503L11.7004 5.1226L11.4316 5.54424ZM11.7253 5.70114L11.9457 5.2523L11.9455 5.25224L11.7253 5.70114ZM15.4032 6.60821L15.6611 6.17988L15.6607 6.17965L15.4032 6.60821ZM16.219 7.0593L16.4513 6.61652L16.4503 6.61597L16.219 7.0593ZM16.6906 7.21293L16.6996 7.71285L17.0651 7.70625L17.1697 7.35601L16.6906 7.21293ZM16.6123 6.69156L16.1372 6.84761L16.1383 6.85084L16.6123 6.69156ZM16.3414 5.93975L16.8237 5.80788L16.8236 5.80752L16.3414 5.93975ZM16.7771 5.1667L16.9323 5.64199L17.0353 5.60835L17.1151 5.5351L16.7771 5.1667ZM21.9757 9.67429L21.7067 9.25263L21.6974 9.25889L21.9757 9.67429ZM20.3587 10.0404L20.4462 9.5481L20.4461 9.54809L20.3587 10.0404ZM18.368 9.93905L18.3496 9.43939L18.3494 9.4394L18.368 9.93905ZM17.1018 9.70207L16.9021 10.1605L16.9034 10.161L17.1018 9.70207ZM16.405 9.4798L16.5084 8.99058L16.5059 8.99007L16.405 9.4798ZM14.6542 9.0712L14.7904 8.59009L14.7894 8.58982L14.6542 9.0712ZM13.9705 9.03361L13.7997 8.56371L13.4164 8.70308L13.4759 9.10657L13.9705 9.03361ZM14.1876 9.27877L14.4545 8.85596L14.4486 8.85232L14.1876 9.27877ZM14.651 9.5419L14.8845 9.09977L14.8822 9.0986L14.651 9.5419ZM15.55 10.315L15.1264 10.5805L15.1265 10.5807L15.55 10.315ZM15.8356 10.5912L15.5763 11.0187L15.578 11.0197L15.8356 10.5912ZM17.4461 10.9295L17.5829 11.4104L17.5866 11.4093L17.4461 10.9295ZM17.774 10.8739L17.7086 10.3782L17.7074 10.3784L17.774 10.8739ZM18.4039 10.8837L18.2896 11.3705L18.2906 11.3707L18.4039 10.8837ZM18.9277 11.9853L18.4777 11.7672L18.477 11.7688L18.9277 11.9853ZM18.5703 12.4184L18.8478 12.8344L18.8499 12.8329L18.5703 12.4184ZM16.2892 13.5674L16.1451 13.0886L15.8818 13.1678L15.8077 13.4327L16.2892 13.5674ZM10.7398 11.8006L11.2038 11.6143L11.1468 11.4724L11.0202 11.3867L10.7398 11.8006ZM10.5635 11.7058L10.8211 11.2772L10.8177 11.2752L10.5635 11.7058ZM9.4752 11.4917L9.52907 11.9888L9.52936 11.9888L9.4752 11.4917ZM7.98219 11.4508L7.89074 11.9424L7.89147 11.9425L7.98219 11.4508ZM6.46634 10.4653L6.04166 10.7292L6.04201 10.7298L6.46634 10.4653ZM6.14653 9.99789L6.55038 9.70308L6.54821 9.70015L6.14653 9.99789ZM5.56564 9.45528L5.8192 9.02434L5.81858 9.02398L5.56564 9.45528ZM4.62414 8.92084L4.87078 8.4859L4.631 8.34993L4.38802 8.48011L4.62414 8.92084ZM4.51319 9.06303L4.96802 9.27073L4.969 9.26855L4.51319 9.06303ZM4.08405 10.1826L4.56126 10.3318L4.56143 10.3313L4.08405 10.1826ZM3.99105 10.5961L3.53076 10.7914L3.53169 10.7935L3.99105 10.5961ZM4.34023 10.7562L4.55626 10.3053L4.55162 10.3031L4.34023 10.7562ZM4.79874 11.6061L4.30217 11.5476L4.30199 11.5492L4.79874 11.6061ZM4.78242 11.9052L5.28221 11.8905L5.28215 11.8888L4.78242 11.9052ZM5.01086 12.1013L5.09442 12.5943L5.09507 12.5942L5.01086 12.1013ZM5.83977 12.0964L5.89619 11.5996L5.89539 11.5995L5.83977 12.0964ZM7.95119 12.5606L8.07925 12.0773L8.07902 12.0772L7.95119 12.5606ZM9.55842 13.1915L9.32554 13.6339L9.32684 13.6346L9.55842 13.1915ZM10.5864 13.9236L10.2325 14.2769L10.5692 14.6141L10.9222 14.2941L10.5864 13.9236ZM8.61692 15.576L9.00392 15.2594L8.92508 15.163L8.81026 15.1149L8.61692 15.576ZM7.15655 14.9271L6.94281 15.3792L6.94315 15.3793L7.15655 14.9271ZM5.98662 14.8046L6.07891 15.296L6.0806 15.2957L5.98662 14.8046ZM5.30457 15.2442L5.71418 15.531L5.71518 15.5295L5.30457 15.2442ZM5.14466 15.7149L5.62942 15.8374L5.62949 15.8371L5.14466 15.7149ZM4.13627 16.6204L4.17326 17.119L4.17347 17.119L4.13627 16.6204ZM4.00084 16.6449L3.91851 16.1517L3.59817 16.2052L3.51679 16.5196L4.00084 16.6449ZM3.98452 16.7102L4.47907 16.6362L4.47774 16.6282L3.98452 16.7102ZM4.00573 16.8083L3.52673 16.9518L3.52811 16.9562L4.00573 16.8083ZM8.44233 22.8359L8.25621 23.2999L8.7249 22.4234L8.44233 22.8359ZM3.98974 16.6839L4.46807 16.8295L4.46807 16.8295L3.98974 16.6839ZM4.05471 16.6341L4.16044 17.1228L4.16046 17.1228L4.05471 16.6341ZM5.16817 15.614L4.68021 15.505L4.68021 15.505L5.16817 15.614ZM7.08168 19.141L7.33371 18.7091H7.33371L7.08168 19.141ZM11.8232 21.3507L11.7448 20.8569H11.7448L11.8232 21.3507ZM13.6494 21.5754L13.8706 21.127L13.8706 21.127L13.6494 21.5754ZM12.2636 21.9857L12.2251 22.4842L12.2252 22.4843L12.2636 21.9857ZM11.3772 22.2542L11.1024 21.8365L11.1024 21.8365L11.3772 22.2542ZM10.1754 22.3592L10.0794 22.8499H10.0794L10.1754 22.3592ZM16.7293 23.7071L16.4458 23.2952L16.4458 23.2952L16.7293 23.7071ZM16.1308 24.5953L16.2547 24.1109L16.2547 24.1108L16.1308 24.5953ZM24.7202 18.2166L25.165 18.4449L25.165 18.4449L24.7202 18.2166ZM23.0638 16.6543L23.5366 16.4916L23.5366 16.4915L23.0638 16.6543ZM20.3781 15.524L20.5222 16.0028L20.3781 15.524ZM23.5603 11.2749L23.2238 11.6448L23.2238 11.6448L23.5603 11.2749ZM16.0211 3.64262L15.9472 4.13712L15.9474 4.13715L16.0211 3.64262ZM15.1116 2.54601L14.6174 2.62145L14.6174 2.62146L15.1116 2.54601ZM10.8991 3.55571L10.8106 4.04782L10.8106 4.04782L10.8991 3.55571ZM11.5361 5.11143L11.3088 4.66606L11.3088 4.66606L11.5361 5.11143ZM11.3697 5.18787L11.5313 5.66105L11.5313 5.66105L11.3697 5.18787ZM11.3817 5.51465L11.1333 5.94855L11.1333 5.94855L11.3817 5.51465ZM11.688 5.68282L11.9082 5.23393L11.9078 5.23375L11.688 5.68282ZM16.2383 7.06942L16.4708 6.62673L16.4706 6.62664L16.2383 7.06942ZM16.6371 6.76258L17.108 6.59433L17.108 6.59433L16.6371 6.76258ZM16.4948 6.37503L16.9601 6.19212V6.19212L16.4948 6.37503ZM14.1581 9.26119L14.4121 8.83049L14.4121 8.83049L14.1581 9.26119ZM17.7101 10.8821L17.7722 11.3782H17.7722L17.7101 10.8821ZM10.6413 11.7466L10.8608 11.2974L10.8608 11.2973L10.6413 11.7466ZM4.92351 9.08945L5.16826 8.65345L5.16826 8.65345L4.92351 9.08945ZM4.51971 9.04832L4.06185 8.84739L4.06185 8.8474L4.51971 9.04832ZM4.03924 10.2966L3.58021 10.0984L3.58021 10.0984L4.03924 10.2966ZM4.20535 10.7156L4.31788 10.2284H4.31788L4.20535 10.7156ZM7.73202 12.5023L7.60322 12.9854L7.60322 12.9854L7.73202 12.5023ZM8.15261 23.2458C8.19368 23.2738 8.2576 23.318 8.31916 23.3504C8.38343 23.3843 8.51609 23.445 8.68721 23.4253C8.85684 23.4058 8.97168 23.3176 9.0252 23.2722C9.07705 23.2282 9.1297 23.1719 9.1635 23.1364L8.43912 22.447C8.41731 22.4699 8.40282 22.4851 8.3907 22.4974C8.37839 22.5098 8.37552 22.512 8.37825 22.5097C8.37842 22.5096 8.44921 22.4461 8.57274 22.4319C8.69777 22.4175 8.78229 22.4641 8.78507 22.4656C8.7891 22.4677 8.78649 22.4666 8.77235 22.4575C8.75852 22.4485 8.74144 22.4369 8.71573 22.4194L8.15261 23.2458ZM9.16456 23.1353C9.42301 22.8621 9.67746 22.7697 9.99244 22.8326L10.1883 21.852C9.472 21.7089 8.88449 21.9761 8.43805 22.4482L9.16456 23.1353ZM10.3699 22.9211C10.5602 22.9911 10.7768 23.0332 11.006 22.9993C11.2419 22.9644 11.4492 22.8549 11.6244 22.6898L10.9386 21.962C10.8935 22.0045 10.8691 22.0087 10.8595 22.0101C10.8431 22.0125 10.8002 22.0138 10.7148 21.9825L10.3699 22.9211ZM11.7442 22.6073C11.876 22.5079 12.0137 22.4677 12.1854 22.4812L12.2639 21.4843C11.8546 21.452 11.4734 21.5589 11.1418 21.8092L11.7442 22.6073ZM12.7653 22.5436C13.0963 22.6025 13.4741 22.6106 13.8556 22.4615L13.4915 21.5301C13.3378 21.5902 13.1608 21.5983 12.9404 21.5591L12.7653 22.5436ZM13.8533 22.4624C13.8959 22.446 14.0109 22.4028 14.1145 22.3141C14.2408 22.2062 14.332 22.0491 14.3467 21.8537L13.3496 21.7783C13.3522 21.7432 13.3624 21.699 13.3863 21.6533C13.4099 21.6081 13.4396 21.5755 13.4647 21.5541C13.4881 21.534 13.5065 21.5246 13.51 21.5228C13.513 21.5213 13.5106 21.5228 13.4938 21.5292L13.8533 22.4624ZM14.3465 21.8564C14.3615 21.6718 14.3087 21.495 14.1902 21.3536C14.0871 21.2305 13.9608 21.1667 13.8841 21.1334L13.4859 22.0508C13.5071 22.06 13.4672 22.0477 13.4237 21.9957C13.399 21.9663 13.3766 21.9282 13.3627 21.8832C13.3491 21.8388 13.3478 21.8009 13.3498 21.7757L14.3465 21.8564ZM13.752 21.077C13.2204 20.8995 12.6014 20.7296 11.9219 20.8294L12.0672 21.8188C12.5005 21.7551 12.9291 21.8565 13.4353 22.0255L13.752 21.077ZM11.2186 20.9208C10.1937 20.9561 9.39156 20.6725 8.8295 19.8768L8.01274 20.4538C8.82458 21.603 10 21.9634 11.253 21.9202L11.2186 20.9208ZM8.82976 19.8772C8.58946 19.5364 8.29326 19.2477 7.90684 19.0367L7.42771 19.9145C7.65807 20.0402 7.84486 20.2157 8.01248 20.4534L8.82976 19.8772ZM7.13569 18.5938C6.95133 18.4883 6.80953 18.4025 6.69201 18.2992L6.03181 19.0503C6.2341 19.2281 6.4578 19.358 6.63894 19.4617L7.13569 18.5938ZM6.69018 18.2976C6.26035 17.9235 6.17382 17.3062 6.46185 16.8552L5.61907 16.3169C5.05536 17.1996 5.24295 18.3637 6.03364 19.0519L6.69018 18.2976ZM6.46222 16.8546C6.55372 16.7109 6.63083 16.6612 6.68216 16.6419C6.7325 16.623 6.8203 16.61 6.97876 16.6587L7.27234 15.7027C6.9625 15.6076 6.63993 15.5897 6.33088 15.7056C6.02283 15.8212 5.79154 16.046 5.61871 16.3175L6.46222 16.8546ZM6.97829 16.6585C7.10238 16.6968 7.19335 16.7287 7.26875 16.7675L7.72641 15.8783C7.56684 15.7962 7.40326 15.7431 7.27281 15.7029L6.97829 16.6585ZM7.27199 16.7691C7.83218 17.0523 8.41691 17.2408 8.97917 17.4031L9.25655 16.4423C8.70925 16.2843 8.19747 16.1165 7.72317 15.8767L7.27199 16.7691ZM18.2746 18.4045C18.5957 18.21 18.9327 18.0394 19.2852 17.8801L18.8736 16.9688C18.4952 17.1397 18.1207 17.3286 17.7565 17.5492L18.2746 18.4045ZM19.2852 17.8801C19.6231 17.7276 19.9536 17.6172 20.2887 17.5718L20.1545 16.5809C19.6934 16.6433 19.2667 16.7912 18.8736 16.9688L19.2852 17.8801ZM20.2883 17.5719C20.5396 17.5381 20.6985 17.5841 20.7997 17.6506C20.9004 17.7168 21.0035 17.8424 21.0691 18.0825L22.0338 17.819C21.9199 17.402 21.6983 17.0447 21.3491 16.815C21.0003 16.5857 20.584 16.5231 20.1549 16.5808L20.2883 17.5719ZM21.0687 18.081C21.108 18.2266 21.1043 18.3728 21.0565 18.5247L22.0104 18.8248C22.1128 18.4995 22.1254 18.1587 22.0342 17.8205L21.0687 18.081ZM21.0563 18.5254C20.7416 19.5307 20.2032 20.272 19.2909 20.6656L19.687 21.5838C20.9417 21.0425 21.6368 20.0187 22.0107 18.8241L21.0563 18.5254ZM19.2912 20.6654C18.4679 21.0199 17.8162 21.5661 17.3657 22.3689L18.2378 22.8583C18.5706 22.2653 19.0448 21.8603 19.6867 21.5839L19.2912 20.6654ZM17.3662 22.3681C17.1726 22.7117 16.8776 22.9951 16.5078 23.2524L17.079 24.0733C17.5218 23.7651 17.9447 23.3784 18.2374 22.859L17.3662 22.3681ZM16.0982 23.5502C15.7722 23.8192 15.6311 24.1723 15.5888 24.525L16.5817 24.6442C16.6013 24.4805 16.6528 24.389 16.7347 24.3214L16.0982 23.5502ZM16.206 25.1017C16.2696 25.098 16.3481 25.0916 16.431 25.0765L16.2518 24.0927C16.227 24.0972 16.1946 24.1007 16.1472 24.1035L16.206 25.1017ZM16.4305 25.0766C20.414 24.3555 23.3296 22.165 25.123 18.5282L24.2261 18.0859C22.5733 21.4377 19.9248 23.4278 16.2523 24.0926L16.4305 25.0766ZM24.4585 17.4182C24.1627 17.4099 23.9845 17.3336 23.8705 17.2363C23.7553 17.1381 23.6509 16.9719 23.5914 16.6817L22.6117 16.8826C22.7024 17.3246 22.8916 17.7157 23.2215 17.9971C23.5525 18.2794 23.9707 18.4049 24.4304 18.4178L24.4585 17.4182ZM23.5194 16.4397C23.3987 16.0594 23.2386 15.6993 23.092 15.3685L22.1778 15.7737C22.3281 16.1129 22.465 16.423 22.5662 16.7421L23.5194 16.4397ZM23.0922 15.369C22.9881 15.1333 22.829 14.9347 22.6056 14.802C22.3859 14.6716 22.1438 14.6286 21.9104 14.6332L21.93 15.633C22.0295 15.631 22.0753 15.6502 22.0951 15.6619C22.1112 15.6714 22.143 15.695 22.1776 15.7732L23.0922 15.369ZM21.9092 14.6332C21.6568 14.6387 21.3755 14.6685 21.0965 14.7689L21.4352 15.7098C21.574 15.6598 21.7365 15.6372 21.9312 15.633L21.9092 14.6332ZM17.5646 14.4484C18.2762 14.1496 18.9818 13.8107 19.6542 13.3874L19.1214 12.5411C18.5113 12.9253 17.8593 13.2401 17.1774 13.5264L17.5646 14.4484ZM19.6553 13.3867C19.8932 13.2361 20.1216 13.1114 20.3578 13.0257L20.0169 12.0856C19.6852 12.2059 19.3883 12.3722 19.1203 12.5419L19.6553 13.3867ZM20.3604 13.0248C20.634 12.9238 20.8589 12.9047 21.0775 12.9747L21.3825 12.0223C20.8864 11.8635 20.4228 11.9358 20.0142 12.0866L20.3604 13.0248ZM21.0785 12.975C21.3944 13.0754 21.7161 13.0634 22.0238 12.9493L21.6763 12.0117C21.5695 12.0512 21.4768 12.0523 21.3815 12.022L21.0785 12.975ZM22.0251 12.9489C22.4469 12.7912 22.8273 12.6818 23.2145 12.6765L23.2007 11.6766C22.6383 11.6843 22.1277 11.8429 21.675 12.0121L22.0251 12.9489ZM23.2152 12.6764C23.6231 12.6703 23.9246 12.4564 24.1195 12.1754L23.2976 11.6056C23.2687 11.6473 23.2475 11.6627 23.2387 11.668C23.2327 11.6715 23.2234 11.6762 23.2 11.6766L23.2152 12.6764ZM24.1187 12.1765C24.2049 12.0528 24.3239 11.8548 24.3107 11.6034C24.297 11.345 24.1516 11.1608 24.0428 11.0455L23.3156 11.7319C23.3424 11.7604 23.3444 11.7675 23.3387 11.7573C23.3306 11.7427 23.3147 11.7069 23.312 11.6562C23.3094 11.6065 23.3211 11.5724 23.3248 11.5632C23.3271 11.5576 23.3231 11.5691 23.2984 11.6045L24.1187 12.1765ZM23.792 10.8036C23.6688 10.6635 23.6539 10.5786 23.654 10.5412C23.654 10.506 23.6672 10.4253 23.7896 10.292L23.0532 9.6155C22.8182 9.87126 22.6543 10.1819 22.654 10.5402C22.6536 10.8963 22.815 11.2069 23.041 11.4639L23.792 10.8036ZM16.0354 3.13919C15.7951 3.10315 15.7143 3.03669 15.6851 3.00152C15.6569 2.96752 15.6073 2.87904 15.6187 2.64101L14.6198 2.59315C14.6019 2.96802 14.6681 3.34206 14.9157 3.64025C15.1622 3.93726 15.5171 4.07265 15.8871 4.12813L16.0354 3.13919ZM15.1258 2.0096C13.3856 1.94138 11.7192 2.23545 10.072 2.93844L10.4645 3.85818C11.9729 3.21445 13.4916 2.9463 15.0866 3.00883L15.1258 2.0096ZM11.1381 4.11592C11.3423 4.17183 11.455 4.24298 11.5292 4.34428L12.3359 3.75329C12.0772 3.40024 11.7232 3.23931 11.4021 3.1514L11.1381 4.11592ZM11.5299 4.34526C11.6247 4.47392 11.6016 4.50566 11.6062 4.47298C11.6115 4.43544 11.6304 4.46674 11.5085 4.55363L12.089 5.3679C12.3293 5.19656 12.5481 4.95248 12.5962 4.6138C12.6437 4.27999 12.5064 3.98485 12.3352 3.75232L11.5299 4.34526ZM11.505 6.14997C12.2357 6.50868 13.0115 6.68001 13.8172 6.68001V5.68001C13.1576 5.68001 12.5334 5.5408 11.9457 5.2523L11.505 6.14997ZM13.8172 6.68001C14.3033 6.68001 14.74 6.79301 15.1456 7.03677L15.6607 6.17965C15.0873 5.83504 14.47 5.68001 13.8172 5.68001V6.68001ZM15.1452 7.03654C15.4245 7.20473 15.7095 7.35745 15.9878 7.50262L16.4503 6.61597C16.1771 6.4735 15.9138 6.33202 15.6611 6.17988L15.1452 7.03654ZM16.8236 5.80752C16.8102 5.7587 16.8099 5.72953 16.811 5.71646C16.8119 5.70505 16.8139 5.70369 16.8126 5.70591C16.8085 5.71301 16.8237 5.67745 16.9323 5.64199L16.6218 4.69141C16.3551 4.77852 16.1003 4.93909 15.9461 5.20687C15.7889 5.47976 15.7809 5.78632 15.8592 6.07199L16.8236 5.80752ZM21.6974 9.25889C21.2983 9.52624 20.8828 9.62571 20.4462 9.5481L20.2712 10.5327C20.993 10.661 21.6675 10.4826 22.254 10.0897L21.6974 9.25889ZM20.4461 9.54809C19.7325 9.42134 19.0293 9.41436 18.3496 9.43939L18.3864 10.4387C19.0381 10.4147 19.6598 10.4241 20.2712 10.5327L20.4461 9.54809ZM18.3494 9.4394C17.9844 9.45299 17.636 9.38823 17.3001 9.2431L16.9034 10.161C17.3769 10.3657 17.8737 10.4578 18.3866 10.4387L18.3494 9.4394ZM17.3014 9.24366C17.0447 9.13184 16.7806 9.0481 16.5084 8.99059L16.3017 9.969C16.5092 10.0128 16.7086 10.0762 16.9021 10.1605L17.3014 9.24366ZM16.5059 8.99007C15.9183 8.8691 15.3486 8.74805 14.7904 8.59009L14.5181 9.55232C15.1151 9.72124 15.7169 9.84861 16.3042 9.96952L16.5059 8.99007ZM14.7894 8.58982C14.5956 8.53541 14.2109 8.4142 13.7997 8.56371L14.1414 9.50352C14.1706 9.49291 14.2068 9.48765 14.2658 9.4942C14.333 9.50165 14.4057 9.52076 14.5191 9.55259L14.7894 8.58982ZM13.9206 9.70154C14.0866 9.80636 14.2564 9.90001 14.4197 9.98521L14.8822 9.0986C14.7322 9.02036 14.5887 8.94076 14.4545 8.856L13.9206 9.70154ZM14.4175 9.98403C14.7384 10.1535 14.972 10.3343 15.1264 10.5805L15.9737 10.0494C15.6875 9.59284 15.2815 9.30944 14.8845 9.09978L14.4175 9.98403ZM15.1265 10.5807C15.2444 10.7686 15.4019 10.9129 15.5763 11.0187L16.0949 10.1637C16.0376 10.1289 15.9992 10.0901 15.9735 10.0492L15.1265 10.5807ZM15.578 11.0197C16.1093 11.339 16.7806 11.6388 17.5829 11.4104L17.3092 10.4486C16.9172 10.5602 16.5572 10.4415 16.0931 10.1626L15.578 11.0197ZM17.8395 11.3696C18.0296 11.3445 18.1689 11.3421 18.2896 11.3705L18.5182 10.397C18.2212 10.3272 17.9395 10.3477 17.7086 10.3782L17.8395 11.3696ZM18.2906 11.3707C18.4606 11.4103 18.5559 11.606 18.4777 11.7672L19.3776 12.2033C19.7335 11.469 19.3164 10.5827 18.5172 10.3967L18.2906 11.3707ZM18.477 11.7688C18.4213 11.8847 18.3587 11.958 18.2907 12.0039L18.8499 12.8329C19.1018 12.663 19.2676 12.4324 19.3784 12.2018L18.477 11.7688ZM18.2929 12.0024C17.5957 12.4674 16.9012 12.8611 16.1451 13.0886L16.4333 14.0462C17.3284 13.7768 18.1188 13.3206 18.8478 12.8344L18.2929 12.0024ZM10.8177 11.2752C10.3712 11.0117 9.89845 10.9426 9.42104 10.9946L9.52936 11.9888C9.8319 11.9558 10.0803 12.0012 10.3094 12.1364L10.8177 11.2752ZM9.42133 10.9946C8.96122 11.0445 8.51178 11.0401 8.07292 10.9591L7.89147 11.9425C8.44468 12.0446 8.99384 12.0468 9.52907 11.9888L9.42133 10.9946ZM8.07365 10.9593C7.54369 10.8607 7.15573 10.6261 6.89067 10.2009L6.04201 10.7298C6.48184 11.4355 7.13818 11.8024 7.89074 11.9424L8.07365 10.9593ZM6.89102 10.2014C6.78185 10.0257 6.66414 9.85893 6.55037 9.70309L5.74268 10.2927C5.85083 10.4408 5.95176 10.5846 6.04166 10.7292L6.89102 10.2014ZM6.54821 9.70015C6.36086 9.44739 6.12603 9.20487 5.81919 9.02434L5.31209 9.88622C5.47192 9.98026 5.61238 10.1169 5.74484 10.2956L6.54821 9.70015ZM4.05837 8.85534C3.88355 9.23816 3.73231 9.63048 3.60667 10.0339L4.56143 10.3313C4.67402 9.96978 4.80996 9.61683 4.96801 9.27073L4.05837 8.85534ZM4.12422 11.2072C4.30532 11.2939 4.31325 11.3313 4.30564 11.3173C4.29923 11.3055 4.32686 11.3381 4.30218 11.5476L5.2953 11.6646C5.32609 11.4034 5.33088 11.11 5.18455 10.8403C5.03702 10.5685 4.78796 10.4163 4.55624 10.3053L4.12422 11.2072ZM4.30199 11.5492C4.28957 11.6576 4.27824 11.7856 4.28269 11.9216L5.28215 11.8888C5.28008 11.8255 5.28506 11.754 5.29549 11.663L4.30199 11.5492ZM4.28264 11.9199C4.28406 11.9683 4.2861 12.0448 4.29754 12.1151C4.30782 12.1782 4.34074 12.3471 4.49256 12.4784C4.64947 12.614 4.82663 12.6185 4.89735 12.617C4.97128 12.6154 5.04843 12.6021 5.09442 12.5943L4.9273 11.6084C4.86722 11.6185 4.86361 11.6175 4.87584 11.6172C4.88486 11.617 5.01939 11.6119 5.14652 11.7218C5.20806 11.775 5.2427 11.8342 5.2613 11.8777C5.27837 11.9175 5.28345 11.9476 5.28453 11.9543C5.28567 11.9613 5.28405 11.9533 5.2822 11.8905L4.28264 11.9199ZM5.09507 12.5942C5.30602 12.5581 5.52717 12.5646 5.78414 12.5933L5.89539 11.5995C5.59758 11.5662 5.27047 11.5497 4.92664 11.6085L5.09507 12.5942ZM7.82313 13.0439C8.34582 13.1824 8.84436 13.3806 9.32554 13.6339L9.7913 12.749C9.24777 12.4629 8.67917 12.2362 8.07925 12.0773L7.82313 13.0439ZM9.32684 13.6346C9.67168 13.8148 9.97668 14.0206 10.2325 14.2769L10.9402 13.5704C10.5924 13.222 10.1957 12.9604 9.79 12.7483L9.32684 13.6346ZM8.81026 15.1149C8.32503 14.9114 7.84391 14.6987 7.36996 14.475L6.94315 15.3793C7.4319 15.61 7.92653 15.8287 8.42359 16.0371L8.81026 15.1149ZM7.3703 14.4751C6.8731 14.24 6.37252 14.2216 5.89264 14.3135L6.0806 15.2957C6.40351 15.2339 6.67963 15.2547 6.94281 15.3792L7.3703 14.4751ZM5.89433 14.3132C5.48086 14.3908 5.13853 14.6069 4.89395 14.9589L5.71518 15.5295C5.80673 15.3978 5.91802 15.3262 6.07891 15.296L5.89433 14.3132ZM4.65989 15.5924C4.60822 15.7969 4.53511 15.9164 4.46077 15.9865C4.39271 16.0507 4.28805 16.1076 4.09906 16.1217L4.17347 17.119C4.55395 17.0906 4.88658 16.9595 5.1469 16.714C5.40095 16.4744 5.5473 16.1624 5.62942 15.8374L4.65989 15.5924ZM3.49003 16.7843C3.4973 16.8328 3.50824 16.89 3.52675 16.9518L4.48471 16.6648C4.48364 16.6613 4.48153 16.6531 4.479 16.6362L3.49003 16.7843ZM3.52811 16.9562C4.34281 19.5866 5.88782 21.6921 8.15976 23.2484L8.7249 22.4234C6.64019 20.9953 5.23182 19.0769 4.48335 16.6604L3.52811 16.9562ZM8.62845 22.3718L8.62029 22.3685L8.24805 23.2967L8.25621 23.2999L8.62845 22.3718ZM18.3457 18.3524C18.6949 18.0453 19.363 17.1985 19.4664 16.066L18.4705 15.9751C18.3963 16.7881 17.8975 17.4149 17.6854 17.6014L18.3457 18.3524ZM8.22993 15.8926C8.3195 16.0021 8.45286 16.1963 8.54573 16.3996C8.65035 16.6285 8.64848 16.7484 8.64054 16.7738L9.59517 17.0716C9.71992 16.6717 9.57871 16.2541 9.45527 15.9839C9.32006 15.6881 9.13661 15.4216 9.00392 15.2594L8.22993 15.8926ZM10.2758 11.9869C10.356 12.1866 10.4484 12.5249 10.4575 12.8571C10.467 13.2005 10.3869 13.4296 10.2506 13.5532L10.9222 14.2941C11.3759 13.8829 11.4699 13.293 11.4572 12.8297C11.4442 12.3553 11.3183 11.8994 11.2038 11.6143L10.2758 11.9869ZM15.8077 13.4327C15.7048 13.8004 15.9322 14.1089 16.2103 14.2656C16.4763 14.4153 16.8586 14.4874 17.371 14.4874V13.4874C16.924 13.4874 16.7458 13.4194 16.7009 13.3942C16.6835 13.3844 16.7164 13.398 16.7475 13.4558C16.7802 13.5169 16.7977 13.6056 16.7707 13.702L15.8077 13.4327ZM22.2446 10.0958C22.3539 10.0261 22.527 9.96022 22.6739 9.96304C22.7395 9.9643 22.7888 9.97881 22.8282 10.0025C22.8658 10.0252 22.9207 10.072 22.9755 10.18L23.8673 9.72753C23.5931 9.18724 23.138 8.97177 22.6931 8.96323C22.2914 8.95551 21.9258 9.11305 21.7068 9.25274L22.2446 10.0958ZM17.1151 5.5351C17.3142 5.35246 17.4723 5.04249 17.4703 4.65917C17.4682 4.26799 17.3017 3.84286 16.9291 3.41032L16.1714 4.06293C16.4294 4.36241 16.4698 4.56647 16.4703 4.6644C16.4708 4.7702 16.4271 4.80925 16.439 4.79829L17.1151 5.5351ZM4.47774 16.6282C4.49192 16.7134 4.47941 16.7806 4.47354 16.8073C4.47066 16.8204 4.46795 16.8298 4.46747 16.8315C4.46698 16.8332 4.46669 16.8341 4.46807 16.8295L3.51141 16.5384C3.51068 16.5408 3.50855 16.5477 3.50653 16.5547C3.50453 16.5617 3.50059 16.5757 3.49681 16.5929C3.48914 16.6278 3.47613 16.7011 3.4913 16.7923L4.47774 16.6282ZM4.46807 16.8295C4.47137 16.8187 4.47763 16.7982 4.48488 16.7702L3.51679 16.5196C3.5158 16.5234 3.51497 16.5264 3.51427 16.5288C3.5135 16.5315 3.51279 16.5338 3.5114 16.5384L4.46807 16.8295ZM4.08316 17.138C4.11549 17.1327 4.14464 17.1263 4.16044 17.1228L3.94898 16.1454C3.93017 16.1495 3.92371 16.1508 3.91851 16.1517L4.08316 17.138ZM4.16046 17.1228C4.16778 17.1212 4.17258 17.1202 4.17698 17.1193C4.18115 17.1184 4.18345 17.118 4.18462 17.1178C4.18709 17.1173 4.18234 17.1183 4.17326 17.119L4.09927 16.1217C4.03148 16.1268 3.97074 16.1407 3.94896 16.1455L4.16046 17.1228ZM5.62949 15.8371C5.63986 15.796 5.64884 15.7557 5.65612 15.7231L4.68021 15.505C4.67244 15.5397 4.66635 15.5668 4.65983 15.5927L5.62949 15.8371ZM5.65612 15.7231C5.67147 15.6545 5.68076 15.6149 5.69219 15.5804C5.70228 15.5499 5.71003 15.5369 5.71418 15.5309L4.89495 14.9575C4.75041 15.164 4.70578 15.3906 4.68021 15.505L5.65612 15.7231ZM6.6366 19.4604C6.70069 19.4975 6.76479 19.5349 6.82965 19.5728L7.33371 18.7091C7.26906 18.6714 7.20366 18.6332 7.13804 18.5952L6.6366 19.4604ZM6.82965 19.5728C7.02293 19.6856 7.22312 19.8025 7.42716 19.9142L7.90738 19.037C7.71736 18.933 7.52898 18.8231 7.33371 18.7091L6.82965 19.5728ZM11.2552 21.9201C11.4857 21.9112 11.7111 21.8748 11.9017 21.8445L11.7448 20.8569C11.5438 20.8888 11.3775 20.9146 11.2164 20.9209L11.2552 21.9201ZM11.9017 21.8445C11.9592 21.8354 12.0138 21.8267 12.0681 21.8186L11.921 20.8295C11.8611 20.8384 11.8015 20.8479 11.7448 20.8569L11.9017 21.8445ZM13.4428 22.028C13.4282 22.0233 13.4188 22.0191 13.4172 22.0185C13.4163 22.018 13.4165 22.0181 13.4185 22.019C13.4207 22.0201 13.4232 22.0214 13.4282 22.0238L13.8706 21.127C13.8587 21.1211 13.806 21.094 13.7444 21.0745L13.4428 22.028ZM13.4282 22.0238C13.4377 22.0285 13.4627 22.041 13.4907 22.0528L13.8793 21.1314C13.8822 21.1326 13.8833 21.1332 13.8817 21.1324C13.8796 21.1314 13.877 21.1302 13.8706 21.127L13.4282 22.0238ZM12.9414 21.5593C12.7165 21.5188 12.4954 21.5021 12.3021 21.4872L12.2252 22.4843C12.4265 22.4998 12.5973 22.5134 12.7643 22.5435L12.9414 21.5593ZM11.1349 21.8145C11.1351 21.8143 11.1332 21.8159 11.1275 21.8198C11.1213 21.824 11.1143 21.8286 11.1024 21.8365L11.6521 22.6718C11.6715 22.659 11.7114 22.6332 11.7512 22.602L11.1349 21.8145ZM11.1024 21.8365C11.076 21.8539 11.0017 21.9009 10.9339 21.9665L11.6291 22.6854C11.6211 22.6931 11.6168 22.6958 11.6211 22.6927C11.6231 22.6912 11.6263 22.689 11.6317 22.6854C11.6373 22.6816 11.6433 22.6776 11.6521 22.6718L11.1024 21.8365ZM10.7164 21.9831C10.5537 21.9226 10.3887 21.8914 10.2715 21.8685L10.0794 22.8499C10.2104 22.8755 10.2946 22.8932 10.3683 22.9205L10.7164 21.9831ZM10.2715 21.8685C10.2428 21.8629 10.2164 21.8577 10.1906 21.8524L9.9901 22.8321C10.0208 22.8384 10.0513 22.8444 10.0794 22.8499L10.2715 21.8685ZM16.5085 23.252C16.488 23.2662 16.4673 23.2804 16.4458 23.2952L17.0127 24.119C17.034 24.1043 17.0562 24.0891 17.0783 24.0737L16.5085 23.252ZM16.4458 23.2952C16.3423 23.3664 16.2172 23.4522 16.0987 23.5498L16.7343 24.3218C16.814 24.2561 16.9031 24.1944 17.0128 24.119L16.4458 23.2952ZM15.987 25.0749C15.9918 25.0758 15.9954 25.0767 16.0069 25.0797L16.2547 24.1108C16.2419 24.1076 16.2162 24.1009 16.1835 24.0944L15.987 25.0749ZM16.0069 25.0797C16.0115 25.0808 16.0384 25.088 16.0667 25.0931C16.1 25.0992 16.1519 25.106 16.215 25.1011L16.1382 24.1041C16.1882 24.1002 16.2271 24.1059 16.2456 24.1093C16.2544 24.1109 16.2603 24.1123 16.2609 24.1124C16.2611 24.1125 16.2605 24.1123 16.2547 24.1109L16.0069 25.0797ZM25.1233 18.5275C25.1372 18.4992 25.1507 18.4728 25.165 18.4449L24.2754 17.9883C24.2614 18.0156 24.244 18.0493 24.2257 18.0866L25.1233 18.5275ZM25.165 18.4449C25.1877 18.4008 25.2332 18.315 25.2607 18.2332C25.2847 18.1618 25.3548 17.9257 25.1951 17.6977C25.0575 17.5015 24.8448 17.4588 24.7757 17.4457C24.6787 17.4273 24.567 17.4212 24.4583 17.4182L24.4306 18.4179C24.5334 18.4207 24.5768 18.4258 24.5897 18.4283C24.5951 18.4293 24.5728 18.4259 24.5382 18.4099C24.502 18.393 24.4334 18.3533 24.3761 18.2716C24.315 18.1844 24.2967 18.0921 24.2968 18.0223C24.2969 17.9618 24.3106 17.9211 24.313 17.9142C24.315 17.9082 24.3123 17.9164 24.2753 17.9883L25.165 18.4449ZM23.5919 16.6843C23.5755 16.6021 23.5492 16.5283 23.5366 16.4916L22.5911 16.8171C22.5988 16.8395 22.6033 16.8526 22.6069 16.8645C22.6086 16.8699 22.6096 16.8737 22.6103 16.8763C22.611 16.879 22.6112 16.8801 22.6112 16.8801L23.5919 16.6843ZM23.5366 16.4915C23.5289 16.4691 23.5244 16.456 23.5208 16.4441L22.5649 16.7378C22.5743 16.7684 22.5843 16.7974 22.5911 16.8171L23.5366 16.4915ZM21.0961 14.769C20.8188 14.8692 20.5341 14.955 20.2341 15.0452L20.5222 16.0028C20.8178 15.9139 21.1286 15.8205 21.4357 15.7096L21.0961 14.769ZM20.2341 15.0452C19.7624 15.1871 19.2514 15.34 18.7595 15.5663L19.1774 16.4748C19.5957 16.2824 20.0395 16.1481 20.5222 16.0028L20.2341 15.0452ZM24.043 11.0457C23.9902 10.9897 23.935 10.9399 23.8967 10.9051L23.2238 11.6448C23.267 11.6841 23.2933 11.7084 23.3154 11.7318L24.043 11.0457ZM23.8967 10.9051C23.8431 10.8563 23.815 10.8299 23.793 10.8048L23.0399 11.4627C23.106 11.5383 23.1776 11.6028 23.2238 11.6448L23.8967 10.9051ZM16.665 3.24996C16.4669 3.20327 16.2678 3.17387 16.0949 3.14809L15.9474 4.13715C16.1273 4.16397 16.2849 4.18778 16.4356 4.22329L16.665 3.24996ZM15.6193 2.61708C15.6193 2.55052 15.6086 2.48841 15.6059 2.47056L14.6174 2.62146C14.6185 2.62892 14.6192 2.63358 14.6198 2.63765C14.6203 2.64151 14.6205 2.64289 14.6205 2.64284C14.6205 2.6427 14.6202 2.64013 14.6199 2.63585C14.6196 2.63148 14.6193 2.62507 14.6193 2.61708H15.6193ZM15.6059 2.47057C15.6042 2.45915 15.6028 2.45038 15.6015 2.441L14.6109 2.57742C14.6133 2.59499 14.6157 2.61053 14.6174 2.62145L15.6059 2.47057ZM10.0917 3.86612C10.3628 3.96842 10.6141 4.01248 10.8106 4.04782L10.9876 3.0636C10.7846 3.02711 10.6188 2.99617 10.4447 2.9305L10.0917 3.86612ZM10.8106 4.04782C10.9411 4.07129 11.0424 4.08984 11.1385 4.11604L11.4016 3.15127C11.2557 3.11148 11.1106 3.08572 10.9876 3.0636L10.8106 4.04782ZM11.5084 4.55371C11.4617 4.58703 11.4049 4.61703 11.3088 4.66606L11.7633 5.55681C11.8478 5.51368 11.9719 5.45139 12.0891 5.36783L11.5084 4.55371ZM11.3088 4.66606C11.281 4.68027 11.2494 4.69639 11.2175 4.71322L11.6849 5.59729C11.7092 5.58441 11.7344 5.57157 11.7633 5.55681L11.3088 4.66606ZM11.2138 4.71518C11.2209 4.7114 11.2262 4.70893 11.2291 4.70765C11.2319 4.70637 11.2333 4.70588 11.2324 4.70621C11.2315 4.70656 11.2293 4.70737 11.2251 4.70887C11.2206 4.71044 11.2157 4.71212 11.2082 4.71469L11.5313 5.66105C11.5506 5.65445 11.6209 5.63183 11.6885 5.59533L11.2138 4.71518ZM11.2082 4.71469C11.1892 4.72118 11.0841 4.75343 10.99 4.81714C10.8677 4.9 10.7415 5.04851 10.7215 5.26859L11.7174 5.35899C11.7121 5.41811 11.692 5.48114 11.6543 5.53871C11.6185 5.59345 11.5776 5.62696 11.5509 5.64506C11.5256 5.66216 11.5072 5.66948 11.507 5.66955C11.5061 5.66993 11.5071 5.66946 11.5116 5.66787C11.5163 5.66617 11.5218 5.6643 11.5313 5.66105L11.2082 4.71469ZM10.7216 5.26801C10.7001 5.50168 10.8034 5.67913 10.9125 5.78838C11.0002 5.87617 11.1063 5.9331 11.1333 5.94855L11.6302 5.08074C11.6073 5.06764 11.5999 5.06322 11.5952 5.06015C11.5911 5.05746 11.6029 5.06459 11.6201 5.08176C11.6383 5.09997 11.6681 5.13505 11.6906 5.18884C11.7144 5.24583 11.7224 5.30552 11.7174 5.35957L10.7216 5.26801ZM11.1333 5.94855C11.1527 5.95971 11.159 5.96344 11.1629 5.96587L11.7004 5.1226C11.6729 5.10511 11.6453 5.08941 11.6302 5.08074L11.1333 5.94855ZM11.1591 5.96342C11.2702 6.03566 11.3855 6.09143 11.4681 6.1319L11.9078 5.23375C11.8158 5.18871 11.7558 5.15865 11.7042 5.12505L11.1591 5.96342ZM16.0059 7.5121C16.1287 7.5766 16.3799 7.71862 16.6996 7.71285L16.6816 6.71301C16.6719 6.71318 16.6556 6.71185 16.6234 6.70001C16.5852 6.68602 16.5443 6.66533 16.4708 6.62673L16.0059 7.5121ZM17.1697 7.35601C17.272 7.01332 17.1517 6.71662 17.108 6.59433L16.1663 6.93082C16.1796 6.96794 16.1887 6.99374 16.1963 7.01815C16.2035 7.04145 16.2071 7.0565 16.2089 7.06652C16.2117 7.08245 16.2089 7.07846 16.2115 7.06984L17.1697 7.35601ZM17.108 6.59433C17.0992 6.56985 17.0924 6.55068 17.0862 6.53228L16.1383 6.85084C16.148 6.87974 16.1581 6.90786 16.1663 6.93083L17.108 6.59433ZM17.0873 6.53552C17.047 6.41279 17.0004 6.29468 16.9601 6.19212L16.0294 6.55794C16.0715 6.66495 16.1073 6.75655 16.1372 6.84761L17.0873 6.53552ZM16.9601 6.19212C16.902 6.04432 16.856 5.92588 16.8237 5.80788L15.8591 6.07163C15.908 6.25027 15.9747 6.41865 16.0294 6.55794L16.9601 6.19212ZM13.4759 9.10657C13.5329 9.49287 13.8333 9.65011 13.9041 9.69188L14.4121 8.83049C14.3895 8.8172 14.383 8.81312 14.3788 8.81027C14.3761 8.80847 14.3847 8.8139 14.3971 8.82656C14.4106 8.84026 14.4271 8.86073 14.4411 8.88794C14.4552 8.9154 14.4623 8.94104 14.4652 8.96066L13.4759 9.10657ZM13.9041 9.69188C13.9148 9.69814 13.921 9.70185 13.9265 9.70522L14.4486 8.85232C14.4348 8.8439 14.4214 8.83598 14.4121 8.83049L13.9041 9.69188ZM17.5866 11.4093C17.6269 11.3975 17.6762 11.3902 17.7722 11.3782L17.648 10.386C17.5663 10.3962 17.4362 10.4114 17.3056 10.4496L17.5866 11.4093ZM17.7722 11.3782C17.7932 11.3756 17.8168 11.3727 17.8407 11.3694L17.7074 10.3784C17.6888 10.3809 17.6698 10.3833 17.648 10.386L17.7722 11.3782ZM11.0202 11.3867C10.955 11.3425 10.8891 11.3112 10.8608 11.2974L10.4218 12.1959C10.44 12.2047 10.4489 12.2091 10.4563 12.2131C10.4628 12.2166 10.4628 12.2169 10.4593 12.2145L11.0202 11.3867ZM10.8608 11.2973C10.8311 11.2829 10.8245 11.2793 10.8211 11.2772L10.306 12.1344C10.3528 12.1625 10.3988 12.1846 10.4218 12.1959L10.8608 11.2973ZM5.81858 9.02398C5.59993 8.89575 5.38042 8.77255 5.16826 8.65345L4.67876 9.52546C4.89225 9.6453 5.10355 9.76392 5.3127 9.88658L5.81858 9.02398ZM5.16826 8.65345C5.06759 8.59694 4.9686 8.54138 4.87078 8.4859L4.37751 9.35578C4.47753 9.4125 4.57841 9.46913 4.67876 9.52546L5.16826 8.65345ZM4.38802 8.48011C4.1626 8.60088 4.0855 8.79352 4.06185 8.84739L4.97756 9.24924C4.99042 9.21994 4.98162 9.24409 4.96223 9.27116C4.95058 9.28742 4.9353 9.30525 4.91606 9.32235C4.89685 9.33942 4.87759 9.3523 4.86027 9.36157L4.38802 8.48011ZM4.06185 8.8474C4.05952 8.8527 4.05838 8.85531 4.05738 8.85751L4.969 9.26855C4.97241 9.261 4.97557 9.25378 4.97756 9.24923L4.06185 8.8474ZM3.60684 10.0333C3.6044 10.0412 3.59908 10.0547 3.58021 10.0984L4.49826 10.4949C4.51265 10.4616 4.54034 10.3987 4.56126 10.3318L3.60684 10.0333ZM3.58021 10.0984C3.56237 10.1397 3.5201 10.2338 3.49642 10.3365C3.4706 10.4486 3.45558 10.6142 3.53077 10.7914L4.45133 10.4008C4.46782 10.4396 4.47423 10.477 4.4752 10.5076C4.47612 10.5364 4.47216 10.5556 4.47088 10.5611C4.46969 10.5663 4.46969 10.5643 4.47467 10.5513C4.47991 10.5376 4.48655 10.522 4.49826 10.4949L3.58021 10.0984ZM3.53169 10.7935C3.61297 10.9826 3.75956 11.0815 3.86706 11.1311C3.96077 11.1743 4.05976 11.1951 4.09283 11.2027L4.31788 10.2284C4.29285 10.2226 4.28183 10.22 4.2734 10.2176C4.26561 10.2154 4.2722 10.2167 4.2859 10.223C4.30014 10.2296 4.32944 10.2449 4.36202 10.2745C4.39673 10.306 4.42863 10.3479 4.4504 10.3986L3.53169 10.7935ZM4.09283 11.2027C4.10507 11.2056 4.1139 11.2076 4.12216 11.2096C4.13014 11.2116 4.13539 11.2129 4.13897 11.214C4.14251 11.215 4.14315 11.2152 4.14173 11.2147C4.14029 11.2142 4.13569 11.2125 4.12884 11.2094L4.55162 10.3031C4.45461 10.2579 4.35289 10.2365 4.31788 10.2284L4.09283 11.2027ZM5.78335 12.5932C6.38483 12.6615 6.97264 12.8173 7.60322 12.9854L7.86082 12.0192C7.24209 11.8542 6.58323 11.6776 5.89619 11.5996L5.78335 12.5932ZM7.60322 12.9854C7.67616 13.0049 7.74969 13.0245 7.82336 13.044L8.07902 12.0772C8.00649 12.058 7.93393 12.0387 7.86082 12.0192L7.60322 12.9854ZM12.1861 22.4812L12.2251 22.4842L12.3022 21.4872L12.2632 21.4842L12.1861 22.4812ZM16.4706 6.62664L16.4513 6.61652L15.9868 7.50207L16.0061 7.5122L16.4706 6.62664ZM11.9455 5.25224L11.9082 5.23393L11.4678 6.13172L11.5051 6.15003L11.9455 5.25224ZM15.8873 4.12816L15.9472 4.13712L16.0951 3.14811L16.0352 3.13916L15.8873 4.12816Z" fill="black" mask="url(#path-18-inside-1_1_456)"/>
<defs>
<linearGradient id="paint0_linear_1_456" x1="32.2552" y1="16.0401" x2="49.6524" y2="14.7473" gradientUnits="userSpaceOnUse">
<stop stop-color="#D378FF"/>
<stop offset="1" stop-color="#C9009C"/>
</linearGradient>
<linearGradient id="paint1_linear_1_456" x1="15.2607" y1="37.4409" x2="21.2042" y2="37.4409" gradientUnits="userSpaceOnUse">
<stop stop-color="#13D948"/>
<stop offset="1" stop-color="#00C158"/>
</linearGradient>
<linearGradient id="paint2_linear_1_456" x1="3.96494" y1="13.5575" x2="24.7953" y2="13.5575" gradientUnits="userSpaceOnUse">
<stop stop-color="#D378FF"/>
<stop offset="1" stop-color="#C9009C"/>
</linearGradient>
</defs>
</svg>
