<svg width="32" height="32" viewBox="0 0 32 32" fill="none" xmlns="http://www.w3.org/2000/svg">
<g clip-path="url(#clip0_1_56)">
<path d="M15 10.8007C14.4111 11.0807 13.7763 11.2647 13.1185 11.3527C13.7916 10.9287 14.3117 10.2567 14.5564 9.44868C13.9216 9.84868 13.218 10.1287 12.4761 10.2887C11.8719 9.60068 11.0229 9.20068 10.0593 9.20068C8.26195 9.20068 6.7935 10.7367 6.7935 12.6327C6.7935 12.9047 6.82409 13.1687 6.87763 13.4167C4.15488 13.2727 1.7304 11.9047 0.116635 9.83268C-0.166348 10.3367 -0.32696 10.9287 -0.32696 11.5527C-0.32696 12.7447 0.246654 13.8007 1.13384 14.4007C0.590822 14.4007 0.0860423 14.2407 -0.357552 14.0007V14.0247C-0.357552 15.6887 0.774379 17.0807 2.27342 17.3927C1.79214 17.5304 1.28688 17.5496 0.797323 17.4487C1.00505 18.1307 1.41188 18.7274 1.96062 19.155C2.50937 19.5826 3.17243 19.8196 3.8566 19.8327C2.69685 20.793 1.25927 21.3121 -0.219885 21.3047C-0.479923 21.3047 -0.739962 21.2887 -1 21.2567C0.453155 22.2327 2.18164 22.8007 4.03251 22.8007C10.0593 22.8007 13.3709 17.5687 13.3709 13.0327C13.3709 12.8807 13.3709 12.7367 13.3633 12.5847C14.0057 12.1047 14.5564 11.4967 15 10.8007Z" fill="white"/>
</g>
<defs>
<clipPath id="clip0_1_56">
<rect y="0.000488281" width="32" height="32" rx="16" fill="white"/>
</clipPath>
</defs>
</svg>
