<svg width="60" height="61" viewBox="0 0 60 61" fill="none" xmlns="http://www.w3.org/2000/svg">
<path d="M51.9488 5.65301C53.8638 7.82238 53.6912 11.1689 51.5707 13.1281L42.3326 21.6374L34.1713 12.3713L43.4011 3.86201C45.5216 1.90284 48.7927 2.07943 50.7077 4.2488L51.9488 5.65301Z" fill="black"/>
<path d="M42.6941 22.0495C43.4173 22.8735 43.3516 24.1348 42.5543 24.8831L41.8228 25.5558C41.0174 26.2957 39.7763 26.2285 39.0531 25.4044L38.6997 25.0008L30.5383 15.7347L30.1766 15.3227C29.4534 14.4987 29.5191 13.2374 30.3164 12.4891L31.0478 11.8164C31.8533 11.0765 33.0944 11.1437 33.8176 11.9678L34.171 12.3714L42.3324 21.6375L42.6941 22.0495Z" fill="black"/>
<path d="M38.6996 25.0009L33.5052 29.7853H15.3003L30.5299 15.7347L38.6996 25.0009Z" fill="url(#paint0_linear_1_387)"/>
<path d="M33.5051 29.7853L19.5493 42.6502C17.7412 44.315 15.1029 44.4327 13.1797 43.0874L11.1332 44.9709C10.3852 45.6604 9.22636 45.6015 8.56063 44.8364L8.12503 44.3403C7.45107 43.5751 7.51683 42.3979 8.25653 41.7084L10.303 39.8249C9.2017 37.7228 9.57978 35.049 11.3962 33.3841L15.3084 29.7769H33.5133L33.5051 29.7853Z" fill="url(#paint1_linear_1_387)"/>
<path d="M42.3323 21.6375L42.6939 22.0495C43.4172 22.8735 43.3514 24.1348 42.5542 24.8831L41.8227 25.5558C41.0173 26.2957 39.7762 26.2285 39.053 25.4044L38.6995 25.0008L30.5381 15.7347L30.1765 15.3227C29.4532 14.4987 29.519 13.2374 30.3162 12.4891L31.0477 11.8164C31.8532 11.0765 33.0942 11.1437 33.8175 11.9678L34.1709 12.3714L42.3323 21.6375Z" stroke="black" stroke-width="3" stroke-linejoin="round"/>
<path d="M30.5298 15.7347L15.3001 29.7853L11.3879 33.3925C9.57975 35.0573 9.19345 37.7312 10.2948 39.8333L8.24828 41.7168C7.50036 42.4063 7.44283 43.5919 8.11678 44.3486L8.55238 44.8447C9.22633 45.6099 10.377 45.6688 11.1249 44.9793L13.1714 43.0958C15.0946 44.4411 17.7329 44.3234 19.5411 42.6586L33.4968 29.7936L38.6829 25.0092" stroke="black" stroke-width="2" stroke-linejoin="round"/>
<path d="M42.3322 21.6374L51.5702 13.1281C53.6907 11.1689 53.8633 7.82238 51.9483 5.65301L50.7072 4.2488C48.7922 2.07943 45.5211 1.90284 43.4006 3.86201L34.1708 12.3713" stroke="black" stroke-width="3" stroke-linejoin="round"/>
<path d="M15.3002 29.7852H33.5051" stroke="black" stroke-width="2" stroke-linejoin="round"/>
<path d="M12.1772 55.7083C12.1772 57.2471 10.9608 58.4999 9.44851 58.4999C7.93623 58.4999 6.71985 57.2555 6.71985 55.7083C6.71985 54.1612 9.44851 49.1414 9.44851 49.1414C9.44851 49.1414 12.1772 54.1696 12.1772 55.7083Z" fill="url(#paint2_linear_1_387)"/>
<g style="mix-blend-mode:overlay" opacity="0.4">
<path d="M17.1659 35.6038C16.4509 36.2513 15.3495 36.1756 14.7249 35.4441C14.092 34.7125 14.166 33.5942 14.881 32.9468L20.4864 27.9101C21.2096 27.2627 22.3027 27.3384 22.9274 28.0699C23.5602 28.8014 23.4863 29.9197 22.7712 30.5672L17.1659 35.6038ZM27.1519 26.6236C27.8669 25.9762 27.9409 24.8579 27.308 24.1263C26.6752 23.3948 25.5821 23.3191 24.867 23.9666L24.1109 24.6477C23.3959 25.2951 23.3219 26.4134 23.9547 27.145C24.5876 27.8765 25.6807 27.9522 26.3958 27.3047L27.1519 26.6236Z" fill="white"/>
</g>
<defs>
<linearGradient id="paint0_linear_1_387" x1="15.3003" y1="22.7558" x2="38.6996" y2="22.7558" gradientUnits="userSpaceOnUse">
<stop stop-color="white"/>
<stop offset="1" stop-color="white"/>
</linearGradient>
<linearGradient id="paint1_linear_1_387" x1="7.64833" y1="37.6219" x2="33.505" y2="37.6219" gradientUnits="userSpaceOnUse">
<stop offset="0.15" stop-color="#E029B8"/>
<stop offset="0.54" stop-color="#B92298"/>
</linearGradient>
<linearGradient id="paint2_linear_1_387" x1="7.84584" y1="53.3792" x2="12.1857" y2="54.6857" gradientUnits="userSpaceOnUse">
<stop offset="0.15" stop-color="#E029B8"/>
<stop offset="0.54" stop-color="#B92298"/>
</linearGradient>
</defs>
</svg>
