<svg width="120" height="28" viewBox="0 0 120 28" fill="none" xmlns="http://www.w3.org/2000/svg">
<path d="M16.5 6.5H0V9.5H14L0 18.5V23H16.5V20.5H2L16.5 10.5V6.5Z" fill="#1FDB46"/>
<path d="M30 6.5H21V9H27V23H30V6.5Z" fill="#1FDB46"/>
<path d="M75 6.5H66V9H72V23H75V6.5Z" fill="#1FDB46"/>
<path d="M61 6.5V1.5H58V9V23H61V6.5Z" fill="#1FDB46"/>
<path d="M26 3.5V0H30V3.5H26Z" fill="#1FDB46"/>
<path d="M71 3.5V0H75V3.5H71Z" fill="#1FDB46"/>
<path d="M82 23.0001H79V6.50007L82 6.50028L81.5 8.50018C87.5 2 97 6.00004 97 13.0001V23.0001H94V15.0001C94 12.0001 94 8.5 89 8.5C83 8.5 81.8333 12.8335 82 15.0001V23.0001Z" fill="#1FDB46"/>
<path fill-rule="evenodd" clip-rule="evenodd" d="M34.5 6.50067V28.0007H37.5V21.0007C42 25.0006 54.9561 24.9907 54.5 14.5006C54 3.00025 40 5.00027 37.5 8.50067V6.50067H34.5ZM44.5 21.0002C48.6421 21.0002 51.5 19.0002 51.5 14.5002C51.5 10.5002 49.5 8.50025 44.5 8.50025C40 8.50025 37.5 10.9104 37.5 14.5002C37.5 19.0002 40.3579 21.0002 44.5 21.0002Z" fill="#1FDB46"/>
<path fill-rule="evenodd" clip-rule="evenodd" d="M103 15.5H119.5C119.833 12.1667 118.3 5.5 109.5 5.5C101.5 5.5 100 11 100 15.5C100 18.3333 101.9 24 109.5 24C117.1 24 119 20 119.5 18.5H116C115 19.3333 112.4 21 110 21C107 21 103 19.5 103 15.5ZM103 13H116.5C116 11.3333 115 8 109.5 8C105.1 8 103.333 11.3333 103 13Z" fill="#1FDB46"/>
</svg>
