<svg width="373" height="97" viewBox="0 0 373 97" fill="none" xmlns="http://www.w3.org/2000/svg">
<path d="M371 2C334.5 2 353 48.6216 307.669 48.6216C294.462 49.7012 282.18 50.2374 273.826 47.2075C270.823 46.1186 267.496 44.3158 268.492 41.805C269.303 39.7616 278.867 39.5804 280.23 39.6845C286.908 40.195 290.674 43.5603 293.192 46.1601C296.457 49.5308 299.88 53.8514 294.821 59.0881C283.815 70.4808 257.287 70.2857 244.024 69.1339C235.203 68.3678 224.775 67.413 219.175 64.6265C216.575 63.3327 210.762 60.0518 215.76 56.9166C226.112 50.4227 234.934 60.064 236.775 62.0241C240.889 66.4039 240.346 71.3836 233.148 77.8976C229.606 81.1032 224.088 84.6599 217.959 87.2834C211.366 90.1059 203.726 92.474 196.402 93.8496V93.8496C172.21 98.3931 148.244 89.7518 124.985 81.695C89.3018 69.3344 40.3027 58.7006 1.50008 69.1339" stroke="#1FDB46" stroke-width="3" stroke-linecap="round"/>
</svg>
