<svg width="40" height="105" viewBox="0 0 40 105" fill="none" xmlns="http://www.w3.org/2000/svg">
<path d="M0.66864 103.612C5.24037 98.6485 9.21929 89.6787 9.39692 85.0717C9.58207 80.2696 9.39493 75.6665 6.65994 71.54C5.67702 70.0571 4.12992 68.2389 2.24969 67.8886C0.719524 67.6036 1.04684 71.2576 1.19332 71.8163C1.91111 74.5541 4.67997 77.0007 6.7999 78.7389C9.54846 80.9925 13.0344 83.5862 16.8104 83.161C25.0252 82.2361 23.5815 71.8968 22.0498 66.4186C21.031 62.7751 19.789 58.4534 17.3753 55.466C16.2546 54.0789 13.4508 50.8638 11.2861 51.8816C6.80263 53.9897 14.6392 60.2362 16.2346 61.5244C19.7997 64.403 23.5986 65.6528 28.2514 64.7732C30.5411 64.3403 33.0042 63.2444 34.7205 61.6384C36.5671 59.9104 38.0137 57.6438 38.7132 55.2084C40.1111 50.3409 41.5004 24.6258 17.3753 0.500732" stroke="#1FDB46" stroke-linecap="round"/>
</svg>
